<svg width="55" height="55" viewBox="0 0 55 55" fill="none" xmlns="http://www.w3.org/2000/svg">
<path d="M41.4619 32.2173H13.5994C12.7094 32.2173 11.988 31.496 11.988 30.606C11.988 22.9216 15.5829 15.251 18.5987 10.169C20.1206 7.60429 21.8482 5.12604 23.4637 3.19035C24.1754 2.33726 24.8443 1.61804 25.3986 1.10989C26.2584 0.321426 26.876 0 27.5306 0C28.1852 0 28.8029 0.321426 29.6627 1.10989C30.2166 1.61804 30.8855 2.33726 31.5976 3.19035C33.2127 5.12604 34.9407 7.60429 36.4622 10.1686C39.478 15.2505 43.0728 22.9216 43.0728 30.606C43.0732 31.496 42.3515 32.2173 41.4619 32.2173V32.2173Z" fill="#F5A96C"/>
<path d="M36.4621 10.1686C34.9401 7.60429 33.2125 5.12604 31.5974 3.19035C30.8854 2.33726 30.2165 1.61762 29.6626 1.10989C28.8028 0.321426 28.1851 0 27.5305 0V32.2173H41.4618C42.3514 32.2173 43.0731 31.496 43.0731 30.606C43.0731 22.9216 39.4778 15.2505 36.4621 10.1686V10.1686Z" fill="#D98955"/>
<path d="M33.1153 10.5022C32.3037 7.95341 31.3818 5.48943 30.5195 3.56422C30.133 2.70065 29.7835 2.00073 29.481 1.48376C29.1939 0.993652 28.6736 0.106163 27.7039 0.00965119C27.6468 0.00335693 27.5889 0 27.5306 0C27.4718 0 27.4139 0.00335693 27.3569 0.00965119C26.3875 0.106163 25.8668 0.993652 25.5802 1.48376C25.2777 2.00073 24.9281 2.70065 24.5412 3.56422C23.6793 5.48943 22.7574 7.95341 21.9459 10.5022C20.348 15.5195 18.4434 23.0802 18.4434 30.606C18.4434 31.496 19.1647 32.2173 20.0547 32.2173C20.9443 32.2173 21.666 31.496 21.666 30.606C21.666 23.8867 23.3151 17.0515 24.6986 12.5008C25.1119 11.1425 25.5244 9.90883 25.9193 8.80817V30.606C25.9193 31.496 26.6406 32.2173 27.5306 32.2173C28.4206 32.2173 29.1419 31.496 29.1419 30.606V8.80817C29.5368 9.90883 29.9492 11.1421 30.3626 12.5008C31.746 17.0515 33.3951 23.8867 33.3951 30.606C33.3951 31.4956 34.1169 32.2173 35.0065 32.2173C35.8965 32.2173 36.6178 31.4956 36.6178 30.606C36.6178 23.0802 34.7132 15.5195 33.1153 10.5022Z" fill="#D88955"/>
<path d="M33.1152 10.5022C32.3037 7.95341 31.3818 5.48943 30.5194 3.56422C30.133 2.70065 29.7834 2.00073 29.4809 1.48376C29.1939 0.993652 28.6736 0.106163 27.7038 0.00965119C27.6468 0.00335693 27.5888 0 27.5305 0V32.2173C28.4201 32.2173 29.1418 31.496 29.1418 30.606V8.80817C29.5367 9.90883 29.9492 11.1421 30.3621 12.5008C31.746 17.0515 33.3951 23.8867 33.3951 30.606C33.3951 31.4956 34.1164 32.2173 35.0064 32.2173C35.8964 32.2173 36.6177 31.4956 36.6177 30.606C36.6177 23.0802 34.7131 15.5195 33.1152 10.5022Z" fill="#AE6E3F"/>
<path d="M27.5306 54.9995C22.277 54.9995 17.5828 52.6609 14.3131 48.4144C10.9931 44.1033 9.23828 37.945 9.23828 30.6055C9.23828 29.7155 9.9596 28.9941 10.8496 28.9941H44.2112C45.1012 28.9941 45.8226 29.7155 45.8226 30.6055C45.8226 37.945 44.0677 44.1033 40.7477 48.4144C37.4781 52.6609 32.7842 54.9995 27.5306 54.9995V54.9995Z" fill="#DA7E4A"/>
<path d="M44.2111 28.9941H27.5305V54.9995C32.7841 54.9995 37.478 52.6609 40.7476 48.4144C44.0676 44.1033 45.8224 37.945 45.8224 30.6055C45.8224 29.7155 45.1011 28.9941 44.2111 28.9941V28.9941Z" fill="#CB6C35"/>
<path d="M17.4158 36.7458C17.4158 37.6236 16.7042 38.3353 15.8263 38.3353C14.9485 38.3353 14.2368 37.6236 14.2368 36.7458C14.2368 35.8679 14.9485 35.1562 15.8263 35.1562C16.7042 35.1562 17.4158 35.8679 17.4158 36.7458Z" fill="#A15427"/>
<path d="M26.2923 38.779C26.2923 39.6568 25.5806 40.3685 24.7028 40.3685C23.825 40.3685 23.1133 39.6568 23.1133 38.779C23.1133 37.9011 23.825 37.1895 24.7028 37.1895C25.5806 37.1895 26.2923 37.9011 26.2923 38.779Z" fill="#A15427"/>
<path d="M36.5767 42.8942C36.5767 43.772 35.8651 44.4837 34.9872 44.4837C34.1094 44.4837 33.3977 43.772 33.3977 42.8942C33.3977 42.0159 34.1094 41.3047 34.9872 41.3047C35.8651 41.3047 36.5767 42.0159 36.5767 42.8942Z" fill="#883F2E"/>
<path d="M23.5967 46.193C23.5967 47.0709 22.8855 47.7825 22.0072 47.7825C21.1294 47.7825 20.4177 47.0709 20.4177 46.193C20.4177 45.3152 21.1294 44.6035 22.0072 44.6035C22.8855 44.6035 23.5967 45.3152 23.5967 46.193Z" fill="#A15427"/>
<path d="M40.835 36.7458C40.835 37.6236 40.1234 38.3353 39.2455 38.3353C38.3677 38.3353 37.656 37.6236 37.656 36.7458C37.656 35.8679 38.3677 35.1562 39.2455 35.1562C40.1234 35.1562 40.835 35.8679 40.835 36.7458Z" fill="#883F2E"/>
</svg>
