<svg width="60" height="60" viewBox="0 0 60 60" fill="none" xmlns="http://www.w3.org/2000/svg">
<path d="M32.5 6.875C32.5 7.91 31.66 8.75 30.625 8.75H29.375C28.34 8.75 27.5 7.91 27.5 6.875V5.625C27.5 4.59 28.34 3.75 29.375 3.75H30.625C31.66 3.75 32.5 4.59 32.5 5.625V6.875Z" fill="#546E7A"/>
<path d="M40 33.125C40 34.16 39.16 35 38.125 35H21.875C20.84 35 20 34.16 20 33.125V21.875C20 20.84 20.84 20 21.875 20H38.125C39.16 20 40 20.84 40 21.875V33.125Z" fill="#BBDEFB"/>
<path d="M31.25 20H28.75V33.75H31.25V20Z" fill="#64B5F6"/>
<path d="M40 30.625C40 29.59 39.16 28.75 38.125 28.75H21.875C20.84 28.75 20 29.59 20 30.625V45.625C20 46.66 20.84 47.5 21.875 47.5H38.125C39.16 47.5 40 46.66 40 45.625V30.625Z" fill="#211D1B"/>
<path d="M29.375 38.75C30.4105 38.75 31.25 37.9105 31.25 36.875C31.25 35.8395 30.4105 35 29.375 35C28.3395 35 27.5 35.8395 27.5 36.875C27.5 37.9105 28.3395 38.75 29.375 38.75Z" fill="#474141"/>
<path d="M36.875 30C37.9105 30 38.75 29.1605 38.75 28.125C38.75 27.0895 37.9105 26.25 36.875 26.25C35.8395 26.25 35 27.0895 35 28.125C35 29.1605 35.8395 30 36.875 30Z" fill="#474141"/>
<path d="M24.375 42.5C25.4105 42.5 26.25 41.6605 26.25 40.625C26.25 39.5895 25.4105 38.75 24.375 38.75C23.3395 38.75 22.5 39.5895 22.5 40.625C22.5 41.6605 23.3395 42.5 24.375 42.5Z" fill="#2F2B2A"/>
<path d="M34.375 45C35.4105 45 36.25 44.1605 36.25 43.125C36.25 42.0895 35.4105 41.25 34.375 41.25C33.3395 41.25 32.5 42.0895 32.5 43.125C32.5 44.1605 33.3395 45 34.375 45Z" fill="#474141"/>
<path d="M29.375 43.75C30.4105 43.75 31.25 42.9105 31.25 41.875C31.25 40.8395 30.4105 40 29.375 40C28.3395 40 27.5 40.8395 27.5 41.875C27.5 42.9105 28.3395 43.75 29.375 43.75Z" fill="#474141"/>
<path d="M35.625 38.75C36.6605 38.75 37.5 37.9105 37.5 36.875C37.5 35.8395 36.6605 35 35.625 35C34.5895 35 33.75 35.8395 33.75 36.875C33.75 37.9105 34.5895 38.75 35.625 38.75Z" fill="black"/>
<path d="M21.875 43.75C22.9105 43.75 23.75 42.9105 23.75 41.875C23.75 40.8395 22.9105 40 21.875 40C20.8395 40 20 40.8395 20 41.875C20 42.9105 20.8395 43.75 21.875 43.75Z" fill="black"/>
<path d="M23.125 28.75C24.1605 28.75 25 27.9105 25 26.875C25 25.8395 24.1605 25 23.125 25C22.0895 25 21.25 25.8395 21.25 26.875C21.25 27.9105 22.0895 28.75 23.125 28.75Z" fill="#2F2B2A"/>
<path d="M24.375 32.5C25.4105 32.5 26.25 31.6605 26.25 30.625C26.25 29.5895 25.4105 28.75 24.375 28.75C23.3395 28.75 22.5 29.5895 22.5 30.625C22.5 31.6605 23.3395 32.5 24.375 32.5Z" fill="#2F2B2A"/>
<path d="M25.625 26.25C25.3788 26.25 25.1438 26.3013 24.9275 26.3875C24.97 26.5438 25 26.705 25 26.875C25 27.6637 24.5113 28.335 23.8225 28.6125C24.0375 29.41 24.76 30 25.625 30C26.66 30 27.5 29.16 27.5 28.125C27.5 27.09 26.66 26.25 25.625 26.25Z" fill="black"/>
<path d="M30.625 46.25C31.6605 46.25 32.5 45.4105 32.5 44.375C32.5 43.3395 31.6605 42.5 30.625 42.5C29.5895 42.5 28.75 43.3395 28.75 44.375C28.75 45.4105 29.5895 46.25 30.625 46.25Z" fill="#2F2B2A"/>
<path d="M36.875 35C37.9105 35 38.75 34.1605 38.75 33.125C38.75 32.0895 37.9105 31.25 36.875 31.25C35.8395 31.25 35 32.0895 35 33.125C35 34.1605 35.8395 35 36.875 35Z" fill="#474141"/>
<path d="M25.7275 47.6016C26.7631 47.6016 27.6025 46.7621 27.6025 45.7266C27.6025 44.691 26.7631 43.8516 25.7275 43.8516C24.692 43.8516 23.8525 44.691 23.8525 45.7266C23.8525 46.7621 24.692 47.6016 25.7275 47.6016Z" fill="black"/>
<path d="M24.375 36.25C25.4105 36.25 26.25 35.4105 26.25 34.375C26.25 33.3395 25.4105 32.5 24.375 32.5C23.3395 32.5 22.5 33.3395 22.5 34.375C22.5 35.4105 23.3395 36.25 24.375 36.25Z" fill="#2F2B2A"/>
<path d="M23.125 28.7498C22.3363 28.7498 21.665 28.261 21.3875 27.5723C20.59 27.7873 20 28.5098 20 29.3748C20 30.4098 20.84 31.2498 21.875 31.2498C22.91 31.2498 23.75 30.4098 23.75 29.3748C23.75 29.1285 23.6987 28.8935 23.6125 28.6773C23.4562 28.7198 23.295 28.7498 23.125 28.7498Z" fill="black"/>
<path d="M31.875 36.25C32.9105 36.25 33.75 35.4105 33.75 34.375C33.75 33.3395 32.9105 32.5 31.875 32.5C30.8395 32.5 30 33.3395 30 34.375C30 35.4105 30.8395 36.25 31.875 36.25Z" fill="black"/>
<path d="M35.625 47.5C36.6605 47.5 37.5 46.6605 37.5 45.625C37.5 44.5895 36.6605 43.75 35.625 43.75C34.5895 43.75 33.75 44.5895 33.75 45.625C33.75 46.6605 34.5895 47.5 35.625 47.5Z" fill="black"/>
<path d="M21.875 38.75C22.9105 38.75 23.75 37.9105 23.75 36.875C23.75 35.8395 22.9105 35 21.875 35C20.8395 35 20 35.8395 20 36.875C20 37.9105 20.8395 38.75 21.875 38.75Z" fill="#0D0D0C"/>
<path d="M26.875 35C27.9105 35 28.75 34.1605 28.75 33.125C28.75 32.0895 27.9105 31.25 26.875 31.25C25.8395 31.25 25 32.0895 25 33.125C25 34.1605 25.8395 35 26.875 35Z" fill="#0A0909"/>
<path d="M33.125 41.25C34.1605 41.25 35 40.4105 35 39.375C35 38.3395 34.1605 37.5 33.125 37.5C32.0895 37.5 31.25 38.3395 31.25 39.375C31.25 40.4105 32.0895 41.25 33.125 41.25Z" fill="#474141"/>
<path d="M36.875 43.75C37.9105 43.75 38.75 42.9105 38.75 41.875C38.75 40.8395 37.9105 40 36.875 40C35.8395 40 35 40.8395 35 41.875C35 42.9105 35.8395 43.75 36.875 43.75Z" fill="black"/>
<path d="M33.125 31.25C34.1605 31.25 35 30.4105 35 29.375C35 28.3395 34.1605 27.5 33.125 27.5C32.0895 27.5 31.25 28.3395 31.25 29.375C31.25 30.4105 32.0895 31.25 33.125 31.25Z" fill="black"/>
<path d="M26.875 41.875C27.9105 41.875 28.75 41.0355 28.75 40C28.75 38.9645 27.9105 38.125 26.875 38.125C25.8395 38.125 25 38.9645 25 40C25 41.0355 25.8395 41.875 26.875 41.875Z" fill="black"/>
<path d="M29.375 31.25C30.4105 31.25 31.25 30.4105 31.25 29.375C31.25 28.3395 30.4105 27.5 29.375 27.5C28.3395 27.5 27.5 28.3395 27.5 29.375C27.5 30.4105 28.3395 31.25 29.375 31.25Z" fill="#474141"/>
<path d="M23.125 44.8008C24.1605 44.8008 25 43.9613 25 42.9258C25 41.8902 24.1605 41.0508 23.125 41.0508C22.0895 41.0508 21.25 41.8902 21.25 42.9258C21.25 43.9613 22.0895 44.8008 23.125 44.8008Z" fill="#474141"/>
<path d="M38.125 40C39.1605 40 40 39.1605 40 38.125C40 37.0895 39.1605 36.25 38.125 36.25C37.0895 36.25 36.25 37.0895 36.25 38.125C36.25 39.1605 37.0895 40 38.125 40Z" fill="#2F2B2A"/>
<path d="M38.125 31.25C39.1605 31.25 40 30.4105 40 29.375C40 28.3395 39.1605 27.5 38.125 27.5C37.0895 27.5 36.25 28.3395 36.25 29.375C36.25 30.4105 37.0895 31.25 38.125 31.25Z" fill="black"/>
<path d="M40 54.375C40 55.41 39.16 56.25 38.125 56.25H21.875C20.84 56.25 20 55.41 20 54.375V49.375C20 48.34 20.84 47.5 21.875 47.5H38.125C39.16 47.5 40 48.34 40 49.375V54.375Z" fill="#90A4AE"/>
<path d="M40 15.5557C40 18.0107 38.01 20.0007 35.555 20.0007H24.4438C21.99 20.0007 20 18.0107 20 15.5557C20 13.102 22.4063 8.75195 30 8.75195C37.5925 8.75195 40 13.102 40 15.5557Z" fill="#90A4AE"/>
</svg>
