<svg width="60" height="60" viewBox="0 0 60 60" fill="none" xmlns="http://www.w3.org/2000/svg">
<path d="M51.75 36.875C46.625 21.375 34.875 32.75 34.875 32.75C34.875 32.75 33.25 32.875 31.375 33.5C27.375 29.625 19.875 32 19.875 32C19.875 32 6.00003 27.375 7.62503 42.875C8.37503 49.5 13.5 53.75 20.625 53.75C24.25 53.75 27.375 52.625 29.625 50.75C33.375 54.125 38.875 54.75 44.375 52.25C51.125 49.25 53.875 43.25 51.75 36.875Z" fill="#730419"/>
<path d="M37.125 44.1249C36.625 39.2499 40.5 30.3749 43.75 28.7499C39.25 28.6249 34.875 32.7499 34.875 32.7499C34.875 32.7499 33.375 32.8749 31.5 33.4999C31.375 33.3749 31.25 33.3749 31.125 33.3749C32.875 34.9999 34 37.9999 33.5 42.8749C33.125 46.1249 31.75 48.7499 29.625 50.6249C31.5 52.3749 36 55.6249 44.375 52.2499C40.5 51.4999 37.625 48.9999 37.125 44.1249Z" fill="#730419"/>
<path d="M12.6253 43.6252C12.1253 43.6252 11.5003 43.2501 11.3753 42.6252C10.1253 37.5002 13.1253 35.3752 14.3753 34.6252C15.0003 34.2502 15.7503 34.5002 16.0003 35.1252C16.3753 35.7502 16.1253 36.5002 15.5003 36.7502C14.2503 37.3752 13.0003 38.7502 13.7503 41.8752C13.8753 42.5002 13.5003 43.2502 12.8753 43.3752C12.7503 43.6252 12.7503 43.6252 12.6253 43.6252Z" fill="#FFCDD2"/>
<path d="M35.9999 30.3751C35.8749 30.0001 35.7499 29.7501 35.6249 29.3751C35.6249 29.2501 35.4999 29.1251 35.4999 29.0001C35.3749 28.7501 35.3749 28.5001 35.2499 28.3751C35.1249 28.1251 35.1249 28.0001 34.9999 27.7501C34.8749 27.5001 34.8749 27.3751 34.8749 27.1251C34.7499 26.8751 34.7499 26.6251 34.6249 26.5001C34.4999 26.2501 34.4999 26.0001 34.3749 25.7501C34.3749 25.6251 34.2499 25.5001 34.2499 25.3751C34.1249 25.1251 34.1249 24.8751 34.1249 24.6251C34.1249 24.5001 34.1249 24.3751 33.9999 24.2501C33.9999 24.0001 33.8749 23.7501 33.8749 23.5001C33.8749 23.3751 33.8749 23.2501 33.7499 23.1251C33.7499 22.8751 33.6249 22.6251 33.6249 22.3751C33.6249 22.2501 33.6249 22.1251 33.6249 22.1251C33.6249 21.8751 33.6249 21.6251 33.6249 21.3751C33.6249 21.2501 33.6249 21.1251 33.6249 21.0001C33.6249 20.7501 33.6249 20.5001 33.6249 20.2501C33.6249 20.1251 33.6249 20.1251 33.6249 20.0001C33.6249 19.7501 33.6249 19.5001 33.6249 19.2501C33.6249 19.1251 33.6249 19.0001 33.6249 19.0001C33.6249 18.7501 33.6249 18.6251 33.6249 18.3751C33.6249 18.2501 33.6249 18.1251 33.6249 18.0001C33.6249 17.8751 33.6249 17.6251 33.6249 17.5001C33.6249 17.3751 33.6249 17.2501 33.6249 17.1251C33.6249 17.0001 33.6249 16.8751 33.6249 16.7501C33.6249 16.6251 33.6249 16.5001 33.7499 16.2501C33.7499 16.1251 33.7499 16.1251 33.7499 16.0001C33.7499 15.8751 33.8749 15.6251 33.8749 15.5001C33.8749 15.3751 33.8749 15.3751 33.8749 15.2501C33.8749 15.0001 33.9999 14.8751 33.9999 14.6251V14.5001C33.9999 14.2501 34.1249 14.1251 34.1249 13.8751C34.8749 11.2501 36.1249 9.50007 36.6249 8.87507C36.7499 8.87507 36.8749 8.75007 36.8749 8.75007C37.4999 8.50007 37.7499 7.75007 37.4999 7.12507C37.2499 6.50007 36.8749 6.00007 36.2499 6.25007C36.2499 6.25007 36.1249 6.25007 36.1249 6.37507C35.9999 6.37507 35.8749 6.37507 35.7499 6.50007C35.6249 6.50007 35.6249 6.62507 35.4999 6.75007C18.1249 14.6251 18.7499 33.6251 18.7499 33.7501C18.7499 34.3751 19.3749 35.0001 19.9999 35.0001C20.7499 35.0001 21.2499 34.3751 21.2499 33.7501C21.2499 33.6251 20.7499 19.1251 32.7499 11.0001C30.8749 15.6251 29.3749 23.6251 35.1249 34.3751C35.3749 34.7501 35.7499 35.0001 36.2499 35.0001C36.4999 35.0001 36.6249 35.0001 36.8749 34.8751C37.3749 34.6251 37.6249 34.1251 37.4999 33.6251C37.4999 33.5001 37.3749 33.2501 37.3749 33.1251C37.1249 32.6251 36.8749 32.1251 36.6249 31.7501V31.6251C36.3749 31.2501 36.1249 30.7501 35.9999 30.3751Z" fill="#795548"/>
<path d="M47.5 22.5C45.25 20.125 51.125 6.25 36.25 6.25C27.75 22.75 47.5 22.5 47.5 22.5Z" fill="#235625"/>
</svg>
