<svg width="60" height="60" viewBox="0 0 60 60" fill="none" xmlns="http://www.w3.org/2000/svg">
<path d="M51.7503 36.8755C46.6253 21.3755 34.8753 32.7505 34.8753 32.7505C34.8753 32.7505 33.2503 32.8755 31.3753 33.5005C27.3753 29.6255 19.8753 32.0005 19.8753 32.0005C19.8753 32.0005 6.00027 27.3755 7.62527 42.8755C8.37527 49.5005 13.5003 53.7505 20.6253 53.7505C24.2503 53.7505 27.3753 52.6255 29.6253 50.7505C33.3753 54.1255 38.8753 54.7505 44.3753 52.2505C51.1253 49.2505 53.8753 43.2505 51.7503 36.8755Z" fill="#C1072B"/>
<path d="M37.1248 44.1258C36.6248 39.2508 40.4998 30.3758 43.7498 28.7508C39.2498 28.6258 34.8748 32.7508 34.8748 32.7508C34.8748 32.7508 33.3748 32.8758 31.4998 33.5008C31.3748 33.3758 31.2498 33.3758 31.1248 33.3758C32.8748 35.0008 33.9998 38.0008 33.4998 42.8758C33.1248 46.1258 31.7498 48.7508 29.6248 50.6258C31.4998 52.3758 35.9998 55.6258 44.3748 52.2508C40.4998 51.5008 37.6248 49.0008 37.1248 44.1258Z" fill="#C1072B"/>
<path d="M12.625 43.6254C12.125 43.6254 11.5 43.2504 11.375 42.6254C10.125 37.5004 13.125 35.3754 14.375 34.6254C15 34.2504 15.75 34.5004 16 35.1254C16.375 35.7504 16.125 36.5004 15.5 36.7504C14.25 37.3754 13 38.7504 13.75 41.8754C13.875 42.5004 13.5 43.2504 12.875 43.3754C12.75 43.6254 12.75 43.6254 12.625 43.6254Z" fill="#FFCDD2"/>
<path d="M12.625 43.6254C12.125 43.6254 11.5 43.2504 11.375 42.6254C10.125 37.5004 13.125 35.3754 14.375 34.6254C15 34.2504 15.75 34.5004 16 35.1254C16.375 35.7504 16.125 36.5004 15.5 36.7504C14.25 37.3754 13 38.7504 13.75 41.8754C13.875 42.5004 13.5 43.2504 12.875 43.3754C12.75 43.6254 12.75 43.6254 12.625 43.6254Z" fill="#FFCDD2"/>
<path d="M36.0001 30.3743C35.8751 29.9993 35.7501 29.7493 35.6251 29.3743C35.6251 29.2493 35.5001 29.1243 35.5001 28.9993C35.3751 28.7493 35.3751 28.4993 35.2501 28.3743C35.1251 28.1243 35.1251 27.9993 35.0001 27.7493C34.8751 27.4993 34.8751 27.3743 34.8751 27.1243C34.7501 26.8743 34.7501 26.6243 34.6251 26.4993C34.5001 26.2493 34.5001 25.9993 34.3751 25.7493C34.3751 25.6243 34.2501 25.4993 34.2501 25.3743C34.1251 25.1243 34.1251 24.8743 34.1251 24.6243C34.1251 24.4993 34.1251 24.3743 34.0001 24.2493C34.0001 23.9993 33.8751 23.7493 33.8751 23.4993C33.8751 23.3743 33.8751 23.2493 33.7501 23.1243C33.7501 22.8743 33.6251 22.6243 33.6251 22.3743C33.6251 22.2493 33.6251 22.1243 33.6251 22.1243C33.6251 21.8743 33.6251 21.6243 33.6251 21.3743C33.6251 21.2493 33.6251 21.1243 33.6251 20.9993C33.6251 20.7493 33.6251 20.4993 33.6251 20.2493C33.6251 20.1243 33.6251 20.1243 33.6251 19.9993C33.6251 19.7493 33.6251 19.4993 33.6251 19.2493C33.6251 19.1243 33.6251 18.9993 33.6251 18.9993C33.6251 18.7493 33.6251 18.6243 33.6251 18.3743C33.6251 18.2493 33.6251 18.1243 33.6251 17.9993C33.6251 17.8743 33.6251 17.6243 33.6251 17.4993C33.6251 17.3743 33.6251 17.2493 33.6251 17.1243C33.6251 16.9993 33.6251 16.8743 33.6251 16.7493C33.6251 16.6243 33.6251 16.4993 33.7501 16.2493C33.7501 16.1243 33.7501 16.1243 33.7501 15.9993C33.7501 15.8743 33.8751 15.6243 33.8751 15.4993C33.8751 15.3743 33.8751 15.3743 33.8751 15.2493C33.8751 14.9993 34.0001 14.8743 34.0001 14.6243V14.4993C34.0001 14.2493 34.1251 14.1243 34.1251 13.8743C34.8751 11.2493 36.1251 9.49934 36.6251 8.87434C36.7501 8.87434 36.8751 8.74934 36.8751 8.74934C37.5001 8.49934 37.7501 7.74934 37.5001 7.12434C37.2501 6.49934 36.8751 5.99934 36.2501 6.24934C36.2501 6.24934 36.1251 6.24934 36.1251 6.37434C36.0001 6.37434 35.8751 6.37434 35.7501 6.49934C35.6251 6.49934 35.6251 6.62434 35.5001 6.74934C18.1251 14.6243 18.7501 33.6243 18.7501 33.7493C18.7501 34.3743 19.3751 34.9993 20.0001 34.9993C20.7501 34.9993 21.2501 34.3743 21.2501 33.7493C21.2501 33.6243 20.7501 19.1243 32.7501 10.9993C30.8751 15.6243 29.3751 23.6243 35.1251 34.3743C35.3751 34.7493 35.7501 34.9993 36.2501 34.9993C36.5001 34.9993 36.6251 34.9993 36.8751 34.8743C37.3751 34.6243 37.6251 34.1243 37.5001 33.6243C37.5001 33.4993 37.3751 33.2493 37.3751 33.1243C37.1251 32.6243 36.8751 32.1243 36.6251 31.7493V31.6243C36.3751 31.2493 36.1251 30.7493 36.0001 30.3743Z" fill="#795548"/>
<path d="M47.4998 22.5C45.2498 20.125 51.1248 6.25 36.2498 6.25C27.7498 22.75 47.4998 22.5 47.4998 22.5Z" fill="#235625"/>
</svg>
