<svg width="60" height="60" viewBox="0 0 60 60" fill="none" xmlns="http://www.w3.org/2000/svg">
<path d="M37.5 56.25H22.5C22.5 56.25 16.25 41.25 16.25 28.125C16.25 23.75 17.5 21.25 23.125 21.25C28.75 21.25 31.25 21.25 36.875 21.25C42.5 21.25 43.75 23.75 43.75 28.125C43.75 41.25 37.5 56.25 37.5 56.25Z" fill="#A6D7FF"/>
<path d="M32.5 18.75H27.5V35H32.5V18.75Z" fill="#42A5F5"/>
<path d="M36.2479 52.5C37.7004 48.4413 40.2254 40.5275 41.0066 32.6512C38.0579 34.5512 33.2354 33.625 30.2091 32.5387C28.4254 31.8987 26.8841 30.925 24.9991 30.4325C24.0279 30.1787 23.0804 29.7112 22.0804 29.4925C21.0466 29.2662 19.8804 29.3712 18.7866 29.585C19.0991 38.4137 22.1116 47.9175 23.7541 52.4988H36.2479V52.5Z" fill="#BF8561"/>
<path d="M32.5 18.75H27.5V3.75L32.5 8.75V18.75Z" fill="#3F51B5"/>
<path d="M41.25 19.375C41.25 20.41 40.41 21.25 39.375 21.25H20.625C19.5888 21.25 18.75 20.41 18.75 19.375V16.875C18.75 15.84 19.5888 15 20.625 15H39.375C40.41 15 41.25 15.84 41.25 16.875V19.375Z" fill="#1976D2"/>
<path d="M23.75 41.25C24.4404 41.25 25 40.6904 25 40C25 39.3096 24.4404 38.75 23.75 38.75C23.0596 38.75 22.5 39.3096 22.5 40C22.5 40.6904 23.0596 41.25 23.75 41.25Z" fill="#90A4AE"/>
<path d="M26.25 37.5C26.9404 37.5 27.5 36.9404 27.5 36.25C27.5 35.5596 26.9404 35 26.25 35C25.5596 35 25 35.5596 25 36.25C25 36.9404 25.5596 37.5 26.25 37.5Z" fill="#90A4AE"/>
<path d="M28.75 41.25C29.4404 41.25 30 40.6904 30 40C30 39.3096 29.4404 38.75 28.75 38.75C28.0596 38.75 27.5 39.3096 27.5 40C27.5 40.6904 28.0596 41.25 28.75 41.25Z" fill="#90A4AE"/>
</svg>
