<svg width="32" height="52" viewBox="0 0 32 52" fill="none" xmlns="http://www.w3.org/2000/svg">
<path d="M16.1515 50.9241H16.1762H6.7956C6.61847 50.2469 10.3578 49.3012 11.347 48.7897C14.756 47.0269 15.1657 45.9822 15.2287 38.8918C15.2946 31.4618 14.9014 29.797 12.8742 28.9224C6.08638 25.9946 0.793267 20.9142 1.65151 14.1754C1.95771 11.7709 6.89988 1.90114 7.50379 0.924072H24.8242C25.4281 1.90118 30.1939 11.7712 30.5 14.1754C31.3582 20.9142 26.2416 25.9947 19.4538 28.9224C17.4265 29.7969 17.0333 31.4615 17.0993 38.8918C17.1623 45.9822 17.5719 47.0269 20.981 48.7897C21.9701 49.3012 25.7095 50.2469 25.5324 50.9241H16.1515Z" stroke="#1C2E4A" stroke-width="1.5"/>
</svg>
