<svg width="60" height="60" viewBox="0 0 60 60" fill="none" xmlns="http://www.w3.org/2000/svg">
<path d="M30 52.5L7.5 43.75V16.25L30 25V52.5Z" fill="#FFD145"/>
<path d="M30 52.5L52.5 43.75V16.25L30 25V52.5Z" fill="#FFB300"/>
<path d="M7.5 16.25L30 7.5L52.5 16.25L30 25L7.5 16.25Z" fill="#FFC400"/>
<path d="M12.5 41.25C13.1904 41.25 13.75 40.6904 13.75 40C13.75 39.3096 13.1904 38.75 12.5 38.75C11.8096 38.75 11.25 39.3096 11.25 40C11.25 40.6904 11.8096 41.25 12.5 41.25Z" fill="white"/>
<path d="M12.5 28.75C13.1904 28.75 13.75 28.1904 13.75 27.5C13.75 26.8096 13.1904 26.25 12.5 26.25C11.8096 26.25 11.25 26.8096 11.25 27.5C11.25 28.1904 11.8096 28.75 12.5 28.75Z" fill="white"/>
<path d="M16.25 37.5C16.9404 37.5 17.5 36.9404 17.5 36.25C17.5 35.5596 16.9404 35 16.25 35C15.5596 35 15 35.5596 15 36.25C15 36.9404 15.5596 37.5 16.25 37.5Z" fill="white"/>
</svg>
