<svg width="50" height="50" viewBox="0 0 50 50" fill="none" xmlns="http://www.w3.org/2000/svg">
<g clip-path="url(#clip0)">
<path fill-rule="evenodd" clip-rule="evenodd" d="M38.6718 0.976562H11.3281C10.2539 0.976562 9.375 1.85547 9.375 2.92968V47.0703C9.375 48.1445 10.2539 49.0234 11.3281 49.0234H38.6718C39.746 49.0234 40.6249 48.1445 40.6249 47.0703V2.92968C40.6249 1.85547 39.746 0.976562 38.6718 0.976562Z" fill="#BC8461"/>
<path d="M21.8262 12.2969H14.2578C13.1809 12.2969 12.3047 11.4207 12.3047 10.3438V5.85938C12.3047 4.78242 13.1809 3.90625 14.2578 3.90625H21.8262C22.9031 3.90625 23.7793 4.78242 23.7793 5.85938V10.3438C23.7793 11.4208 22.9031 12.2969 21.8262 12.2969ZM21.8262 5.85938H14.2576L14.2578 10.3438H21.8262V5.85938Z" fill="black"/>
<path d="M21.8262 23.5626H14.2578C13.1809 23.5626 12.3047 22.6864 12.3047 21.6095V17.125C12.3047 16.048 13.1809 15.1719 14.2578 15.1719H21.8262C22.9031 15.1719 23.7793 16.048 23.7793 17.125V21.6095C23.7793 22.6864 22.9031 23.5626 21.8262 23.5626ZM21.8262 17.125H14.2576L14.2578 21.6095H21.8262V17.125Z" fill="black"/>
<path d="M21.8262 34.828H14.2578C13.1809 34.828 12.3047 33.9518 12.3047 32.8749V28.3904C12.3047 27.3134 13.1809 26.4373 14.2578 26.4373H21.8262C22.9031 26.4373 23.7793 27.3134 23.7793 28.3904V32.8749C23.7793 33.9518 22.9031 34.828 21.8262 34.828ZM21.8262 28.3905H14.2576L14.2578 32.8749H21.8262V28.3905Z" fill="black"/>
<path d="M21.8262 46.0936H14.2578C13.1809 46.0936 12.3047 45.2174 12.3047 44.1405V39.656C12.3047 38.5791 13.1809 37.7029 14.2578 37.7029H21.8262C22.9031 37.7029 23.7793 38.5791 23.7793 39.656V44.1405C23.7793 45.2174 22.9031 46.0936 21.8262 46.0936ZM21.8262 39.656H14.2576L14.2578 44.1405H21.8262V39.656Z" fill="black"/>
<path d="M38.6718 50H29.3942C28.8549 50 28.4176 49.5628 28.4176 49.0234C28.4176 48.4841 28.8549 48.0469 29.3942 48.0469H38.6718C39.2102 48.0469 39.6483 47.6088 39.6483 47.0703V2.92968C39.6483 2.3912 39.2102 1.95312 38.6718 1.95312H11.3281C10.7896 1.95312 10.3516 2.3912 10.3516 2.92968V47.0703C10.3516 47.6088 10.7896 48.0469 11.3281 48.0469H20.6051C21.1444 48.0469 21.5817 48.4841 21.5817 49.0234C21.5817 49.5628 21.1444 50 20.6051 50H11.3281C9.71269 50 8.39844 48.6857 8.39844 47.0703V2.92968C8.39844 1.31425 9.71269 0 11.3281 0H38.6718C40.2872 0 41.6014 1.31425 41.6014 2.92968V47.0703C41.6014 48.6857 40.2872 50 38.6718 50Z" fill="black"/>
<path d="M35.7422 12.2969H28.1738C27.0969 12.2969 26.2207 11.4207 26.2207 10.3438V5.85938C26.2207 4.78242 27.0969 3.90625 28.1738 3.90625H35.7422C36.8191 3.90625 37.6953 4.78242 37.6953 5.85938V10.3438C37.6953 11.4208 36.8191 12.2969 35.7422 12.2969ZM35.7422 5.85938H28.1736L28.1738 10.3438H35.7422V5.85938Z" fill="black"/>
<path d="M35.7422 23.5626H28.1738C27.0969 23.5626 26.2207 22.6864 26.2207 21.6095V17.125C26.2207 16.048 27.0969 15.1719 28.1738 15.1719H35.7422C36.8191 15.1719 37.6953 16.048 37.6953 17.125V21.6095C37.6953 22.6864 36.8191 23.5626 35.7422 23.5626ZM35.7422 17.125H28.1736L28.1738 21.6095H35.7422V17.125Z" fill="black"/>
<path d="M35.7422 34.828H28.1738C27.0969 34.828 26.2207 33.9518 26.2207 32.8749V28.3904C26.2207 27.3134 27.0969 26.4373 28.1738 26.4373H35.7422C36.8191 26.4373 37.6953 27.3134 37.6953 28.3904V32.8749C37.6953 33.9518 36.8191 34.828 35.7422 34.828ZM35.7422 28.3905H28.1736L28.1738 32.8749H35.7422V28.3905Z" fill="black"/>
<path d="M35.7422 46.0936H28.1738C27.0969 46.0936 26.2207 45.2174 26.2207 44.1405V39.656C26.2207 38.5791 27.0969 37.7029 28.1738 37.7029H35.7422C36.8191 37.7029 37.6953 38.5791 37.6953 39.656V44.1405C37.6953 45.2174 36.8191 46.0936 35.7422 46.0936ZM35.7422 39.656H28.1736L28.1738 44.1405H35.7422V39.656Z" fill="black"/>
<path d="M24.9998 50C24.4606 50 24.0229 49.5628 24.0229 49.0234C24.0229 48.4841 24.4599 48.0469 24.9991 48.0469H24.9998C25.5391 48.0469 25.9764 48.4841 25.9764 49.0234C25.9764 49.5628 25.5391 50 24.9998 50Z" fill="black"/>
</g>
<defs>
<clipPath id="clip0">
<rect width="50" height="50" fill="white"/>
</clipPath>
</defs>
</svg>
