<svg width="55" height="55" viewBox="0 0 55 55" fill="none" xmlns="http://www.w3.org/2000/svg">
<g clip-path="url(#clip0)">
<path d="M15.8653 44.4237H4.23071C5.98665 44.4237 5.38808 42.8077 5.38808 41.0528C5.3886 40.3148 5.13037 39.5995 4.65782 39.0324L5.38808 38.9374L38.6228 5.28906H44.2113L44.5392 5.58499C44.5392 5.58499 14.1094 44.4237 15.8653 44.4237V44.4237Z" fill="#F3A630"/>
<path d="M39.2617 5.28846L6.60753 39.9806L2.64429 38.6714L37.0193 0H38.1297C39.1853 0.0609413 40.1087 0.730262 40.495 1.7141C40.8813 2.69846 40.6598 3.81709 39.9279 4.57989L39.2617 5.28846Z" fill="#C06515"/>
<path d="M52.8847 3.17308L18.4834 42.9424L14.4907 38.4322L43.6935 5.58439L46.6971 2.20008L48.3999 0.285598C48.8125 0.0991587 49.2593 0.00154936 49.7117 0C51.464 0 52.8847 1.42076 52.8847 3.17308Z" fill="#C06515"/>
<path d="M15.8655 38.0764C17.6178 38.0764 19.0386 39.4971 19.0386 41.2495C19.0427 41.5883 18.9854 41.925 18.8692 42.2436C18.4033 43.6623 17.01 44.563 15.5252 44.4055C14.0404 44.2475 12.8675 43.0746 12.7095 41.5898C12.5519 40.105 13.4526 38.7116 14.8713 38.2458C15.19 38.1296 15.5267 38.0722 15.8655 38.0764Z" fill="#8A4325"/>
<path d="M4.23074 38.0764C5.98151 38.08 7.4002 39.4987 7.40382 41.2495C7.40847 42.8727 6.18758 44.2382 4.57366 44.4132C2.95975 44.5888 1.47341 43.5177 1.12945 41.9312C0.786009 40.3446 1.69496 38.7545 3.23657 38.2458C3.55522 38.1296 3.89195 38.0722 4.23074 38.0764Z" fill="#8A4325"/>
<path d="M53.9423 51.827C53.9423 53.5793 52.5215 55.0001 50.7692 55.0001H44.4231C43.1862 55.0042 42.0613 54.2843 41.5459 53.1595C41.3559 52.7577 9.3457 13.5915 9.3457 13.5915L13.876 13.3906L53.9423 51.827Z" fill="#F3A630"/>
<path d="M10.2913 13.5483L43.3653 47.5954C42.2018 47.5954 41.2499 51.8262 41.2499 51.8262C41.2489 52.2868 41.3501 52.7418 41.5459 53.1586L5.28841 15.8646L5.02398 15.6002C4.51579 15.0925 4.23071 14.4041 4.23071 13.6857V12.6916C4.23433 11.5249 5.17943 10.5798 6.3461 10.5762H7.40379L10.2913 13.5483Z" fill="#C06515"/>
<path d="M44.8569 51.2026C44.4649 51.6044 43.9268 51.8296 43.3654 51.8265H41.25V49.7111C41.2536 48.5444 42.1987 47.5993 43.3654 47.5957C44.2211 47.5931 44.9938 48.108 45.3207 48.8987C45.6481 49.6899 45.4642 50.5999 44.8569 51.2026Z" fill="#8A4325"/>
<path d="M15.8655 10.5762L53.3185 48.2193L52.6203 48.8178C52.3662 48.7125 49.9445 50.8212 50.3355 51.2023L13.3906 13.411L12.6924 12.6916C12.7012 11.527 13.6432 10.585 14.8078 10.5762H15.8655Z" fill="#C06515"/>
<path d="M51.8268 47.5957C52.1103 47.5967 52.3908 47.6541 52.6516 47.7651C52.9036 47.8674 53.1308 48.0228 53.3183 48.2196C53.7201 48.6116 53.9453 49.1497 53.9422 49.7111V51.8265H51.8268C50.6586 51.8265 49.7114 50.8793 49.7114 49.7111C49.7114 48.5429 50.6586 47.5957 51.8268 47.5957Z" fill="#8A4325"/>
</g>
<defs>
<clipPath id="clip0">
<rect width="55" height="55" fill="white"/>
</clipPath>
</defs>
</svg>
