<svg width="60" height="60" viewBox="0 0 60 60" fill="none" xmlns="http://www.w3.org/2000/svg">
<path d="M38.17 37.8512C36.8875 37.8512 35.86 37.5412 35.0688 36.9237C34.0963 36.1674 33.75 35.1087 33.75 34.3749H37.5C37.5 34.1624 37.4588 34.0262 37.3738 33.9674C37.38 33.9724 37.995 34.3487 40.1687 33.8062C43.935 32.8637 47.5 24.6262 47.5 21.8749C47.5 20.0437 47.1813 19.3462 46.915 19.0799C46.69 18.8574 46.3163 18.7412 45.64 18.7524C42.5288 18.7524 39.1975 20.9137 39.1637 20.9362L37.0837 17.8174C37.2562 17.7024 41.355 15.0024 45.6238 15.0024C45.6488 15.0024 45.6712 15.0024 45.695 15.0024C47.3038 15.0024 48.6063 15.4787 49.555 16.4174C51.0738 17.9224 51.25 20.2537 51.25 21.8749C51.25 25.6337 47.1975 35.9124 41.08 37.4412C39.9912 37.7149 39.0237 37.8512 38.17 37.8512Z" fill="#4494D6"/>
<path d="M41.25 28.7512C39.32 14.9125 41.25 11.2538 41.25 10.0038C41.25 10.0038 40 8.75 31.25 10C22.5875 11.2375 18.75 6.25 13.75 6.25C8.75 6.25 8.75 8.75375 8.75 8.75375C12.5 12.5025 14.6138 13.96 12.5 28.7512C10 46.2475 18.75 52.5 18.75 52.5C20.0975 53.945 21.25 53.75 21.25 53.75H32.5C32.5 53.75 33.4763 53.945 35 52.5C35 52.5 43.6975 46.2987 41.25 28.7512Z" fill="#4494D6"/>
<path d="M19.686 50.005H34.0672C35.716 48.4175 40.6372 42.455 38.7747 29.0963C38.346 26.025 38.111 23.45 37.9935 21.25H15.7835C15.681 23.42 15.4197 25.9875 14.9747 29.105C13.0747 42.4 18.0047 48.3888 19.686 50.005Z" fill="#FAFAFA"/>
</svg>
