<svg width="24" height="24" viewBox="0 0 24 24" fill="none" xmlns="http://www.w3.org/2000/svg">
<g clip-path="url(#clip0)">
<rect width="24" height="24" fill="white"/>
<path d="M20.7662 0H3.23454C1.44846 0 0.000488281 1.44791 0.000488281 3.23405V20.7658C0.000488281 22.552 1.4484 23.9999 3.23454 23.9999H11.8811L11.8958 15.4236H9.6677C9.37814 15.4236 9.14312 15.1895 9.14201 14.8999L9.13132 12.1354C9.13021 11.8443 9.36593 11.6077 9.65707 11.6077H11.8811V8.93651C11.8811 5.83661 13.7744 4.14869 16.5397 4.14869H18.8088C19.0991 4.14869 19.3346 4.38406 19.3346 4.67444V7.00547C19.3346 7.29573 19.0993 7.53104 18.8091 7.53122L17.4166 7.53187C15.9127 7.53187 15.6215 8.24649 15.6215 9.29522V11.6078H18.926C19.2409 11.6078 19.4851 11.8827 19.448 12.1954L19.1204 14.9599C19.089 15.2244 18.8647 15.4237 18.5983 15.4237H15.6362L15.6215 24H20.7663C22.5524 24 24.0003 22.5521 24.0003 20.766V3.23405C24.0003 1.44791 22.5523 0 20.7662 0Z" fill="#5E1224"/>
</g>
<defs>
<clipPath id="clip0">
<rect width="24" height="24" fill="white"/>
</clipPath>
</defs>
</svg>
