<svg width="64" height="60" viewBox="0 0 64 60" fill="none" xmlns="http://www.w3.org/2000/svg">
<path d="M31.5459 17.825C31.5459 15.3758 31.4024 13.3491 32.7474 11.2568C33.6357 9.87512 34.573 8.71039 35.7111 7.57227" stroke="#5D4037" stroke-width="1.7" stroke-linecap="round" stroke-linejoin="round"/>
<path d="M31.8517 17.5439C31.8517 17.5439 30.1928 1.87514 13.2715 7.50014C15.0963 23.8026 31.8517 17.5439 31.8517 17.5439Z" fill="#4CAF50"/>
<path d="M8.34137 32.4174C5.86621 19.8324 15.7655 7.24611 31.852 17.5436C47.9385 7.24611 57.8378 19.8324 55.3627 32.4161C52.8888 45.0024 39.2762 56.8174 31.852 48.4349C24.4279 56.8174 10.8152 45.0024 8.34137 32.4174Z" fill="#CDF2C0"/>
<path d="M42.9761 16.25C40.0696 16.25 36.8287 17.3813 33.3435 19.6112L31.8518 20.5662V44.5325L33.8903 46.8337C35.0317 48.1237 36.3283 48.7512 37.8519 48.7512C43.1061 48.7512 50.9244 41.2625 52.7519 31.9612C53.6862 27.2137 52.6073 22.3863 49.937 19.3613C48.1387 17.3263 45.7312 16.25 42.9761 16.25Z" fill="#FFF3E0"/>
<path d="M41.8055 32.7597C41.8055 34.1397 40.6176 35.2597 39.1511 35.2597C37.686 35.2597 36.4968 34.1397 36.4968 32.7597C36.4968 31.3784 39.1511 28.4922 39.1511 28.4922C39.1511 28.4922 41.8055 31.3797 41.8055 32.7597Z" fill="#5D4037"/>
<path d="M31.852 17.5436C15.7655 7.24609 5.86622 19.8323 8.34137 32.4173C10.8152 45.0023 24.4279 56.8173 31.852 48.4348V17.5436Z" fill="#CDF2C0"/>
</svg>
