<svg width="60" height="60" viewBox="0 0 60 60" fill="none" xmlns="http://www.w3.org/2000/svg">
<path d="M17.5 43.75C17.5 43.75 14.625 26.25 33.75 26.25C46.25 26.25 55 36.25 55 36.25C55 36.25 45.625 51.25 31.25 51.25C20 51.25 17.5 43.75 17.5 43.75ZM22.5 22.5C22.5 14.875 15 7.5 15 7.5C15 7.5 5.875 12.875 5 23.75C4.125 34.625 12.25 37.125 12.25 37.125C12.25 37.125 22.5 33.5 22.5 22.5Z" fill="#8BC34A"/>
<path d="M55.0001 36.25C55.0001 36.25 45.6251 51.25 31.2501 51.25C23.7501 51.25 20.1251 47.875 18.5001 45.625C14.8751 48.75 13.6251 51.625 13.6251 51.75C13.5001 52.25 13.0001 52.5 12.5001 52.5C12.3751 52.5 12.1251 52.5 12.0001 52.375C11.3751 52.125 11.1251 51.375 11.3751 50.75C11.5001 50.375 14.6251 43.5 24.1251 39C37.8751 31.75 55.0001 36.25 55.0001 36.25ZM13.7501 43.75C13.8751 43.75 14.0001 43.75 14.1251 43.625C14.7501 43.375 15.1251 42.625 14.8751 42C14.2501 40.125 13.7501 38.375 13.5001 36.5C16.2501 35.25 22.5001 31.125 22.5001 22.5C22.5001 14.875 15.0001 7.5 15.0001 7.5C15.0001 7.5 14.5001 8.875 13.7501 11.25C13.5001 11.875 7.25009 28.25 12.6251 42.875C12.7501 43.375 13.2501 43.75 13.7501 43.75Z" fill="#689F38"/>
</svg>
