<svg width="60" height="60" viewBox="0 0 60 60" fill="none" xmlns="http://www.w3.org/2000/svg">
<path d="M45.625 44.375C56.5 33.5 56.5 15.875 45.625 5L6.375 44.375C17.25 55.25 34.75 55.25 45.625 44.375Z" fill="#FFECB3"/>
<path d="M35 33.75C40.875 27.875 41.875 18.875 36.75 14.125L15.25 35.5C20.125 40.625 29 39.625 35 33.75Z" fill="#FFB300"/>
<path d="M43.875 42.625C34 52.5 18 52.5 8.125 42.625L6.375 44.375C17.25 55.25 34.875 55.25 45.75 44.375C56.625 33.5 56.625 15.875 45.75 5L44 6.75C53.75 16.75 53.75 32.75 43.875 42.625Z" fill="#4CAF50"/>
<path d="M32.25 29.25C32.75 29.75 34 32.875 34 32.875C34 32.875 30.875 31.625 30.375 31.125C29.875 30.625 29.875 29.875 30.375 29.375C31 28.75 31.75 28.75 32.25 29.25ZM20.625 35.5C20.125 36 20.125 36.75 20.625 37.25C21.125 37.75 23.25 38.125 23.25 38.125C23.25 38.125 22.875 35.875 22.375 35.5C21.875 35.125 21.125 35 20.625 35.5ZM36.75 19.375C36.25 19.875 36.25 20.625 36.75 21.125C37.25 21.625 39.375 22 39.375 22C39.375 22 39 19.75 38.5 19.375C38 18.875 37.25 18.875 36.75 19.375ZM33.125 26.5C32.625 27 32.625 27.75 33.125 28.25C33.625 28.75 36.75 30 36.75 30C36.75 30 35.5 26.875 35 26.375C34.5 26 33.625 26 33.125 26.5ZM27.75 31.875C27.25 32.375 27.25 33.125 27.75 33.625C28.25 34.125 31.375 35.375 31.375 35.375C31.375 35.375 30.125 32.25 29.625 31.75C29.125 31.375 28.25 31.375 27.75 31.875ZM24.25 33.75C23.75 34.25 23.75 35 24.25 35.5C24.75 36 27.875 37.25 27.875 37.25C27.875 37.25 26.625 34.125 26.125 33.625C25.5 33.25 24.75 33.25 24.25 33.75ZM35 23C34.5 23.5 34.5 24.25 35 24.75C35.5 25.25 38.625 26.5 38.625 26.5C38.625 26.5 37.375 23.375 36.875 22.875C36.25 22.5 35.375 22.5 35 23ZM26 24.75C25.5 25.25 25.5 26 26 26.5C26.5 27 29.625 28.25 29.625 28.25C29.625 28.25 28.375 25.125 27.875 24.625C27.25 24.25 26.5 24.25 26 24.75ZM23.375 27.375C22.875 27.875 22.875 28.625 23.375 29.125C23.875 29.625 27 30.875 27 30.875C27 30.875 25.75 27.75 25.25 27.25C24.625 27 23.75 27 23.375 27.375ZM28.625 22.125C28.125 22.625 28.125 23.375 28.625 23.875C29.125 24.375 32.25 25.625 32.25 25.625C32.25 25.625 31 22.5 30.5 22C30 21.625 29.125 21.625 28.625 22.125ZM31.375 19.375C30.875 19.875 30.875 20.625 31.375 21.125C31.875 21.625 34 22 34 22C34 22 33.625 19.75 33.125 19.375C32.625 18.875 31.875 18.875 31.375 19.375ZM33.125 17.625C33.625 18.125 35.75 18.5 35.75 18.5C35.75 18.5 35.375 16.25 35 15.75L33.125 17.625ZM20.625 30.125C20.125 30.625 20.125 31.375 20.625 31.875C21.125 32.375 23.25 32.75 23.25 32.75C23.25 32.75 22.875 30.5 22.375 30.125C21.875 29.625 21.125 29.625 20.625 30.125ZM17 33.75C17.5 34.25 19.625 34.625 19.625 34.625C19.625 34.625 19.25 32.375 18.75 32L17 33.75Z" fill="#F57F17"/>
</svg>
