<svg width="60" height="60" viewBox="0 0 60 60" fill="none" xmlns="http://www.w3.org/2000/svg">
<path d="M55 30C55 31.25 53.6013 33.75 51.875 33.75C50.1487 33.75 48.75 32.07 48.75 30C48.75 27.93 50.1487 26.25 51.875 26.25C53.6013 26.25 55 28.75 55 30Z" fill="#FFD600"/>
<path d="M52.5 30C52.5 53.75 24.2913 53.75 21.875 53.75C19.4587 53.75 7.5 48.75 7.5 30C7.5 10 19.4587 6.25 21.875 6.25C24.2913 6.25 52.5 6.25 52.5 30Z" fill="#FFD600"/>
<path d="M22.5 9.73516C29.275 9.73516 37.5497 19.8362 37.5497 30C37.5497 40.1637 29.275 51.0597 22.5 51.0597C15.725 51.0597 7.351 40.1637 7.351 30C7.351 19.8362 15.725 9.73516 22.5 9.73516ZM22.5 6.25C12.835 6.25 5 16.8837 5 30C5 43.1162 12.835 53.75 22.5 53.75C32.165 53.75 40 43.1162 40 30C40 16.8837 32.165 6.25 22.5 6.25Z" fill="#FFF59D"/>
<path d="M23.75 9.48828H21.25V51.9883H23.75V9.48828Z" fill="#FFF59D"/>
<path d="M37.5 28.748H7.5V31.248H37.5V28.748Z" fill="#FFF59D"/>
<path d="M33.7748 14.3047L22.4153 29.8014L12.3179 14.3047" stroke="#FFF59D" stroke-width="2"/>
<path d="M12.3179 45.6948L22.4503 29.8008L32.5828 45.6948" stroke="#FFF59D" stroke-width="2"/>
<path d="M42.5 37.5C43.1904 37.5 43.75 36.9404 43.75 36.25C43.75 35.5596 43.1904 35 42.5 35C41.8096 35 41.25 35.5596 41.25 36.25C41.25 36.9404 41.8096 37.5 42.5 37.5Z" fill="#FFA000"/>
<path d="M43.75 42.5C44.4404 42.5 45 41.9404 45 41.25C45 40.5596 44.4404 40 43.75 40C43.0596 40 42.5 40.5596 42.5 41.25C42.5 41.9404 43.0596 42.5 43.75 42.5Z" fill="#FFA000"/>
<path d="M47.5 38.75C48.1904 38.75 48.75 38.1904 48.75 37.5C48.75 36.8096 48.1904 36.25 47.5 36.25C46.8096 36.25 46.25 36.8096 46.25 37.5C46.25 38.1904 46.8096 38.75 47.5 38.75Z" fill="#FFA000"/>
</svg>
