<svg width="34" height="42" viewBox="0 0 34 42" fill="none" xmlns="http://www.w3.org/2000/svg">
<path d="M17.0002 21.0001C14.7085 21.0001 12.8335 19.1251 12.8335 16.8334C12.8335 14.5417 14.7085 12.6667 17.0002 12.6667C19.2918 12.6667 21.1668 14.5417 21.1668 16.8334C21.1668 19.1251 19.2918 21.0001 17.0002 21.0001ZM29.5002 17.2501C29.5002 9.68758 23.9793 4.33342 17.0002 4.33342C10.021 4.33342 4.50016 9.68758 4.50016 17.2501C4.50016 22.1251 8.56266 28.5834 17.0002 36.2918C25.4377 28.5834 29.5002 22.1251 29.5002 17.2501ZM17.0002 0.166748C25.7502 0.166748 33.6668 6.87508 33.6668 17.2501C33.6668 24.1667 28.1043 32.3543 17.0002 41.8334C5.896 32.3543 0.333496 24.1667 0.333496 17.2501C0.333496 6.87508 8.25016 0.166748 17.0002 0.166748Z" fill="#fafafa"/>
</svg>
