<svg width="342" height="84" viewBox="0 0 342 84" fill="none" xmlns="http://www.w3.org/2000/svg">
<path d="M27.9785 52.123C27.7995 52.4486 27.5309 52.6113 27.1729 52.6113C26.8799 52.6113 26.652 52.5137 26.4893 52.3184C26.3265 52.1393 26.2451 51.9196 26.2451 51.6592C26.2451 51.6266 26.2533 51.293 26.2695 50.6582C26.2858 50.0072 26.2939 49.1364 26.2939 48.0459C26.2939 46.6624 26.2939 45.1895 26.2939 43.627C26.3102 42.0645 26.2939 40.4775 26.2451 38.8662C26.1963 37.2549 26.0905 35.6517 25.9277 34.0566C25.765 32.4616 25.5127 30.9398 25.1709 29.4912C24.8291 28.0264 24.3815 26.6673 23.8281 25.4141C23.2747 24.1608 22.5667 23.0785 21.7041 22.167C20.8415 21.2393 19.8161 20.515 18.6279 19.9941C17.4398 19.4733 16.04 19.2129 14.4287 19.2129C12.8499 19.2129 11.4095 19.4896 10.1074 20.043C8.80534 20.5801 7.68229 21.3125 6.73828 22.2402C5.81055 23.1517 5.08626 24.2259 4.56543 25.4629C4.06087 26.6836 3.80859 27.9775 3.80859 29.3447C3.80859 30.5329 4.01204 31.6315 4.41895 32.6406C4.84212 33.6335 5.41178 34.4961 6.12793 35.2285C6.84408 35.9609 7.67415 36.5387 8.61816 36.9619C9.57845 37.3688 10.5957 37.5723 11.6699 37.5723C12.4674 37.5723 13.1999 37.4665 13.8672 37.2549C14.5345 37.027 15.1042 36.7829 15.5762 36.5225C16.0482 36.262 16.4144 36.026 16.6748 35.8145C16.9352 35.5866 17.0736 35.4727 17.0898 35.4727C17.2689 35.2936 17.4886 35.2041 17.749 35.2041C17.9932 35.2041 18.2048 35.2936 18.3838 35.4727C18.5628 35.6354 18.6523 35.8389 18.6523 36.083C18.6523 36.3271 18.5628 36.5387 18.3838 36.7178C18.3512 36.7503 18.1641 36.9131 17.8223 37.2061C17.4967 37.4827 17.041 37.7839 16.4551 38.1094C15.8691 38.4349 15.1693 38.7279 14.3555 38.9883C13.5579 39.2487 12.6709 39.3789 11.6943 39.3789C10.3434 39.3789 9.07389 39.1266 7.88574 38.6221C6.71387 38.1175 5.68848 37.4176 4.80957 36.5225C3.93066 35.6273 3.23079 34.5693 2.70996 33.3486C2.2054 32.1117 1.95312 30.777 1.95312 29.3447C1.95312 27.7171 2.26237 26.179 2.88086 24.7305C3.51562 23.2819 4.38639 22.0205 5.49316 20.9463C6.59993 19.8558 7.90202 19.0013 9.39941 18.3828C10.9131 17.748 12.557 17.4307 14.3311 17.4307C16.626 17.4307 18.5628 17.8457 20.1416 18.6758C21.7204 19.4896 23.0225 20.5882 24.0479 21.9717C25.0895 23.3389 25.887 24.9258 26.4404 26.7324C27.0101 28.5228 27.4251 30.3945 27.6855 32.3477C27.946 34.3008 28.1006 36.2702 28.1494 38.2559C28.1982 40.2253 28.2227 42.0807 28.2227 43.8223C28.2227 44.1478 28.2227 44.4977 28.2227 44.8721C28.2227 45.2464 28.2145 45.6208 28.1982 45.9951C28.1982 46.3695 28.1901 46.7275 28.1738 47.0693C28.1738 47.3949 28.1738 47.6634 28.1738 47.875L44.5312 17.6016C44.6777 17.2923 44.9382 17.1377 45.3125 17.1377C45.5892 17.1377 45.8089 17.2354 45.9717 17.4307C46.1507 17.6097 46.2402 17.8213 46.2402 18.0654C46.2402 18.1468 46.1914 18.4479 46.0938 18.9688C45.9961 19.4733 45.874 20.1488 45.7275 20.9951C45.5973 21.8415 45.4508 22.8262 45.2881 23.9492C45.1253 25.056 44.9707 26.2523 44.8242 27.5381C44.694 28.8239 44.5801 30.1667 44.4824 31.5664C44.3848 32.9499 44.3359 34.3333 44.3359 35.7168C44.3359 38.0443 44.458 40.1113 44.7021 41.918C44.9463 43.7083 45.3451 45.222 45.8984 46.459C46.4518 47.696 47.1761 48.6318 48.0713 49.2666C48.9827 49.9014 50.0977 50.2188 51.416 50.2188C52.6042 50.2188 53.7354 49.9665 54.8096 49.4619C55.8838 48.9411 56.8848 48.2331 57.8125 47.3379C58.7402 46.4427 59.6029 45.3929 60.4004 44.1885C61.1979 42.984 61.9141 41.6901 62.5488 40.3066C63.1999 38.9069 63.7695 37.4583 64.2578 35.9609C64.7624 34.4635 65.1774 32.9743 65.5029 31.4932C65.8447 30.012 66.097 28.5716 66.2598 27.1719C66.4388 25.7721 66.5283 24.4863 66.5283 23.3145C66.5283 21.1986 66.2842 19.2536 65.7959 17.4795C65.3239 15.6891 64.5589 14.2324 63.501 13.1094C63.3382 12.9466 63.2568 12.7432 63.2568 12.499C63.2568 12.2386 63.3464 12.0189 63.5254 11.8398C63.7207 11.6608 63.9404 11.5713 64.1846 11.5713C64.4613 11.5713 64.681 11.6608 64.8438 11.8398C65.4622 12.5072 65.9912 13.264 66.4307 14.1104C66.8864 14.9404 67.2526 15.8519 67.5293 16.8447C67.8223 17.8213 68.0339 18.8548 68.1641 19.9453C68.3105 21.0358 68.3838 22.167 68.3838 23.3389C68.3838 25.1292 68.2129 27.0824 67.8711 29.1982C67.5293 31.2979 67.0247 33.4137 66.3574 35.5459C65.6901 37.6618 64.8682 39.7126 63.8916 41.6982C62.9313 43.6839 61.8164 45.4417 60.5469 46.9717C59.2936 48.4854 57.902 49.7061 56.3721 50.6338C54.8421 51.5452 53.1901 52.001 51.416 52.001C49.7396 52.001 48.3317 51.6266 47.1924 50.8779C46.0531 50.113 45.1335 49.0225 44.4336 47.6064C43.75 46.1742 43.2536 44.4408 42.9443 42.4062C42.6514 40.3717 42.5049 38.0768 42.5049 35.5215C42.5049 34.4635 42.5374 33.373 42.6025 32.25C42.6839 31.127 42.7734 30.0283 42.8711 28.9541C42.985 27.8799 43.099 26.8464 43.2129 25.8535C43.3431 24.8607 43.4652 23.9655 43.5791 23.168L27.9785 52.123ZM74.5361 31.835C74.5361 32.4535 74.3164 32.9824 73.877 33.4219C73.4538 33.8451 72.9329 34.0566 72.3145 34.0566C71.696 34.0566 71.167 33.8451 70.7275 33.4219C70.3044 32.9824 70.0928 32.4535 70.0928 31.835C70.0928 31.5257 70.1497 31.2409 70.2637 30.9805C70.3776 30.7038 70.5322 30.4678 70.7275 30.2725C70.9391 30.0609 71.1751 29.8981 71.4355 29.7842C71.7122 29.6702 72.0052 29.6133 72.3145 29.6133C72.6237 29.6133 72.9085 29.6702 73.1689 29.7842C73.4456 29.8981 73.6816 30.0609 73.877 30.2725C74.0885 30.4678 74.2513 30.7038 74.3652 30.9805C74.4792 31.2409 74.5361 31.5257 74.5361 31.835ZM70.5811 46.1416C70.5811 43.7979 70.7275 41.4622 71.0205 39.1348C71.0531 38.9069 71.1507 38.7116 71.3135 38.5488C71.4925 38.3698 71.7204 38.2803 71.9971 38.2803C72.2412 38.2803 72.4447 38.3779 72.6074 38.5732C72.7702 38.7523 72.8516 38.9639 72.8516 39.208C72.8516 39.3057 72.8271 39.5986 72.7783 40.0869C72.7458 40.5752 72.6969 41.1611 72.6318 41.8447C72.583 42.512 72.5342 43.2282 72.4854 43.9932C72.4528 44.7419 72.4365 45.4336 72.4365 46.0684C72.4365 46.931 72.5179 47.6309 72.6807 48.168C72.8597 48.6888 73.0794 49.0957 73.3398 49.3887C73.6165 49.6816 73.9014 49.877 74.1943 49.9746C74.5036 50.0723 74.7965 50.1211 75.0732 50.1211C75.529 50.1211 76.001 49.9583 76.4893 49.6328C76.9775 49.3073 77.474 48.8516 77.9785 48.2656C78.4993 47.6797 79.0202 46.9798 79.541 46.166C80.0618 45.3359 80.5745 44.4163 81.0791 43.4072C81.1605 43.2445 81.2744 43.1224 81.4209 43.041C81.5674 42.9434 81.7301 42.8945 81.9092 42.8945C82.1696 42.8945 82.3812 42.9922 82.5439 43.1875C82.723 43.3828 82.8125 43.5944 82.8125 43.8223C82.8125 43.985 82.7799 44.1234 82.7148 44.2373C82.5195 44.6117 82.2754 45.0674 81.9824 45.6045C81.6895 46.1416 81.3558 46.695 80.9814 47.2646C80.6071 47.8343 80.1921 48.404 79.7363 48.9736C79.2969 49.527 78.8249 50.0316 78.3203 50.4873C77.8158 50.9268 77.2868 51.2848 76.7334 51.5615C76.18 51.8382 75.6185 51.9766 75.0488 51.9766C74.3164 51.9766 73.6735 51.8219 73.1201 51.5127C72.5667 51.2035 72.0947 50.7884 71.7041 50.2676C71.3298 49.7467 71.0449 49.1364 70.8496 48.4365C70.6706 47.7204 70.5811 46.9554 70.5811 46.1416ZM73.1689 31.835C73.1689 31.6071 73.0794 31.4118 72.9004 31.249C72.7376 31.07 72.5423 30.9805 72.3145 30.9805C72.0866 30.9805 71.8913 31.07 71.7285 31.249C71.5658 31.4118 71.4844 31.6071 71.4844 31.835C71.4844 32.0628 71.5658 32.2581 71.7285 32.4209C71.8913 32.5837 72.0866 32.665 72.3145 32.665C72.5423 32.665 72.7376 32.5837 72.9004 32.4209C73.0794 32.2581 73.1689 32.0628 73.1689 31.835ZM86.4746 48.8027C86.735 48.2656 87.0361 47.6797 87.3779 47.0449C87.7197 46.3939 88.0859 45.7428 88.4766 45.0918C88.8672 44.4245 89.2741 43.7653 89.6973 43.1143C90.1367 42.4632 90.5924 41.8447 91.0645 41.2588C91.5365 40.6891 92.0085 40.2822 92.4805 40.0381C92.9688 39.7777 93.4245 39.6475 93.8477 39.6475C94.694 39.6475 95.3206 39.9567 95.7275 40.5752C96.1344 41.1937 96.3379 41.9587 96.3379 42.8701C96.3379 43.0817 96.3216 43.3421 96.2891 43.6514C96.2728 43.9443 96.2484 44.2617 96.2158 44.6035C96.1995 44.9453 96.1751 45.2952 96.1426 45.6533C96.1263 45.9951 96.1182 46.3206 96.1182 46.6299C96.1182 47.0205 96.1344 47.3949 96.167 47.7529C96.2158 48.111 96.2972 48.4284 96.4111 48.7051C96.5251 48.9655 96.6878 49.1771 96.8994 49.3398C97.111 49.4863 97.3877 49.5596 97.7295 49.5596C98.348 49.5596 98.9502 49.3236 99.5361 48.8516C100.122 48.3633 100.659 47.7936 101.147 47.1426C101.652 46.4753 102.083 45.7998 102.441 45.1162C102.816 44.4326 103.092 43.8792 103.271 43.4561C103.353 43.277 103.467 43.1387 103.613 43.041C103.776 42.9434 103.947 42.8945 104.126 42.8945C104.403 42.8945 104.622 43.0003 104.785 43.2119C104.964 43.4072 105.054 43.6188 105.054 43.8467C105.054 43.9606 105.029 44.0745 104.98 44.1885C104.915 44.3187 104.785 44.5872 104.59 44.9941C104.395 45.401 104.134 45.873 103.809 46.4102C103.499 46.931 103.133 47.4925 102.71 48.0947C102.287 48.6807 101.815 49.2178 101.294 49.7061C100.789 50.1943 100.236 50.6012 99.6338 50.9268C99.0479 51.2523 98.4294 51.415 97.7783 51.415C97.0459 51.415 96.4518 51.2767 95.9961 51C95.5404 50.707 95.1823 50.3327 94.9219 49.877C94.6615 49.4049 94.4824 48.8923 94.3848 48.3389C94.3034 47.7692 94.2627 47.1995 94.2627 46.6299C94.2627 46.3857 94.2708 46.109 94.2871 45.7998C94.3197 45.4906 94.3522 45.165 94.3848 44.8232C94.4336 44.4814 94.4661 44.1396 94.4824 43.7979C94.515 43.4561 94.5312 43.1305 94.5312 42.8213C94.5312 42.3005 94.4499 41.9505 94.2871 41.7715C94.1243 41.5762 93.9779 41.4785 93.8477 41.4785C93.5872 41.4785 93.2861 41.6331 92.9443 41.9424C92.6188 42.2354 92.2689 42.626 91.8945 43.1143C91.5365 43.6025 91.1621 44.1559 90.7715 44.7744C90.3971 45.3766 90.0391 45.9788 89.6973 46.5811C89.3717 47.1833 89.0625 47.7611 88.7695 48.3145C88.4928 48.8516 88.2731 49.2992 88.1104 49.6572C87.7848 50.3408 87.4593 50.7965 87.1338 51.0244C86.8083 51.2686 86.4746 51.3906 86.1328 51.3906C85.6608 51.3906 85.2783 51.2523 84.9854 50.9756C84.7087 50.6826 84.5703 50.2757 84.5703 49.7549C84.5703 49.641 84.5866 49.4212 84.6191 49.0957C84.6517 48.7539 84.6924 48.3551 84.7412 47.8994C84.79 47.4274 84.8389 46.9229 84.8877 46.3857C84.9365 45.8486 84.9854 45.3197 85.0342 44.7988C85.083 44.2617 85.1237 43.7653 85.1562 43.3096C85.1888 42.8538 85.2051 42.4714 85.2051 42.1621C85.2051 41.7552 85.1888 41.3646 85.1562 40.9902C85.1237 40.6159 85.0586 40.388 84.9609 40.3066C84.8145 40.3555 84.554 40.6647 84.1797 41.2344C83.8053 41.7878 83.3252 42.7725 82.7393 44.1885C82.6579 44.3675 82.5358 44.5059 82.373 44.6035C82.2103 44.7012 82.0394 44.75 81.8604 44.75C81.5837 44.75 81.3639 44.6605 81.2012 44.4814C81.0384 44.2861 80.957 44.0664 80.957 43.8223C80.957 43.7083 80.9814 43.5863 81.0303 43.4561C81.7627 41.7145 82.4463 40.4368 83.0811 39.623C83.7321 38.793 84.375 38.3779 85.0098 38.3779C85.3841 38.3779 85.7015 38.4756 85.9619 38.6709C86.2223 38.8499 86.4258 39.0941 86.5723 39.4033C86.735 39.7126 86.849 40.0544 86.9141 40.4287C86.9954 40.8031 87.0361 41.1855 87.0361 41.5762C87.0361 41.8691 87.0117 42.3249 86.9629 42.9434C86.9303 43.5618 86.8815 44.2292 86.8164 44.9453C86.7513 45.6452 86.6862 46.3451 86.6211 47.0449C86.5723 47.7448 86.5234 48.3307 86.4746 48.8027ZM106.25 48.3145C106.592 48.7865 107.031 49.1689 107.568 49.4619C108.105 49.7386 108.765 49.877 109.546 49.877C110.343 49.877 111.068 49.6898 111.719 49.3154C112.37 48.9248 112.964 48.4202 113.501 47.8018C114.038 47.1833 114.518 46.4915 114.941 45.7266C115.365 44.9616 115.747 44.1966 116.089 43.4316C116.17 43.2526 116.284 43.1224 116.431 43.041C116.577 42.9434 116.74 42.8945 116.919 42.8945C117.196 42.8945 117.415 42.9922 117.578 43.1875C117.757 43.3828 117.847 43.5944 117.847 43.8223C117.847 43.9036 117.839 43.9769 117.822 44.042C117.806 44.0908 117.782 44.1478 117.749 44.2129C116.626 46.6868 115.397 48.5505 114.062 49.8037C112.744 51.057 111.247 51.6999 109.57 51.7324C108.496 51.7324 107.568 51.5208 106.787 51.0977C106.006 50.6908 105.363 50.1618 104.858 49.5107C104.354 48.8434 103.979 48.0947 103.735 47.2646C103.491 46.4346 103.369 45.6045 103.369 44.7744C103.369 43.9443 103.467 43.1794 103.662 42.4795C103.874 41.7796 104.167 41.1693 104.541 40.6484C104.932 40.1276 105.387 39.7207 105.908 39.4277C106.445 39.1348 107.031 38.9883 107.666 38.9883C108.04 38.9883 108.407 39.0697 108.765 39.2324C109.139 39.3789 109.473 39.5986 109.766 39.8916C110.059 40.1683 110.295 40.5101 110.474 40.917C110.653 41.3239 110.742 41.7878 110.742 42.3086C110.742 42.9759 110.628 43.6025 110.4 44.1885C110.173 44.7744 109.855 45.3197 109.448 45.8242C109.058 46.3288 108.586 46.7926 108.032 47.2158C107.479 47.639 106.885 48.0052 106.25 48.3145ZM105.518 46.7275C106.022 46.516 106.478 46.2474 106.885 45.9219C107.308 45.5964 107.666 45.2383 107.959 44.8477C108.252 44.457 108.48 44.0501 108.643 43.627C108.805 43.1875 108.887 42.748 108.887 42.3086C108.887 41.8203 108.765 41.4541 108.521 41.21C108.276 40.9495 107.992 40.8193 107.666 40.8193C107.227 40.8193 106.852 40.9414 106.543 41.1855C106.234 41.4297 105.981 41.7471 105.786 42.1377C105.591 42.5283 105.444 42.9678 105.347 43.4561C105.265 43.9281 105.225 44.4001 105.225 44.8721C105.225 45.165 105.249 45.4743 105.298 45.7998C105.363 46.1253 105.436 46.4346 105.518 46.7275ZM118.823 41.9668C118.726 42.2272 118.604 42.5202 118.457 42.8457C118.327 43.1712 118.172 43.513 117.993 43.8711C117.847 44.1478 117.692 44.3675 117.529 44.5303C117.383 44.6768 117.188 44.75 116.943 44.75C116.667 44.75 116.447 44.6686 116.284 44.5059C116.121 44.3268 116.04 44.1234 116.04 43.8955C116.04 43.8141 116.048 43.749 116.064 43.7002C116.081 43.6351 116.121 43.5374 116.187 43.4072C116.61 42.5934 116.919 41.8854 117.114 41.2832C117.326 40.6647 117.497 40.0218 117.627 39.3545C117.513 38.9801 117.432 38.6628 117.383 38.4023C117.334 38.1419 117.31 37.8734 117.31 37.5967C117.31 37.0596 117.424 36.6283 117.651 36.3027C117.879 35.9609 118.197 35.79 118.604 35.79C118.978 35.79 119.271 35.9528 119.482 36.2783C119.71 36.6038 119.824 37.0026 119.824 37.4746C119.824 37.735 119.8 37.9954 119.751 38.2559C119.702 38.5163 119.637 38.8418 119.556 39.2324C119.93 40.1602 120.304 40.9821 120.679 41.6982C121.053 42.4144 121.387 43.0736 121.68 43.6758C121.973 44.2617 122.209 44.8151 122.388 45.3359C122.583 45.8568 122.681 46.3776 122.681 46.8984C122.681 47.582 122.542 48.2331 122.266 48.8516C121.989 49.4701 121.533 49.9909 120.898 50.4141C120.98 50.4303 121.061 50.4385 121.143 50.4385C121.224 50.4385 121.305 50.4385 121.387 50.4385C122.314 50.4385 123.169 50.2269 123.95 49.8037C124.731 49.3805 125.431 48.8353 126.05 48.168C126.685 47.4844 127.246 46.7357 127.734 45.9219C128.223 45.0918 128.646 44.2699 129.004 43.4561C129.167 43.0817 129.395 42.8945 129.688 42.8945C129.964 42.8945 130.176 42.9922 130.322 43.1875C130.485 43.3828 130.566 43.5944 130.566 43.8223C130.566 43.9525 130.542 44.0745 130.493 44.1885C130.314 44.6279 130.078 45.1325 129.785 45.7021C129.508 46.2555 129.167 46.8333 128.76 47.4355C128.369 48.0215 127.913 48.5993 127.393 49.1689C126.872 49.7386 126.286 50.2513 125.635 50.707C125 51.1465 124.3 51.4964 123.535 51.7568C122.77 52.0335 121.932 52.1719 121.021 52.1719C119.93 52.1719 118.913 51.9766 117.969 51.5859C117.041 51.2116 116.284 50.585 115.698 49.7061C115.601 49.5596 115.552 49.4049 115.552 49.2422C115.552 48.998 115.641 48.7865 115.82 48.6074C116.016 48.4121 116.235 48.3145 116.479 48.3145C116.74 48.3145 116.96 48.404 117.139 48.583C117.155 48.6156 117.212 48.6725 117.31 48.7539C117.407 48.819 117.521 48.9004 117.651 48.998C117.798 49.0794 117.961 49.1527 118.14 49.2178C118.335 49.2829 118.53 49.3154 118.726 49.3154C119.116 49.3154 119.442 49.234 119.702 49.0713C119.979 48.9085 120.199 48.7132 120.361 48.4854C120.524 48.2412 120.638 47.9889 120.703 47.7285C120.785 47.4518 120.825 47.2158 120.825 47.0205C120.825 46.6136 120.76 46.2067 120.63 45.7998C120.5 45.3929 120.329 44.986 120.117 44.5791C119.922 44.1722 119.702 43.7572 119.458 43.334C119.23 42.8945 119.019 42.4388 118.823 41.9668ZM151.05 48.3145C150.643 48.3145 150.285 48.2819 149.976 48.2168C149.731 48.7051 149.438 49.1608 149.097 49.584C148.755 49.9909 148.356 50.349 147.9 50.6582C147.461 50.9674 146.965 51.2116 146.411 51.3906C145.858 51.5697 145.256 51.6592 144.604 51.6592C143.84 51.6592 143.14 51.5208 142.505 51.2441C141.87 50.9837 141.317 50.6175 140.845 50.1455C140.373 49.6572 140.007 49.0794 139.746 48.4121C139.486 47.7285 139.355 46.9798 139.355 46.166C139.355 45.1243 139.543 44.221 139.917 43.4561C140.291 42.6748 140.723 42.0319 141.211 41.5273C141.699 41.0065 142.188 40.624 142.676 40.3799C143.164 40.1195 143.53 39.9893 143.774 39.9893C144.051 39.9893 144.255 40.0625 144.385 40.209C144.531 40.3555 144.604 40.5508 144.604 40.7949C144.604 41.0716 144.515 41.2832 144.336 41.4297C144.173 41.5599 143.962 41.6901 143.701 41.8203C143.441 41.9505 143.164 42.1377 142.871 42.3818C142.578 42.6097 142.301 42.9027 142.041 43.2607C141.797 43.6188 141.593 44.042 141.431 44.5303C141.268 45.0186 141.187 45.5638 141.187 46.166C141.187 46.7031 141.268 47.2077 141.431 47.6797C141.593 48.1354 141.829 48.5342 142.139 48.876C142.448 49.2015 142.814 49.4619 143.237 49.6572C143.66 49.8363 144.132 49.9258 144.653 49.9258C145.581 49.9258 146.346 49.7142 146.948 49.291C147.567 48.8516 148.039 48.2982 148.364 47.6309C147.404 47.1263 146.615 46.4102 145.996 45.4824C145.378 44.5547 145.068 43.513 145.068 42.3574C145.068 41.4297 145.288 40.6729 145.728 40.0869C146.183 39.501 146.777 39.208 147.51 39.208C147.949 39.208 148.364 39.3138 148.755 39.5254C149.146 39.737 149.487 40.0706 149.78 40.5264C150.09 40.9821 150.334 41.568 150.513 42.2842C150.692 43.0003 150.781 43.8548 150.781 44.8477C150.781 45.3685 150.716 45.9137 150.586 46.4834C150.684 46.4997 150.781 46.5078 150.879 46.5078C150.977 46.5078 151.082 46.5078 151.196 46.5078C151.75 46.5078 152.246 46.4427 152.686 46.3125C153.125 46.1823 153.524 45.987 153.882 45.7266C154.24 45.4661 154.557 45.1325 154.834 44.7256C155.127 44.3187 155.404 43.8467 155.664 43.3096C155.713 43.2119 155.819 43.1224 155.981 43.041C156.144 42.9434 156.307 42.8945 156.47 42.8945C156.681 42.8945 156.877 42.984 157.056 43.1631C157.251 43.3258 157.349 43.5456 157.349 43.8223C157.349 43.9525 157.316 44.099 157.251 44.2617C157.186 44.4082 157.121 44.5465 157.056 44.6768C156.779 45.165 156.453 45.637 156.079 46.0928C155.721 46.5322 155.29 46.9229 154.785 47.2646C154.297 47.5902 153.743 47.8506 153.125 48.0459C152.507 48.2412 151.815 48.3307 151.05 48.3145ZM146.875 42.1621C146.875 42.4714 146.916 42.7969 146.997 43.1387C147.078 43.4805 147.201 43.8223 147.363 44.1641C147.542 44.4896 147.754 44.807 147.998 45.1162C148.258 45.4092 148.56 45.6615 148.901 45.873C148.95 45.5312 148.975 45.1976 148.975 44.8721C148.975 44.4326 148.942 43.985 148.877 43.5293C148.812 43.0736 148.714 42.6585 148.584 42.2842C148.47 41.8936 148.324 41.5843 148.145 41.3564C147.965 41.1123 147.754 40.9902 147.51 40.9902C147.412 40.9902 147.282 41.0635 147.119 41.21C146.956 41.3564 146.875 41.6738 146.875 42.1621ZM157.52 52.1963C158.724 51.6592 159.814 51.0407 160.791 50.3408C161.784 49.641 162.663 48.9085 163.428 48.1436C164.209 47.3623 164.868 46.5729 165.405 45.7754C165.959 44.9616 166.398 44.1885 166.724 43.4561C166.87 43.098 167.147 42.9189 167.554 42.9189C167.83 42.9189 168.05 43.0166 168.213 43.2119C168.392 43.391 168.481 43.5944 168.481 43.8223C168.481 43.9525 168.457 44.0745 168.408 44.1885C168.05 44.986 167.594 45.8161 167.041 46.6787C166.488 47.5251 165.812 48.3633 165.015 49.1934C164.233 50.0072 163.314 50.7965 162.256 51.5615C161.198 52.3265 159.985 53.0264 158.618 53.6611C159.497 54.5726 160.262 55.5817 160.913 56.6885C161.564 57.8115 162.101 58.9753 162.524 60.1797C162.964 61.3841 163.289 62.5967 163.501 63.8174C163.729 65.0544 163.843 66.2344 163.843 67.3574C163.843 68.3828 163.745 69.3431 163.55 70.2383C163.371 71.1497 163.094 71.9391 162.72 72.6064C162.362 73.2738 161.922 73.7946 161.401 74.1689C160.881 74.5596 160.286 74.7549 159.619 74.7549C158.643 74.7549 157.886 74.3887 157.349 73.6562C156.812 72.9401 156.413 71.9391 156.152 70.6533C155.908 69.3838 155.762 67.8783 155.713 66.1367C155.68 64.4115 155.664 62.5316 155.664 60.4971C155.664 59.488 155.664 58.3079 155.664 56.957C155.664 55.6224 155.664 54.182 155.664 52.6357C155.68 51.1058 155.688 49.5026 155.688 47.8262C155.705 46.1335 155.721 44.4408 155.737 42.748C155.754 41.0553 155.77 39.3952 155.786 37.7676C155.802 36.1237 155.827 34.5693 155.859 33.1045C155.908 30.305 156.006 27.8066 156.152 25.6094C156.299 23.4121 156.535 21.5566 156.86 20.043C157.186 18.5293 157.625 17.3818 158.179 16.6006C158.748 15.8031 159.465 15.4043 160.327 15.4043C161.011 15.4043 161.589 15.5996 162.061 15.9902C162.533 16.3646 162.915 16.8773 163.208 17.5283C163.501 18.1631 163.713 18.9118 163.843 19.7744C163.973 20.637 164.038 21.5404 164.038 22.4844C164.038 24.4701 163.867 26.3906 163.525 28.2461C163.184 30.1016 162.72 31.9001 162.134 33.6416C161.548 35.3831 160.856 37.084 160.059 38.7441C159.277 40.4043 158.439 42.04 157.544 43.6514C157.544 44.3187 157.544 45.043 157.544 45.8242C157.544 46.5892 157.544 47.3623 157.544 48.1436C157.544 48.9085 157.536 49.6491 157.52 50.3652C157.52 51.0651 157.52 51.6755 157.52 52.1963ZM157.593 39.8916C158.26 38.6383 158.87 37.32 159.424 35.9365C159.993 34.5368 160.482 33.0964 160.889 31.6152C161.296 30.1341 161.613 28.6204 161.841 27.0742C162.069 25.528 162.183 23.9736 162.183 22.4111C162.183 21.6299 162.142 20.9219 162.061 20.2871C161.995 19.6523 161.882 19.1152 161.719 18.6758C161.572 18.2201 161.377 17.8701 161.133 17.626C160.905 17.3656 160.636 17.2354 160.327 17.2354C160.002 17.2354 159.717 17.4307 159.473 17.8213C159.229 18.2119 159.017 18.7327 158.838 19.3838C158.659 20.0348 158.504 20.7835 158.374 21.6299C158.26 22.4762 158.162 23.3633 158.081 24.291C158 25.2025 157.935 26.1221 157.886 27.0498C157.837 27.9613 157.796 28.8239 157.764 29.6377C157.747 30.4352 157.731 31.1432 157.715 31.7617C157.715 32.3802 157.715 32.8441 157.715 33.1533C157.699 33.8044 157.682 34.3822 157.666 34.8867C157.666 35.3913 157.658 35.8877 157.642 36.376C157.625 36.8643 157.609 37.3851 157.593 37.9385C157.593 38.4919 157.593 39.1429 157.593 39.8916ZM157.52 55.1992C157.52 56.2246 157.511 57.1768 157.495 58.0557C157.495 58.9508 157.495 59.7646 157.495 60.4971C157.495 62.0107 157.503 63.5081 157.52 64.9893C157.536 66.4704 157.609 67.7969 157.739 68.9688C157.886 70.1569 158.097 71.109 158.374 71.8252C158.667 72.5576 159.082 72.9238 159.619 72.9238C160.107 72.9238 160.506 72.7041 160.815 72.2646C161.125 71.8252 161.361 71.3044 161.523 70.7021C161.702 70.0999 161.825 69.4814 161.89 68.8467C161.955 68.2282 161.987 67.7236 161.987 67.333C161.987 66.3402 161.89 65.2985 161.694 64.208C161.515 63.1175 161.23 62.0352 160.84 60.9609C160.465 59.903 160.002 58.8776 159.448 57.8848C158.895 56.8919 158.252 55.9967 157.52 55.1992ZM207.812 13.1582C208.203 13.1582 208.545 13.3291 208.838 13.6709C209.131 14.0127 209.277 14.4359 209.277 14.9404C209.277 15.624 209.001 16.389 208.447 17.2354C207.91 18.0654 207.129 18.9362 206.104 19.8477C205.924 20.7591 205.77 21.8008 205.64 22.9727C205.509 24.1283 205.444 25.4466 205.444 26.9277C205.444 29.2064 205.371 31.4281 205.225 33.5928C205.078 35.7575 204.801 37.792 204.395 39.6963C203.988 41.6006 203.41 43.3503 202.661 44.9453C201.929 46.5404 200.96 47.9157 199.756 49.0713C198.568 50.2106 197.119 51.0977 195.41 51.7324C193.701 52.3835 191.675 52.709 189.331 52.709C187.378 52.709 185.636 52.4811 184.106 52.0254C182.576 51.5697 181.274 50.943 180.2 50.1455C179.142 49.3317 178.328 48.3877 177.759 47.3135C177.205 46.223 176.929 45.043 176.929 43.7734C176.929 42.5039 177.197 41.332 177.734 40.2578C178.271 39.1673 178.996 38.2233 179.907 37.4258C180.819 36.612 181.877 35.9772 183.081 35.5215C184.302 35.0658 185.596 34.8379 186.963 34.8379C187.174 34.8379 187.386 34.846 187.598 34.8623C187.826 34.8623 188.029 34.8949 188.208 34.96C188.387 35.0088 188.534 35.1064 188.647 35.2529C188.778 35.3831 188.843 35.5703 188.843 35.8145C188.843 36.0749 188.745 36.2946 188.55 36.4736C188.371 36.6364 188.159 36.7178 187.915 36.7178C187.752 36.7178 187.59 36.7178 187.427 36.7178C187.28 36.7015 187.126 36.6934 186.963 36.6934C185.856 36.6934 184.806 36.8724 183.813 37.2305C182.821 37.5885 181.95 38.085 181.201 38.7197C180.452 39.3545 179.858 40.1032 179.419 40.9658C178.979 41.8285 178.76 42.7643 178.76 43.7734C178.76 44.6686 178.923 45.4661 179.248 46.166C179.574 46.8659 180.013 47.4844 180.566 48.0215C181.12 48.5423 181.755 48.9899 182.471 49.3643C183.203 49.7386 183.968 50.0397 184.766 50.2676C185.563 50.4954 186.369 50.6663 187.183 50.7803C188.013 50.8779 188.802 50.9268 189.551 50.9268C191.618 50.9268 193.4 50.6338 194.897 50.0479C196.395 49.4619 197.656 48.64 198.682 47.582C199.723 46.5241 200.562 45.2627 201.196 43.7979C201.831 42.3167 202.327 40.6891 202.686 38.915C203.044 37.1247 203.28 35.2204 203.394 33.2021C203.524 31.1676 203.597 29.068 203.613 26.9033C203.63 25.8617 203.67 24.8444 203.735 23.8516C203.8 22.8424 203.89 21.931 204.004 21.1172C203.353 21.459 202.637 21.7926 201.855 22.1182C201.074 22.4437 200.285 22.7855 199.487 23.1436C198.706 23.4854 197.941 23.8597 197.192 24.2666C196.444 24.6572 195.776 25.0967 195.19 25.585C194.621 26.057 194.157 26.5941 193.799 27.1963C193.457 27.7822 193.286 28.4414 193.286 29.1738C193.286 29.8411 193.4 30.4271 193.628 30.9316C193.856 31.4199 194.141 31.835 194.482 32.1768C194.824 32.5186 195.199 32.8034 195.605 33.0312C196.012 33.2428 196.387 33.4137 196.729 33.5439C197.087 33.6579 197.388 33.7474 197.632 33.8125C197.892 33.8613 198.039 33.8857 198.071 33.8857C198.348 33.9671 198.535 34.0811 198.633 34.2275C198.73 34.3577 198.779 34.5205 198.779 34.7158C198.779 34.9925 198.698 35.2204 198.535 35.3994C198.372 35.5622 198.169 35.6436 197.925 35.6436C197.892 35.6436 197.819 35.6436 197.705 35.6436C197.607 35.6273 197.542 35.611 197.51 35.5947C196.973 35.4808 196.354 35.2855 195.654 35.0088C194.954 34.7158 194.287 34.3171 193.652 33.8125C193.034 33.2917 192.505 32.6406 192.065 31.8594C191.642 31.0781 191.431 30.126 191.431 29.0029C191.431 28.0101 191.675 27.1312 192.163 26.3662C192.651 25.6012 193.286 24.9176 194.067 24.3154C194.865 23.7132 195.744 23.1761 196.704 22.7041C197.681 22.2321 198.649 21.7926 199.609 21.3857C200.57 20.9626 201.473 20.5557 202.319 20.165C203.166 19.7744 203.857 19.3512 204.395 18.8955C204.85 16.9261 205.379 15.4775 205.981 14.5498C206.584 13.6221 207.194 13.1582 207.812 13.1582ZM229.736 26.5615C229.736 26.8219 229.647 27.0335 229.468 27.1963C229.289 27.3428 229.069 27.416 228.809 27.416H216.431V27.6846C216.431 28.6774 216.357 29.7354 216.211 30.8584C216.064 31.9814 215.861 33.1045 215.601 34.2275C215.356 35.3343 215.072 36.4167 214.746 37.4746C214.437 38.5326 214.111 39.5091 213.77 40.4043C213.444 41.2995 213.118 42.0807 212.793 42.748C212.467 43.3991 212.174 43.8874 211.914 44.2129C212.126 44.9616 212.378 45.6615 212.671 46.3125C212.964 46.9473 213.289 47.5088 213.647 47.9971C214.022 48.4691 214.421 48.8434 214.844 49.1201C215.267 49.3968 215.723 49.5352 216.211 49.5352C216.781 49.5352 217.342 49.2992 217.896 48.8271C218.465 48.3389 218.986 47.7692 219.458 47.1182C219.946 46.4508 220.369 45.7835 220.728 45.1162C221.102 44.4326 221.37 43.8874 221.533 43.4805C221.696 43.0898 221.981 42.8945 222.388 42.8945C222.664 42.8945 222.884 42.9922 223.047 43.1875C223.226 43.3828 223.315 43.5944 223.315 43.8223C223.315 43.9362 223.291 44.0501 223.242 44.1641C223.193 44.278 223.071 44.5384 222.876 44.9453C222.697 45.3522 222.453 45.8242 222.144 46.3613C221.851 46.8984 221.501 47.4681 221.094 48.0703C220.703 48.6562 220.256 49.1934 219.751 49.6816C219.263 50.1699 218.734 50.5768 218.164 50.9023C217.594 51.2279 216.992 51.3906 216.357 51.3906C215.234 51.3906 214.225 51.0244 213.33 50.292C212.435 49.5596 211.67 48.5342 211.035 47.2158C210.417 45.8975 209.945 44.335 209.619 42.5283C209.294 40.7217 209.131 38.7441 209.131 36.5957C209.131 36.0586 209.139 35.432 209.155 34.7158C209.172 33.9834 209.204 33.2184 209.253 32.4209C209.302 31.6071 209.375 30.777 209.473 29.9307C209.57 29.068 209.701 28.2298 209.863 27.416H201.099C200.838 27.416 200.618 27.3428 200.439 27.1963C200.26 27.0335 200.171 26.8219 200.171 26.5615C200.171 26.3011 200.26 26.0977 200.439 25.9512C200.618 25.7884 200.838 25.707 201.099 25.707H210.278C210.441 25.1211 210.628 24.584 210.84 24.0957C211.068 23.6074 211.32 23.1842 211.597 22.8262C211.89 22.4681 212.207 22.1914 212.549 21.9961C212.907 21.7845 213.298 21.6787 213.721 21.6787C214.128 21.6787 214.478 21.7845 214.771 21.9961C215.08 22.1914 215.34 22.4681 215.552 22.8262C215.763 23.1842 215.926 23.6074 216.04 24.0957C216.17 24.584 216.268 25.1211 216.333 25.707H228.809C229.069 25.707 229.289 25.7884 229.468 25.9512C229.647 26.0977 229.736 26.3011 229.736 26.5615ZM211.353 41.7715C211.841 40.6973 212.28 39.5417 212.671 38.3047C213.078 37.0514 213.42 35.79 213.696 34.5205C213.989 33.251 214.209 32.0059 214.355 30.7852C214.518 29.5645 214.6 28.4414 214.6 27.416H211.719C211.491 28.4251 211.304 29.6784 211.157 31.1758C211.027 32.6569 210.962 34.4635 210.962 36.5957C210.962 37.7839 210.994 38.7848 211.06 39.5986C211.125 40.3962 211.222 41.1204 211.353 41.7715ZM213.623 23.5098C213.477 23.5098 213.265 23.6725 212.988 23.998C212.712 24.3073 212.435 24.877 212.158 25.707H214.502C214.421 25.0234 214.299 24.4863 214.136 24.0957C213.989 23.7051 213.818 23.5098 213.623 23.5098ZM211.743 43.5293V43.5537V43.5293ZM240.503 44.1885C240.438 44.3187 240.299 44.5954 240.088 45.0186C239.893 45.4255 239.632 45.8975 239.307 46.4346C238.997 46.9717 238.631 47.5332 238.208 48.1191C237.785 48.7051 237.313 49.2422 236.792 49.7305C236.271 50.2188 235.71 50.6257 235.107 50.9512C234.505 51.2604 233.87 51.415 233.203 51.415C232.259 51.415 231.462 51.1139 230.811 50.5117C230.176 49.9095 229.712 49.1527 229.419 48.2412C228.866 49.1689 228.206 49.9095 227.441 50.4629C226.676 51 225.911 51.2686 225.146 51.2686C224.544 51.2686 223.999 51.1628 223.511 50.9512C223.022 50.7233 222.607 50.4141 222.266 50.0234C221.924 49.6165 221.655 49.1445 221.46 48.6074C221.281 48.0703 221.191 47.4844 221.191 46.8496C221.191 45.5801 221.403 44.4652 221.826 43.5049C222.266 42.5283 222.819 41.7145 223.486 41.0635C224.154 40.4124 224.886 39.9242 225.684 39.5986C226.497 39.2731 227.279 39.1104 228.027 39.1104C228.532 39.1104 228.996 39.1836 229.419 39.3301C229.842 39.4603 230.2 39.6068 230.493 39.7695C230.802 39.9323 231.038 40.0869 231.201 40.2334C231.364 40.3636 231.453 40.4368 231.47 40.4531C231.649 40.6647 231.738 40.8844 231.738 41.1123C231.738 41.3564 231.649 41.5762 231.47 41.7715C231.291 41.9505 231.079 42.04 230.835 42.04C230.575 42.04 230.355 41.9505 230.176 41.7715C230.143 41.7389 230.07 41.682 229.956 41.6006C229.842 41.5029 229.688 41.4053 229.492 41.3076C229.297 41.21 229.061 41.1286 228.784 41.0635C228.524 40.9821 228.223 40.9414 227.881 40.9414C227.376 40.9414 226.839 41.0553 226.27 41.2832C225.7 41.5111 225.179 41.8691 224.707 42.3574C224.235 42.8294 223.836 43.4316 223.511 44.1641C223.201 44.8802 223.047 45.7347 223.047 46.7275C223.047 47.0368 223.079 47.3542 223.145 47.6797C223.21 47.9889 223.324 48.2738 223.486 48.5342C223.649 48.7946 223.869 49.0062 224.146 49.1689C224.422 49.3317 224.764 49.4131 225.171 49.4131C225.464 49.4131 225.798 49.3154 226.172 49.1201C226.562 48.9248 226.929 48.6237 227.271 48.2168C227.629 47.8099 227.946 47.2972 228.223 46.6787C228.516 46.0602 228.719 45.3278 228.833 44.4814C228.866 44.2536 228.971 44.0664 229.15 43.9199C229.329 43.7572 229.541 43.6758 229.785 43.6758C230.013 43.6758 230.208 43.7653 230.371 43.9443C230.55 44.1234 230.648 44.3268 230.664 44.5547C230.68 44.8639 230.713 45.3034 230.762 45.873C230.811 46.4264 230.916 46.9798 231.079 47.5332C231.258 48.0866 231.519 48.5667 231.86 48.9736C232.202 49.3805 232.674 49.584 233.276 49.584C233.667 49.584 234.049 49.4782 234.424 49.2666C234.814 49.055 235.189 48.7783 235.547 48.4365C235.921 48.0785 236.271 47.6797 236.597 47.2402C236.938 46.7845 237.248 46.3288 237.524 45.873C237.801 45.4173 238.045 44.9779 238.257 44.5547C238.468 44.1315 238.647 43.7653 238.794 43.4561C238.875 43.277 238.989 43.1387 239.136 43.041C239.299 42.9434 239.469 42.8945 239.648 42.8945C239.925 42.8945 240.145 43.0003 240.308 43.2119C240.487 43.4072 240.576 43.6188 240.576 43.8467C240.576 43.9606 240.552 44.0745 240.503 44.1885ZM252.71 44.2373C252.531 44.6117 252.303 45.0592 252.026 45.5801C251.766 46.0846 251.465 46.6136 251.123 47.167C250.781 47.7204 250.399 48.2738 249.976 48.8271C249.552 49.3643 249.089 49.8525 248.584 50.292C248.096 50.7152 247.567 51.057 246.997 51.3174C246.444 51.5941 245.85 51.7324 245.215 51.7324C244.238 51.7324 243.4 51.4313 242.7 50.8291C242 50.2269 241.406 49.4375 240.918 48.4609C240.43 47.4844 240.031 46.3776 239.722 45.1406C239.429 43.8874 239.201 42.6178 239.038 41.332C238.875 40.0299 238.761 38.7686 238.696 37.5479C238.647 36.3271 238.623 35.2448 238.623 34.3008C238.623 32.9336 238.664 31.5176 238.745 30.0527C238.843 28.5879 238.989 27.1556 239.185 25.7559C239.38 24.3561 239.624 23.0296 239.917 21.7764C240.226 20.5231 240.584 19.4245 240.991 18.4805C241.414 17.5365 241.895 16.7878 242.432 16.2344C242.969 15.681 243.579 15.4043 244.263 15.4043C244.8 15.4043 245.28 15.5345 245.703 15.7949C246.143 16.0391 246.509 16.446 246.802 17.0156C247.095 17.5853 247.323 18.3258 247.485 19.2373C247.648 20.1488 247.729 21.2637 247.729 22.582C247.729 24.2096 247.559 25.8942 247.217 27.6357C246.875 29.361 246.411 31.1025 245.825 32.8604C245.239 34.6182 244.548 36.376 243.75 38.1338C242.952 39.8753 242.098 41.5762 241.187 43.2363C241.593 45.3034 242.139 46.931 242.822 48.1191C243.506 49.291 244.328 49.877 245.288 49.877C245.939 49.877 246.566 49.6247 247.168 49.1201C247.77 48.5993 248.324 47.9889 248.828 47.2891C249.333 46.5892 249.772 45.8812 250.146 45.165C250.537 44.4326 250.838 43.8467 251.05 43.4072C251.131 43.2445 251.245 43.1224 251.392 43.041C251.538 42.9434 251.701 42.8945 251.88 42.8945C252.157 42.8945 252.376 42.9922 252.539 43.1875C252.718 43.3828 252.808 43.6025 252.808 43.8467C252.808 43.9443 252.775 44.0745 252.71 44.2373ZM240.479 34.4229C240.479 35.4645 240.503 36.4655 240.552 37.4258C240.601 38.3861 240.666 39.3057 240.747 40.1846C241.431 38.8662 242.082 37.4665 242.7 35.9854C243.319 34.488 243.864 32.9824 244.336 31.4688C244.808 29.9388 245.182 28.4251 245.459 26.9277C245.752 25.4141 245.898 23.9736 245.898 22.6064C245.898 20.6859 245.744 19.3105 245.435 18.4805C245.125 17.6504 244.71 17.2354 244.189 17.2354C243.848 17.2354 243.514 17.4714 243.188 17.9434C242.879 18.4154 242.586 19.0583 242.31 19.8721C242.033 20.6859 241.781 21.6462 241.553 22.7529C241.325 23.8597 241.13 25.0479 240.967 26.3174C240.82 27.5869 240.698 28.9134 240.601 30.2969C240.519 31.6803 240.479 33.0557 240.479 34.4229ZM260.156 51.3418C260.726 50.7721 261.304 50.1943 261.89 49.6084C262.476 49.0062 263.045 48.3796 263.599 47.7285C264.152 47.0775 264.665 46.402 265.137 45.7021C265.625 44.986 266.056 44.2292 266.431 43.4316C266.512 43.2526 266.626 43.1224 266.772 43.041C266.919 42.9434 267.082 42.8945 267.261 42.8945C267.537 42.8945 267.757 42.9922 267.92 43.1875C268.099 43.3828 268.188 43.6025 268.188 43.8467C268.188 43.9769 268.164 44.099 268.115 44.2129C267.611 45.2708 267.033 46.2393 266.382 47.1182C265.731 47.9971 265.047 48.8353 264.331 49.6328C263.615 50.4141 262.891 51.1709 262.158 51.9033C261.426 52.652 260.726 53.4007 260.059 54.1494C259.993 55.2725 259.993 56.3955 260.059 57.5186C260.124 58.6579 260.156 59.8623 260.156 61.1318C260.156 62.1735 260.124 63.2152 260.059 64.2568C259.993 65.2985 259.888 66.2913 259.741 67.2354C259.595 68.1956 259.391 69.0908 259.131 69.9209C258.887 70.751 258.569 71.4671 258.179 72.0693C257.788 72.6878 257.332 73.168 256.812 73.5098C256.291 73.8678 255.68 74.0469 254.98 74.0469C253.825 74.0469 252.938 73.6481 252.319 72.8506C251.701 72.0531 251.392 70.9382 251.392 69.5059C251.392 68.7246 251.473 67.8864 251.636 66.9912C251.815 66.096 252.059 65.1683 252.368 64.208C252.677 63.264 253.044 62.3037 253.467 61.3271C253.906 60.3506 254.378 59.3984 254.883 58.4707C255.387 57.543 255.924 56.6559 256.494 55.8096C257.064 54.9795 257.642 54.2227 258.228 53.5391C258.26 52.7578 258.293 51.944 258.325 51.0977C258.374 50.2676 258.423 49.4945 258.472 48.7783C258.049 49.527 257.52 50.1292 256.885 50.585C256.266 51.0407 255.583 51.2686 254.834 51.2686C253.597 51.2686 252.629 50.8535 251.929 50.0234C251.229 49.1934 250.879 48.054 250.879 46.6055C250.879 45.5475 250.977 44.5872 251.172 43.7246C251.383 42.8457 251.603 42.097 251.831 41.4785C252.075 40.8438 252.295 40.3636 252.49 40.0381C252.686 39.6963 252.783 39.5335 252.783 39.5498C252.962 39.2731 253.215 39.1348 253.54 39.1348C253.817 39.1348 254.036 39.2324 254.199 39.4277C254.378 39.6068 254.468 39.8184 254.468 40.0625C254.468 40.2415 254.419 40.4043 254.321 40.5508C254.338 40.5345 254.256 40.6729 254.077 40.9658C253.914 41.2425 253.727 41.6494 253.516 42.1865C253.32 42.7236 253.133 43.3665 252.954 44.1152C252.791 44.8639 252.71 45.6859 252.71 46.5811C252.71 47.4762 252.873 48.1761 253.198 48.6807C253.524 49.1852 254.053 49.4375 254.785 49.4375C255.713 49.4375 256.551 48.7539 257.3 47.3867C258.049 46.0033 258.683 44.0013 259.204 41.3809C259.237 41.1693 259.334 40.9984 259.497 40.8682C259.66 40.7217 259.855 40.6484 260.083 40.6484C260.343 40.6484 260.563 40.738 260.742 40.917C260.921 41.096 261.011 41.3158 261.011 41.5762C261.011 41.625 260.978 41.918 260.913 42.4551C260.848 42.9759 260.767 43.6758 260.669 44.5547C260.588 45.4336 260.498 46.459 260.4 47.6309C260.303 48.7865 260.221 50.0234 260.156 51.3418ZM258.203 56.5176C257.471 57.5755 256.795 58.6904 256.177 59.8623C255.575 61.0342 255.054 62.1979 254.614 63.3535C254.175 64.5091 253.833 65.6159 253.589 66.6738C253.345 67.7318 253.223 68.6758 253.223 69.5059C253.223 70.3522 253.361 71.0114 253.638 71.4834C253.914 71.9717 254.354 72.2158 254.956 72.2158C255.493 72.2158 255.965 71.9473 256.372 71.4102C256.795 70.8893 257.145 70.1406 257.422 69.1641C257.715 68.1875 257.935 66.9993 258.081 65.5996C258.228 64.2161 258.301 62.6618 258.301 60.9365C258.301 60.2367 258.285 59.5286 258.252 58.8125C258.236 58.0964 258.219 57.3314 258.203 56.5176Z" fill="#5E1224"/>
<g clip-path="url(#clip0)">
<path d="M319.27 34.788L319.165 30.8494C319.164 30.8174 319.161 30.7855 319.157 30.7537L318.77 16.5362C318.765 16.3361 318.694 16.1431 318.57 15.9859C318.446 15.8288 318.275 15.716 318.081 15.6642L296.529 9.88931C296.336 9.83749 296.131 9.84949 295.945 9.92352C295.759 9.99754 295.602 10.1296 295.497 10.3002L285.939 25.8553C283.433 29.9296 283.537 35.1887 286.194 38.6448C289.114 42.3237 292.847 45.2751 297.101 47.267L292.481 64.5088L284.815 66.8468C284.622 66.9057 284.453 67.0259 284.334 67.1892C284.215 67.3525 284.153 67.55 284.156 67.752C284.16 67.9539 284.229 68.1492 284.353 68.3084C284.477 68.4676 284.65 68.5819 284.845 68.6342L298.828 72.381C299.024 72.4333 299.23 72.4206 299.418 72.3449C299.605 72.2692 299.762 72.1346 299.866 71.9615C299.97 71.7883 300.015 71.586 299.994 71.3852C299.972 71.1843 299.886 70.9959 299.748 70.8483L294.278 64.9903L298.898 47.7485C303.578 48.1502 308.286 47.4612 312.654 45.7355C316.685 44.071 319.403 39.5684 319.27 34.788ZM296.718 11.8648L316.93 17.2808L317.262 29.3858C313.235 27.7155 308.886 26.9691 304.532 27.2014C297.925 27.4548 293.67 24.0213 291.176 20.888L296.718 11.8648ZM288.462 67.6767L292.962 66.3048L296.174 69.7436L288.462 67.6767Z" fill="#5E1224"/>
<path d="M314.744 32.8404C314.622 32.8438 314.502 32.8712 314.39 32.921C314.279 32.9708 314.178 33.0421 314.094 33.1308C314.01 33.2195 313.944 33.3238 313.901 33.4379C313.857 33.552 313.837 33.6735 313.84 33.7956C313.922 36.7738 312.202 39.6716 309.748 40.686C309.52 40.7806 309.34 40.9615 309.246 41.189C309.152 41.4165 309.152 41.672 309.246 41.8995C309.34 42.127 309.52 42.3079 309.748 42.4025C309.975 42.4971 310.23 42.4978 310.458 42.4042C313.649 41.0851 315.804 37.5238 315.699 33.7437C315.692 33.4973 315.587 33.2638 315.408 33.0944C315.229 32.925 314.99 32.8337 314.744 32.8404Z" fill="#5E1224"/>
</g>
<defs>
<clipPath id="clip0">
<rect width="68" height="68" fill="white" transform="translate(275.529) rotate(15)"/>
</clipPath>
</defs>
</svg>
