<svg width="60" height="60" viewBox="0 0 60 60" fill="none" xmlns="http://www.w3.org/2000/svg">
<path d="M24.375 55.002C33.6948 55.002 41.25 45.2082 41.25 33.127C41.25 21.0457 33.6948 11.252 24.375 11.252C15.0552 11.252 7.5 21.0457 7.5 33.127C7.5 45.2082 15.0552 55.002 24.375 55.002Z" fill="#FF5252"/>
<path d="M18.7501 33.1265C18.7501 32.439 19.1151 17.8652 29.9864 12.529C29.9914 12.5265 29.9951 12.524 30.0001 12.5215C28.9551 12.0427 27.8664 11.6952 26.7389 11.4902C20.5176 15.5515 16.3701 22.1565 16.6676 31.5627C16.8801 38.2865 19.3776 43.1177 22.2764 46.4727C20.0739 42.7777 18.7501 38.1565 18.7501 33.1265Z" fill="#D50000"/>
<path d="M24.1975 17.0629C23.5287 17.1604 22.8237 17.2216 22.085 17.2216C19.8437 17.2216 17.3325 16.6841 14.835 15.0879C14.1125 15.7329 13.4375 16.4566 12.8025 17.2341C15.845 19.7429 18.9275 20.9466 21.49 21.1966C22.2575 19.6741 23.17 18.2916 24.1975 17.0629Z" fill="#D50000"/>
<path d="M30 15.0708C30 15.0708 27.4212 0.834535 7.5 6.25078C16.25 23.7508 30 15.0708 30 15.0708Z" fill="#4CAF50"/>
<path d="M28.75 15C21.25 6.25 7.5 6.25 7.5 6.25L28.75 15Z" fill="#4CAF50"/>
<path d="M27.8125 15.8265C25.5513 12.8615 22.3575 10.6352 18.82 9.0865C17.0512 8.309 15.1975 7.69275 13.3012 7.21775C11.4037 6.749 9.465 6.39775 7.5 6.25025C9.47125 6.189 11.4525 6.334 13.42 6.604C15.3863 6.8815 17.3438 7.30775 19.26 7.9165C21.1737 8.5265 23.05 9.32275 24.82 10.3552C26.585 11.3802 28.2638 12.6752 29.6875 14.174L27.8125 15.8265Z" fill="#2E7D32"/>
<path d="M30.7954 7.50195C30.7954 7.50195 34.5454 10.002 34.5454 13.752" stroke="#795548" stroke-linecap="round"/>
<path d="M40.1704 55.002C49.4902 55.002 57.0454 45.2082 57.0454 33.127C57.0454 21.0457 49.4902 11.252 40.1704 11.252C30.8506 11.252 23.2954 21.0457 23.2954 33.127C23.2954 45.2082 30.8506 55.002 40.1704 55.002Z" fill="#FF9E80"/>
</svg>
