<svg width="60" height="60" viewBox="0 0 60 60" fill="none" xmlns="http://www.w3.org/2000/svg">
<path d="M29.146 16.6253C29.146 14.176 29.0025 12.1494 30.3475 10.0571C31.2358 8.67541 32.1731 7.51068 33.3112 6.37256" stroke="#5D4037" stroke-width="1.7" stroke-linecap="round" stroke-linejoin="round"/>
<path d="M30 56.25C39.665 56.25 47.5 49.8141 47.5 41.875C47.5 33.9359 39.665 27.5 30 27.5C20.335 27.5 12.5 33.9359 12.5 41.875C12.5 49.8141 20.335 56.25 30 56.25Z" fill="#FFC400"/>
<path d="M47.5 42.5C47.5 32.5 40 30 38.75 22.5C37.955 17.7337 34.8325 13.75 30 13.75C25.1675 13.75 22.045 17.7337 21.25 22.5C20 30 12.5 32.5 12.5 42.5" fill="#FFC400"/>
<path d="M30 17.5439C30 17.5439 28.4375 1.87514 12.5 7.50015C14.2188 23.8027 30 17.5439 30 17.5439Z" fill="#4CAF50"/>
<path d="M47.2213 39.3975C45.8763 31.885 39.8588 29.1537 38.75 22.5C38.1075 18.645 35.9413 15.305 32.58 14.1675C35.3 15.9562 36.25 23.1475 36.25 27.5C36.25 32.5 41.25 35 41.25 40C41.25 45 36.25 51.25 28.75 51.25C14.8663 51.25 12.7637 42.6875 12.5262 41.4137C12.5212 41.5675 12.5 41.7187 12.5 41.875C12.5 41.9662 12.515 42.0562 12.5175 42.1462C12.515 42.2675 12.5 42.3762 12.5 42.5H12.5375C12.9387 50.1462 20.59 56.25 30 56.25C39.41 56.25 47.06 50.1462 47.4625 42.5H47.5C47.5 42.3762 47.485 42.2675 47.4825 42.1462C47.485 42.0562 47.5 41.9662 47.5 41.875C47.5 41.0275 47.3938 40.2025 47.2213 39.3975Z" fill="#FFAB00"/>
<path d="M37.5 41.25C38.1904 41.25 38.75 40.6904 38.75 40C38.75 39.3096 38.1904 38.75 37.5 38.75C36.8096 38.75 36.25 39.3096 36.25 40C36.25 40.6904 36.8096 41.25 37.5 41.25Z" fill="#FF9100"/>
<path d="M32.5 41.25C33.1904 41.25 33.75 40.6904 33.75 40C33.75 39.3096 33.1904 38.75 32.5 38.75C31.8096 38.75 31.25 39.3096 31.25 40C31.25 40.6904 31.8096 41.25 32.5 41.25Z" fill="#FF9100"/>
<path d="M35 45C35.6904 45 36.25 44.4404 36.25 43.75C36.25 43.0596 35.6904 42.5 35 42.5C34.3096 42.5 33.75 43.0596 33.75 43.75C33.75 44.4404 34.3096 45 35 45Z" fill="#FF9100"/>
</svg>
