<svg width="59" height="59" viewBox="0 0 59 59" fill="none" xmlns="http://www.w3.org/2000/svg">
<g clip-path="url(#clip0)">
<path d="M26.7948 15.0784C25.2805 13.8506 23.678 12.7239 22.0316 11.7297L22.0092 11.7218C18.0916 11.1683 14.1301 12.83 11.1407 16.2796C11.012 16.4281 10.9963 16.6396 11.1018 16.8057C11.1808 16.9303 11.3094 17.0005 11.4477 17.0005C11.4856 17.0005 11.5242 16.9952 11.5627 16.9844C15.6113 15.8473 19.7988 15.4974 24.0089 15.9439L24.023 15.9454L24.0362 15.9405C24.9224 15.6042 25.8415 15.3493 26.7681 15.1829L26.8955 15.16L26.7948 15.0784Z" fill="#5EC62E"/>
<path d="M13.5128 16.2788C15.8211 13.615 18.709 12.0187 21.7088 11.6837C17.8897 11.2543 14.0537 12.9172 11.1407 16.2788C11.012 16.4273 10.9963 16.6388 11.1018 16.8048C11.1808 16.9295 11.3094 16.9997 11.4477 16.9997C11.4856 16.9997 11.5242 16.9944 11.5627 16.9836C12.1744 16.8117 12.7895 16.6602 13.4071 16.5243C13.416 16.4361 13.451 16.3501 13.5128 16.2788Z" fill="#4EAA18"/>
<path d="M28.3064 14.9107C27.3921 12.3472 26.1695 9.89315 24.673 7.61658L24.66 7.60241C20.6315 4.44833 15.1883 3.821 9.72597 5.88116C9.50115 5.96597 9.36632 6.17696 9.38269 6.41884C9.39824 6.64977 9.55185 6.83184 9.77414 6.88289C15.9216 8.29554 21.7834 11.161 26.7255 15.1695L26.7466 15.1865L26.7734 15.1818C27.2599 15.0944 27.7585 15.0297 28.2555 14.9897L28.3326 14.9836L28.3064 14.9107Z" fill="#5EC62E"/>
<path d="M27.4703 12.7967C22.9076 9.47066 17.6773 7.07183 12.2212 5.81808C11.9991 5.76703 11.8453 5.58496 11.8298 5.35403C11.8267 5.30737 11.8307 5.26242 11.8384 5.21875C11.1365 5.39552 10.4313 5.61585 9.72572 5.88204C9.5009 5.96685 9.36608 6.17784 9.38244 6.41972C9.398 6.65065 9.55161 6.83272 9.77389 6.88377C15.9214 8.29642 21.7831 11.1618 26.7253 15.1704L26.7464 15.1874L26.7731 15.1827C27.2596 15.0952 27.7583 15.0306 28.2553 14.9906L28.3323 14.9845L28.3063 14.9117C28.0515 14.1975 27.7721 13.4922 27.4703 12.7967Z" fill="#4EAA18"/>
<path d="M29.5582 9.31068L29.5607 9.2987L29.5582 9.28671C28.52 4.21699 24.522 0.746826 18.8639 0.00379609C18.6706 -0.0210945 18.4928 0.0778916 18.412 0.257426C18.3334 0.432237 18.3751 0.625369 18.5185 0.749822C22.8884 4.54414 26.2343 9.45461 28.1947 14.9505L28.2099 14.9933L28.2552 14.9897C28.6418 14.9587 29.0382 14.9419 29.4333 14.9401L29.4813 14.9399L29.5102 14.8026C29.527 14.7239 29.5437 14.6451 29.5584 14.5669L29.5604 14.556L29.5584 14.5452C29.2189 12.7294 29.2188 10.9683 29.5582 9.31068Z" fill="#5EC62E"/>
<path d="M29.3039 11.8904C27.3 7.6323 24.4315 3.8245 20.8904 0.749822C20.7773 0.651643 20.7287 0.510481 20.7514 0.369434C20.1452 0.213061 19.5162 0.0895303 18.8639 0.00379609C18.6706 -0.0210945 18.4928 0.0778916 18.412 0.257426C18.3334 0.432237 18.3751 0.625369 18.5185 0.749822C22.8884 4.54414 26.2343 9.45461 28.1947 14.9505L28.2099 14.9933L28.2552 14.9897C28.6418 14.9587 29.0382 14.9419 29.4333 14.9401L29.4813 14.9399L29.5102 14.8026C29.527 14.7239 29.5437 14.6451 29.5583 14.5669L29.5604 14.556L29.5583 14.5452C29.39 13.6448 29.3053 12.7579 29.3039 11.8904Z" fill="#4EAA18"/>
<path d="M47.8593 16.2795C42.7821 10.4204 36.9805 11.7313 36.9684 11.7296C35.322 12.7238 33.7194 13.8505 32.2052 15.0783L32.1047 15.1599L32.2322 15.1828C33.1587 15.3493 34.0778 15.6042 34.9639 15.9404L34.9772 15.9453L34.9912 15.9438C39.2011 15.4971 43.3887 15.8471 47.4374 16.9843C47.4761 16.995 47.5145 17.0004 47.5524 17.0004C47.6907 17.0004 47.8192 16.9303 47.8984 16.8055C48.0037 16.6395 47.988 16.428 47.8593 16.2795Z" fill="#5EC62E"/>
<path d="M36.9684 11.7293C35.322 12.7235 33.7194 13.8502 32.2052 15.078L32.1047 15.1596L32.2322 15.1825C33.1587 15.349 34.0778 15.6039 34.9639 15.9401L34.9772 15.945L34.9912 15.9435C35.0513 15.9372 35.1113 15.9326 35.1714 15.9266C37.1795 14.4428 39.3275 13.1513 41.5722 12.072C39.0897 11.3374 37.2955 11.7189 36.9684 11.7293Z" fill="#4EAA18"/>
<path d="M49.2742 5.88044C40.0155 2.3885 34.3395 7.61091 34.3272 7.61586C32.8307 9.89243 31.6081 12.3465 30.6938 14.91L30.6677 14.9828L30.7448 14.9889C31.2417 15.029 31.7403 15.0936 32.227 15.181L32.2537 15.1857L32.2748 15.1687C37.2169 11.1601 43.0786 8.29471 49.2262 6.88205C49.4484 6.831 49.6021 6.64893 49.6176 6.41801C49.6339 6.17624 49.4992 5.96525 49.2742 5.88044Z" fill="#5EC62E"/>
<path d="M36.632 8.11038C36.9516 7.60543 37.2791 7.3828 37.3817 7.28819C39.51 5.62179 41.615 4.97613 44.3272 4.74405C40.6271 4.43972 37.1415 5.40976 34.3402 7.60301C34.0705 8.07155 32.1968 10.6977 30.6938 14.9112L30.6677 14.984L30.7448 14.9901C31.2417 15.0302 31.7403 15.0948 32.227 15.1822L32.2537 15.1869L32.2748 15.1699C32.7109 14.8161 33.1547 14.4717 33.6048 14.1359C34.4123 12.0353 35.4274 10.0137 36.632 8.11038Z" fill="#4EAA18"/>
<path d="M40.5882 0.257398C40.5074 0.0778632 40.3295 -0.0210077 40.1362 0.00376762C32.3637 1.02451 27.9111 7.24301 29.5069 14.8928L29.5167 14.9397L29.5648 14.94C29.959 14.9417 30.3561 14.9584 30.745 14.9895L30.7903 14.9932L30.8055 14.9503C32.7659 9.45435 36.1118 4.54399 40.4817 0.749678C40.625 0.625341 40.6668 0.432208 40.5882 0.257398Z" fill="#5EC62E"/>
<path d="M40.5882 0.257398C40.5074 0.0778632 40.3295 -0.0210077 40.1362 0.00376762C32.3637 1.02451 27.9111 7.24301 29.5069 14.8928L29.5167 14.9397L29.5648 14.94C29.959 14.9417 30.3561 14.9584 30.745 14.9895L30.7903 14.9932L30.8055 14.9503C32.7659 9.45435 36.1118 4.54399 40.4817 0.749678C40.625 0.625341 40.6668 0.432208 40.5882 0.257398Z" fill="#5EC62E"/>
<path d="M40.6155 0.341865C40.6091 0.313517 40.6006 0.285169 40.5882 0.257398C40.5074 0.0778632 40.3295 -0.0210077 40.1362 0.00376762C32.3637 1.02451 27.9111 7.24301 29.5069 14.8928L29.5167 14.9397L29.5648 14.94C29.959 14.9417 30.3561 14.9584 30.745 14.9895L30.7903 14.9932L30.8055 14.9503C31.0205 14.3477 31.2532 13.7524 31.5009 13.1644C30.9399 7.00251 34.3851 1.91412 40.6155 0.341865Z" fill="#4EAA18"/>
<path d="M29.5002 14.7109C20.8498 14.7109 13.7722 21.7885 13.7722 30.4388V43.2713C13.7723 51.9216 20.8498 58.9991 29.5002 58.9991C38.1506 58.9991 45.228 51.9216 45.228 43.2713V30.4388C45.228 21.7885 38.1506 14.7109 29.5002 14.7109Z" fill="#FFC850"/>
<path d="M16.1442 43.2713V30.4388C16.1442 22.1873 22.5842 15.3672 30.6861 14.7558C30.2944 14.7263 29.8989 14.7109 29.5001 14.7109C20.8497 14.7109 13.7722 21.7885 13.7722 30.4388V43.2713C13.7722 51.9216 20.8497 58.9991 29.5001 58.9991C29.8989 58.9991 30.2944 58.9838 30.6861 58.9543C22.5842 58.3429 16.1442 51.5227 16.1442 43.2713Z" fill="#F9B428"/>
<path d="M42.6944 51.8042C43.0289 51.2898 43.3339 50.7546 43.6077 50.2015L39.0181 45.6118L45.2279 39.402V35.8451L39.0408 29.658L44.1002 24.6088C43.8641 24.0221 43.5937 23.4526 43.2912 22.9029L37.7829 28.4L31.0184 21.6355L36.3529 16.2936C35.7784 16.0132 35.1847 15.7667 34.5742 15.557L29.7604 20.3775L24.8126 15.4297C24.1896 15.6256 23.5831 15.8597 22.9957 16.1288L28.5033 21.6364L21.7778 28.3714L15.927 22.5206C15.612 23.0569 15.3281 23.6132 15.0775 24.187L20.5207 29.6303L13.795 36.3653L13.7722 36.3425V38.9058L13.7958 38.882L20.5309 45.6171L15.5764 50.5616C15.8622 51.1035 16.1785 51.6272 16.5234 52.1299L21.7889 46.875L28.514 53.6001L24.0821 58.0321C24.7108 58.2646 25.3583 58.4577 26.0213 58.6089L29.772 54.8581L33.417 58.5031C34.0651 58.3354 34.6971 58.1266 35.3105 57.8807L31.03 53.6002L37.7603 46.8699L42.6944 51.8042ZM44.4903 37.6236L37.7601 44.3538L31.0443 37.6381L37.7814 30.9146L44.4903 37.6236ZM29.7611 22.8943L36.5235 29.6567L29.7864 36.3802L23.0355 29.6293L29.7611 22.8943ZM15.0528 37.6232L21.7785 30.8882L28.5271 37.6369L21.7901 44.3604L15.0528 37.6232ZM29.7718 52.3422L23.048 45.6184L29.785 38.8949L36.502 45.6119L29.7718 52.3422Z" fill="#ED9D0F"/>
</g>
<defs>
<clipPath id="clip0">
<rect width="59" height="59" fill="white"/>
</clipPath>
</defs>
</svg>
