<svg width="60" height="60" viewBox="0 0 60 60" fill="none" xmlns="http://www.w3.org/2000/svg">
<path d="M35 5C35 5 31.25 8.875 31.25 16.25L35 5Z" fill="white"/>
<path d="M35 5C35 5 31.25 8.875 31.25 16.25" stroke="#795548" stroke-miterlimit="10"/>
<path d="M48.75 32.4996C48.75 42.8746 40.375 56.2496 30 56.2496C19.625 56.2496 11.25 42.8746 11.25 32.4996C11.25 20.2496 16.75 11.2496 31.25 16.2496C43 11.1246 48.75 22.1246 48.75 32.4996Z" fill="#9C27B0"/>
<path d="M41.125 35.75C41.375 35.125 41.375 34.375 41.375 33.75L41.625 31.75C41.625 31.125 41.625 30.375 41.625 29.625C41.625 28.875 41.625 28.25 41.5 27.625C41.375 27 41.25 26.25 41.125 25.625C41 25 40.75 24.375 40.625 23.75C40.25 22.5 39.75 21.375 39.25 20.125C38.625 19.125 38.125 18 37.5 17.125C37 16.375 36.5 15.625 35.875 15C34.375 15.125 32.875 15.5 31.125 16.25C37.625 21.25 39 31.125 39 31.75V33.625C39 34.25 39 34.875 38.875 35.5C38.75 36.125 38.75 36.75 38.625 37.375C38.625 38 38.5 38.625 38.375 39.125C38.125 40.25 37.875 41.375 37.5 42.5C37.125 43.5 36.75 44.5 36.375 45.375C36.25 45.875 36 46.25 35.875 46.625C35.625 47 35.5 47.375 35.25 47.75C34.875 48.5 34.625 49.125 34.375 49.625C34 50.625 33.75 51.25 33.75 51.25C33.75 51.25 34.125 50.75 34.75 49.75C35.125 49.25 35.5 48.75 35.875 48C36.125 47.625 36.375 47.25 36.625 47C36.875 46.625 37 46.25 37.25 45.75C37.75 44.875 38.25 43.875 38.75 42.875C39.25 41.875 39.625 40.625 40 39.5C40.25 38.875 40.375 38.25 40.5 37.625C40.75 37 41 36.375 41.125 35.75Z" fill="#4A148C"/>
<path d="M31.25 16.249C31.25 16.249 29.625 0.623975 13.75 6.24898C15.5 22.499 31.25 16.249 31.25 16.249Z" fill="#4CAF50"/>
</svg>
