<svg width="60" height="60" viewBox="0 0 60 60" fill="none" xmlns="http://www.w3.org/2000/svg">
<path d="M35 18.75C35 18.75 34.375 17.5 36.25 16.25C42.375 12.75 47 15.625 50 12.5C49.75 17.25 47.5 18.75 47.5 18.75H35ZM31.25 19.625C28 9.25 35.25 5 35.625 4.875L35 3.75L35.625 4.875L34.375 2.625C34.25 2.625 25 8 28.75 20.375L31.25 19.625ZM21.25 18.75V17.5C20.25 10.625 14.5 15.125 8.75 12.5C9.5 15.875 12.5 18.75 12.5 18.75H21.25Z" fill="#388E3C"/>
<path d="M39.9999 20H31.2499C30.8749 18.75 30.6249 17.125 30.4999 16C32.1249 13.5 37.3749 13.875 41.2499 7.5C44.2499 14.375 39.9999 20 39.9999 20ZM28.7499 20C28.7499 20 29.2499 20.875 28.7499 17.5C27.7499 10.5 21.7499 13.125 18.7499 5C12.625 14.875 19.9999 20 19.9999 20H28.7499Z" fill="#4CAF50"/>
<path d="M18.75 47.5C22.2018 47.5 25 44.7018 25 41.25C25 37.7982 22.2018 35 18.75 35C15.2982 35 12.5 37.7982 12.5 41.25C12.5 44.7018 15.2982 47.5 18.75 47.5Z" fill="#FF4081"/>
<path d="M30 48.75C33.4518 48.75 36.25 45.9518 36.25 42.5C36.25 39.0482 33.4518 36.25 30 36.25C26.5482 36.25 23.75 39.0482 23.75 42.5C23.75 45.9518 26.5482 48.75 30 48.75Z" fill="#FF4081"/>
<path d="M41.25 47.5C44.7018 47.5 47.5 44.7018 47.5 41.25C47.5 37.7982 44.7018 35 41.25 35C37.7982 35 35 37.7982 35 41.25C35 44.7018 37.7982 47.5 41.25 47.5Z" fill="#FF4081"/>
<path d="M35 40C38.4518 40 41.25 37.2018 41.25 33.75C41.25 30.2982 38.4518 27.5 35 27.5C31.5482 27.5 28.75 30.2982 28.75 33.75C28.75 37.2018 31.5482 40 35 40Z" fill="#FF4081"/>
<path d="M45 38.75C48.4518 38.75 51.25 35.9518 51.25 32.5C51.25 29.0482 48.4518 26.25 45 26.25C41.5482 26.25 38.75 29.0482 38.75 32.5C38.75 35.9518 41.5482 38.75 45 38.75Z" fill="#FF4081"/>
<path d="M15 38.75C18.4518 38.75 21.25 35.9518 21.25 32.5C21.25 29.0482 18.4518 26.25 15 26.25C11.5482 26.25 8.75 29.0482 8.75 32.5C8.75 35.9518 11.5482 38.75 15 38.75Z" fill="#FF4081"/>
<path d="M25 40C28.4518 40 31.25 37.2018 31.25 33.75C31.25 30.2982 28.4518 27.5 25 27.5C21.5482 27.5 18.75 30.2982 18.75 33.75C18.75 37.2018 21.5482 40 25 40Z" fill="#FF4081"/>
<path d="M13.75 30C17.2018 30 20 27.2018 20 23.75C20 20.2982 17.2018 17.5 13.75 17.5C10.2982 17.5 7.5 20.2982 7.5 23.75C7.5 27.2018 10.2982 30 13.75 30Z" fill="#FF4081"/>
<path d="M46.25 30C49.7018 30 52.5 27.2018 52.5 23.75C52.5 20.2982 49.7018 17.5 46.25 17.5C42.7982 17.5 40 20.2982 40 23.75C40 27.2018 42.7982 30 46.25 30Z" fill="#FF4081"/>
<path d="M21.25 30C24.7018 30 27.5 27.2018 27.5 23.75C27.5 20.2982 24.7018 17.5 21.25 17.5C17.7982 17.5 15 20.2982 15 23.75C15 27.2018 17.7982 30 21.25 30Z" fill="#FF4081"/>
<path d="M38.75 30C42.2018 30 45 27.2018 45 23.75C45 20.2982 42.2018 17.5 38.75 17.5C35.2982 17.5 32.5 20.2982 32.5 23.75C32.5 27.2018 35.2982 30 38.75 30Z" fill="#FF4081"/>
<path d="M30 30C33.4518 30 36.25 27.2018 36.25 23.75C36.25 20.2982 33.4518 17.5 30 17.5C26.5482 17.5 23.75 20.2982 23.75 23.75C23.75 27.2018 26.5482 30 30 30Z" fill="#FF4081"/>
<path d="M30 57.5C33.4518 57.5 36.25 54.7018 36.25 51.25C36.25 47.7982 33.4518 45 30 45C26.5482 45 23.75 47.7982 23.75 51.25C23.75 54.7018 26.5482 57.5 30 57.5Z" fill="#FF4081"/>
<path d="M36.25 53.75C39.7018 53.75 42.5 50.9518 42.5 47.5C42.5 44.0482 39.7018 41.25 36.25 41.25C32.7982 41.25 30 44.0482 30 47.5C30 50.9518 32.7982 53.75 36.25 53.75Z" fill="#FF4081"/>
<path d="M23.75 53.75C27.2018 53.75 30 50.9518 30 47.5C30 44.0482 27.2018 41.25 23.75 41.25C20.2982 41.25 17.5 44.0482 17.5 47.5C17.5 50.9518 20.2982 53.75 23.75 53.75Z" fill="#FF4081"/>
<path d="M30 47.5C29.75 47.375 29.625 47.375 29.5 47.375C29.625 47.5 29.875 47.5 30 47.5Z" fill="#C51162"/>
<path d="M52.5 23.75C52.5 20.25 49.75 17.5 46.25 17.5C48.375 17.5 50 21.625 50 23.75C50 25.875 48.375 27.5 46.25 27.5C45.5 27.5 44.75 27.25 44.125 26.875C44.625 26 45 24.875 45 23.75C45 22.25 44.5 20.875 43.625 19.875C44.25 18.625 45.25 17.5 46.25 17.5C44.875 17.5 43.5 18 42.5 18.75C41.5 18 40.125 17.5 38.75 17.5C40.875 17.5 42.5 21.625 42.5 23.75C42.5 25.875 40.875 27.5 38.75 27.5C37.5 27.5 36.5 26.875 35.75 26C36 25.25 36.25 24.5 36.25 23.75C36.25 22.75 36 21.875 35.625 21C36.25 19.25 37.375 17.5 38.75 17.5C37 17.5 35.5 18.25 34.375 19.25C33.25 18.25 31.75 17.5 30 17.5C32.125 17.5 33.75 21.625 33.75 23.75C33.75 25.875 32.125 27.5 30 27.5C27.875 27.5 26.25 25.875 26.25 23.75C26.25 21.625 27.875 17.5 30 17.5C28.25 17.5 26.75 18.25 25.625 19.25C24.5 18.25 23 17.5 21.25 17.5C22.625 17.5 23.75 19.25 24.375 21C24 21.875 23.75 22.75 23.75 23.75C23.75 24.5 23.875 25.375 24.25 26C23.5 26.875 22.5 27.5 21.25 27.5C19.125 27.5 17.5 25.875 17.5 23.75C17.5 21.625 19.125 17.5 21.25 17.5C19.875 17.5 18.5 18 17.5 18.75C16.5 18 15.125 17.5 13.75 17.5C14.75 17.5 15.75 18.5 16.375 19.875C15.5 20.875 15 22.25 15 23.75C15 24.875 15.25 25.875 15.875 26.875C15.25 27.25 14.625 27.5 13.75 27.5C11.625 27.5 10 25.875 10 23.75C10 21.625 11.625 17.5 13.75 17.5C10.25 17.5 7.5 20.25 7.5 23.75C7.5 25.75 8.5 27.625 10 28.75C9.25 29.75 8.75 31.125 8.75 32.5C8.75 35.25 10.625 37.625 13.125 38.5C12.75 39.25 12.5 40.25 12.5 41.25C12.5 44.25 14.625 46.75 17.5 47.375V47.5C17.5 51 20.25 53.75 23.75 53.75C23.875 53.75 24.125 53.75 24.25 53.75C25.25 56 27.375 57.5 30 57.5C32.625 57.5 34.75 55.875 35.75 53.75C35.875 53.75 36.125 53.75 36.25 53.75C39.75 53.75 42.5 51 42.5 47.5V47.375C45.375 46.75 47.5 44.25 47.5 41.25C47.5 40.25 47.25 39.25 46.75 38.5C49.375 37.75 51.25 35.375 51.25 32.5C51.25 31.125 50.75 29.75 50 28.75C51.5 27.625 52.5 25.75 52.5 23.75ZM32.625 29.375C33.25 29.125 33.875 28.625 34.375 28.125C35.25 29 36.375 29.625 37.625 29.875C38.25 31.125 38.75 32.75 38.75 33.75C38.75 35.875 37.125 37.5 35 37.5C32.875 37.5 31.25 35.875 31.25 33.75C31.25 32.625 31.75 30.75 32.625 29.375ZM30 37.5C30.75 38.5 31.875 39.375 33.125 39.75C33.5 40.75 33.75 41.75 33.75 42.625C33.75 44.75 32.125 46.375 30 46.375C27.875 46.375 26.25 44.75 26.25 42.625C26.25 41.875 26.5 40.875 26.875 39.75C28.125 39.25 29.25 38.5 30 37.5ZM22.375 29.875C23.625 29.625 24.75 29 25.625 28.125C26.125 28.625 26.75 29 27.375 29.375C28.25 30.75 28.75 32.5 28.75 33.75C28.75 35.875 27.125 37.5 25 37.5C22.875 37.5 21.25 35.875 21.25 33.75C21.25 32.75 21.625 31.25 22.375 29.875ZM11.25 32.5C11.25 31.75 11.5 30.75 11.875 29.625C12.5 29.875 13.125 30 13.75 30C15.125 30 16.5 29.5 17.5 28.75C17.625 28.875 17.75 28.875 17.875 29C18.5 30.25 18.75 31.625 18.75 32.5C18.75 34.625 17.125 36.25 15 36.25C12.875 36.25 11.25 34.625 11.25 32.5ZM18.75 45C16.625 45 15 43.375 15 41.25C15 40.5 15.25 39.625 15.5 38.75C17.125 38.625 18.5 37.875 19.5 36.75C20.125 37.875 21 38.75 22.125 39.25C22.375 40 22.5 40.75 22.5 41.25C22.5 43.375 20.875 45 18.75 45ZM20 47.5V47.375C21.75 47 23.125 46 24 44.5C24.25 45.125 24.5 45.75 25 46.25L26.625 47.75C26.875 47.875 27.125 48 27.375 48.125C27.125 49.875 25.625 51.25 23.75 51.25C21.625 51.25 20 49.625 20 47.5ZM30 55C28.625 55 27.375 54.125 26.75 53C28.375 52.125 29.5 50.625 29.875 48.75H30H30.125C30.5 50.625 31.75 52.125 33.25 53C32.625 54.125 31.375 55 30 55ZM36.25 51.25C34.375 51.25 32.875 49.875 32.625 48.125C32.875 48 33.125 47.875 33.375 47.75L35 46.25C35.375 45.75 35.75 45.125 36 44.5C36.875 45.875 38.25 47 40 47.375H40.125V47.5C40 49.625 38.375 51.25 36.25 51.25ZM41.25 45C39.125 45 37.5 43.375 37.5 41.25C37.5 40.75 37.625 40 37.875 39.25C39 38.625 39.875 37.75 40.5 36.75C41.5 37.875 43 38.5 44.5 38.75C44.875 39.625 45 40.625 45 41.25C45 43.375 43.375 45 41.25 45ZM45 36.25C42.875 36.25 41.25 34.625 41.25 32.5C41.25 31.5 41.625 30.25 42.125 29C42.25 28.875 42.375 28.875 42.5 28.75C43.5 29.5 44.875 30 46.25 30C46.875 30 47.5 29.875 48.125 29.625C48.5 30.625 48.75 31.625 48.75 32.5C48.75 34.625 47.125 36.25 45 36.25Z" fill="#C51162"/>
</svg>
