<svg width="21" height="36" viewBox="0 0 21 36" fill="none" xmlns="http://www.w3.org/2000/svg">
<path d="M20.5969 10.685L19.9375 8.46313C19.932 8.44511 19.9257 8.42738 19.9184 8.41L17.5341 0.390625C17.5005 0.277741 17.4313 0.178731 17.3369 0.108342C17.2424 0.0379539 17.1278 -4.67252e-05 17.01 4.31175e-08L3.88501 4.31175e-08C3.76724 3.47408e-06 3.65262 0.0380233 3.5582 0.108404C3.46377 0.178785 3.39459 0.277767 3.36095 0.390625L0.298445 10.6841C-0.505305 13.3806 0.355007 16.3528 2.39032 17.9122C4.60964 19.5579 7.18045 20.6665 9.90063 21.1506V31.6506L5.90063 34.1463C5.79982 34.2091 5.72222 34.3031 5.67956 34.414C5.63691 34.5248 5.63152 34.6466 5.66421 34.7608C5.69691 34.875 5.7659 34.9755 5.86077 35.047C5.95563 35.1185 6.07121 35.1572 6.19001 35.1572H14.7056C14.8244 35.1572 14.94 35.1185 15.0349 35.047C15.1297 34.9755 15.1987 34.875 15.2314 34.7608C15.2641 34.6466 15.2587 34.5248 15.2161 34.414C15.1734 34.3031 15.0958 34.2091 14.995 34.1463L10.995 31.6506V21.1506C13.7149 20.6665 16.2855 19.558 18.5047 17.9125C20.5413 16.3531 21.4003 13.3809 20.5969 10.685ZM4.29282 1.09375L16.6022 1.09375L18.6334 7.92125C16.0913 7.58525 13.5061 7.82338 11.0681 8.61813C7.35219 9.76813 4.41188 8.465 2.51782 7.06438L4.29282 1.09375ZM8.09938 34.0625L10.4475 32.5978L12.7956 34.0628L8.09938 34.0625Z" fill="#380A15"/>
</svg>
