<svg width="60" height="60" viewBox="0 0 60 60" fill="none" xmlns="http://www.w3.org/2000/svg">
<path d="M40 13.0557C40 10.602 37.5925 6.25195 30 6.25195C22.4063 6.25195 20 10.602 20 13.0557C20 13.0682 20.0038 13.0794 20.0038 13.0894C20.0038 13.1019 20 13.1132 20 13.1244V15.6244C20 16.6594 20.8388 17.4994 21.875 17.4994H24.445H35.5562H38.125C39.16 17.4994 40 16.6594 40 15.6244V13.1244C40 13.1119 39.9963 13.1007 39.9963 13.0894C39.9963 13.0794 40 13.0682 40 13.0557Z" fill="#90A4AE"/>
<path d="M40 51.875C40 52.91 39.16 53.75 38.125 53.75H21.875C20.84 53.75 20 52.91 20 51.875V19.375C20 18.34 20.84 17.5 21.875 17.5H38.125C39.16 17.5 40 18.34 40 19.375V51.875Z" fill="#90CAF9"/>
<path d="M22.5 27.5V49.375C22.5 49.72 22.78 50 23.125 50H24.375H35.625H36.875C37.22 50 37.5 49.72 37.5 49.375V27.5H22.5Z" fill="#EEEEEE"/>
<path d="M30 10.002C30.6904 10.002 31.25 9.44231 31.25 8.75195C31.25 8.0616 30.6904 7.50195 30 7.50195C29.3096 7.50195 28.75 8.0616 28.75 8.75195C28.75 9.44231 29.3096 10.002 30 10.002Z" fill="#37474F"/>
<path d="M25 11.252C25.6904 11.252 26.25 10.6923 26.25 10.002C26.25 9.3116 25.6904 8.75195 25 8.75195C24.3096 8.75195 23.75 9.3116 23.75 10.002C23.75 10.6923 24.3096 11.252 25 11.252Z" fill="#37474F"/>
<path d="M35 11.252C35.6904 11.252 36.25 10.6923 36.25 10.002C36.25 9.3116 35.6904 8.75195 35 8.75195C34.3096 8.75195 33.75 9.3116 33.75 10.002C33.75 10.6923 34.3096 11.252 35 11.252Z" fill="#37474F"/>
<path d="M28.75 47.502C29.4404 47.502 30 46.9423 30 46.252C30 45.5616 29.4404 45.002 28.75 45.002C28.0596 45.002 27.5 45.5616 27.5 46.252C27.5 46.9423 28.0596 47.502 28.75 47.502Z" fill="#B0BEC5"/>
<path d="M31.25 43.752C31.9404 43.752 32.5 43.1923 32.5 42.502C32.5 41.8116 31.9404 41.252 31.25 41.252C30.5596 41.252 30 41.8116 30 42.502C30 43.1923 30.5596 43.752 31.25 43.752Z" fill="#B0BEC5"/>
<path d="M33.75 47.502C34.4404 47.502 35 46.9423 35 46.252C35 45.5616 34.4404 45.002 33.75 45.002C33.0596 45.002 32.5 45.5616 32.5 46.252C32.5 46.9423 33.0596 47.502 33.75 47.502Z" fill="#B0BEC5"/>
</svg>
