<svg width="60" height="60" viewBox="0 0 60 60" fill="none" xmlns="http://www.w3.org/2000/svg">
<path d="M47.2663 19.7651C43.7501 23.2814 37.5963 22.4026 37.5963 22.4026C37.5963 22.4026 36.7201 16.2476 40.2338 12.7339C43.7501 9.21889 49.9026 10.0976 49.9026 10.0976C49.9026 10.0976 50.7826 16.2476 47.2663 19.7651Z" fill="#689F38"/>
<path d="M38.1614 24.0274C46.1176 24.9111 54.9564 33.7499 54.9564 33.7499C54.9564 33.7499 55.8401 27.5624 49.6526 23.1436C43.4651 18.7236 38.1614 24.0274 38.1614 24.0274Z" fill="#8BC34A"/>
<path d="M36.1075 21.8386C35.2238 13.8836 26.385 5.04364 26.385 5.04364C26.385 5.04364 32.5725 4.15989 36.9913 10.3461C41.41 16.5349 36.1075 21.8386 36.1075 21.8386Z" fill="#8BC34A"/>
<path d="M44.0038 44.2502C37.2938 50.9627 18.1538 58.0102 10.6963 50.5527C3.23755 43.0952 10.285 23.9564 16.9975 17.2452C23.71 10.5327 32.0463 14.2889 39.5038 21.7477C46.96 29.2027 50.7163 37.5377 44.0038 44.2502Z" fill="#FF1744"/>
<path d="M20.2899 19.0409C21.5111 17.8197 23.4886 17.8197 24.7086 19.0409C25.9286 20.2622 25.9299 22.2397 24.7086 23.4597C23.4874 24.6797 21.2211 24.9722 19.9999 23.7509C18.7786 22.5297 19.0699 20.2622 20.2899 19.0409Z" fill="#D50000"/>
<path d="M30.5774 26.3066C31.7987 25.0853 33.7762 25.0853 34.9962 26.3066C36.2162 27.5278 36.2174 29.5053 34.9962 30.7253C33.7749 31.9453 31.5074 32.2365 30.2861 31.0153C29.0649 29.7941 29.3561 27.5266 30.5774 26.3066Z" fill="#D50000"/>
<path d="M14.3075 42.5253C15.5287 41.3041 17.5062 41.3041 18.7262 42.5253C19.9462 43.7466 19.9474 45.724 18.7262 46.944C17.505 48.164 15.2375 48.4553 14.0162 47.234C12.795 46.0128 13.0875 43.7453 14.3075 42.5253Z" fill="#D50000"/>
<path d="M37.8699 36.4628C39.0911 35.2416 41.0686 35.2416 42.2886 36.4628C43.5086 37.6841 43.5099 39.6616 42.2886 40.8816C41.0674 42.1016 38.7999 42.3928 37.5786 41.1716C36.3574 39.9503 36.6486 37.6841 37.8699 36.4628Z" fill="#D50000"/>
<path d="M16.8111 30.0214C18.0324 28.8002 20.0099 28.8002 21.2299 30.0214C22.4499 31.2427 22.4511 33.2202 21.2299 34.4402C20.0086 35.6602 17.7411 35.9514 16.5199 34.7302C15.2986 33.5089 15.5911 31.2414 16.8111 30.0214Z" fill="#D50000"/>
<path d="M25.3699 40.2128C26.5911 38.9916 28.5686 38.9916 29.7886 40.2128C31.0086 41.4341 31.0099 43.4116 29.7886 44.6316C28.5674 45.8516 26.2999 46.1428 25.0786 44.9216C23.8574 43.7003 24.1486 41.4341 25.3699 40.2128Z" fill="#D50000"/>
<path d="M23.3837 22.1341C22.8949 22.6228 20.4887 24.2391 19.9999 23.7503C19.5112 23.2616 21.1274 20.8553 21.6162 20.3666C22.1049 19.8778 22.8949 19.8778 23.3837 20.3666C23.8724 20.8553 23.8724 21.6453 23.3837 22.1341Z" fill="#FFC107"/>
<path d="M33.6713 29.3997C33.1825 29.8884 30.7763 31.5047 30.2875 31.016C29.7988 30.5272 31.415 28.1209 31.9038 27.6322C32.3925 27.1434 33.1825 27.1434 33.6713 27.6322C34.16 28.1209 34.1588 28.9109 33.6713 29.3997Z" fill="#FFC107"/>
<path d="M17.4013 45.6165C16.9125 46.1052 14.5063 47.7215 14.0175 47.2327C13.5288 46.744 15.145 44.3377 15.6338 43.849C16.1225 43.3602 16.9125 43.3602 17.4013 43.849C17.89 44.3377 17.89 45.129 17.4013 45.6165Z" fill="#FFC107"/>
<path d="M40.9638 39.5559C40.475 40.0447 38.0688 41.6609 37.58 41.1722C37.0913 40.6834 38.7075 38.2772 39.1963 37.7884C39.685 37.2997 40.475 37.2997 40.9638 37.7884C41.4525 38.2772 41.4513 39.0672 40.9638 39.5559Z" fill="#FFC107"/>
<path d="M19.9049 33.1126C19.4162 33.6013 17.0099 35.2176 16.5212 34.7288C16.0324 34.2401 17.6487 31.8338 18.1374 31.3451C18.6262 30.8563 19.4162 30.8563 19.9049 31.3451C20.3937 31.8338 20.3924 32.6251 19.9049 33.1126Z" fill="#FFC107"/>
<path d="M28.4638 43.3059C27.975 43.7947 25.5688 45.4109 25.08 44.9222C24.5913 44.4334 26.2075 42.0272 26.6963 41.5384C27.185 41.0497 27.975 41.0497 28.4638 41.5384C28.9525 42.0272 28.9513 42.8172 28.4638 43.3059Z" fill="#FFC107"/>
</svg>
