<svg width="22" height="50" viewBox="0 0 22 50" fill="none" xmlns="http://www.w3.org/2000/svg">
<path d="M6.58567 25.976C6.58567 26.3805 6.25773 26.7084 5.85323 26.7084C5.44873 26.7084 5.12079 26.3805 5.12079 25.976V5.87953C5.12079 2.63756 7.75845 0 11.0004 0C14.2424 0 16.88 2.63756 16.88 5.87953V8.82882C16.88 9.23332 16.5521 9.56126 16.1475 9.56126C15.7429 9.56126 15.4151 9.23332 15.4151 8.82882V5.87953C15.4151 3.4453 13.4346 1.46488 11.0004 1.46488C8.56609 1.46488 6.58567 3.4453 6.58567 5.87953V25.976ZM16.8799 29.7686C16.8799 30.3321 17.1396 30.8637 17.5928 31.2269C20.1042 33.2411 21.5444 36.2405 21.5443 39.4558C21.5443 42.3001 20.429 44.9663 18.4037 46.9636C16.4148 48.9251 13.7911 49.9999 11.0016 49.9999C10.9511 49.9999 10.9008 49.9996 10.8502 49.9989C8.09332 49.9606 5.49561 48.8547 3.5356 46.8853C1.57569 44.9159 0.482108 42.3129 0.456522 39.5558C0.426248 36.2972 1.86915 33.2592 4.41521 31.221C4.86356 30.862 5.12069 30.3328 5.12069 29.769V28.9056C5.12069 28.5011 5.44863 28.1732 5.85313 28.1732C6.25763 28.1732 6.58557 28.5011 6.58557 28.9056V29.769C6.58557 30.7801 6.12814 31.7261 5.33076 32.3646C3.13803 34.12 1.89533 36.7362 1.9214 39.5422C1.96691 44.4322 5.98156 48.4661 10.8707 48.5342C13.3202 48.5659 15.6316 47.6401 17.3752 45.9206C19.1191 44.2008 20.0795 41.9049 20.0795 39.4558C20.0795 36.6871 18.8391 34.1044 16.6762 32.3696C15.8748 31.727 15.415 30.7789 15.415 29.7686V11.7585C15.415 11.354 15.7428 11.0261 16.1474 11.0261C16.552 11.0261 16.8799 11.354 16.8799 11.7585V29.7686ZM12.9101 3.89581C12.3657 3.37158 11.6496 3.09843 10.8947 3.12714C9.40944 3.18329 8.24593 4.41408 8.24593 5.92925V31.4053C8.24593 32.0511 7.9179 32.6391 7.36847 32.9782L7.11036 33.1376C4.87642 34.5168 3.55735 36.9054 3.58176 39.5268C3.61878 43.5225 6.89903 46.8185 10.8939 46.8742C10.9298 46.8748 11.0008 46.8749 11.0008 46.8749C13.1234 46.8749 15.0794 46.0055 16.5085 44.4267C17.6489 43.167 18.324 41.5386 18.4097 39.8415C18.5465 37.131 17.198 34.5622 14.8906 33.1376L14.6323 32.9781C14.0829 32.639 13.755 32.051 13.755 31.4052V5.87955C13.755 5.12494 13.4548 4.42043 12.9101 3.89581ZM10.9501 4.59094C10.9669 4.59035 10.9837 4.58996 11.0004 4.58996C11.3355 4.58996 11.6511 4.71711 11.8941 4.95101C12.1493 5.19691 12.2901 5.5267 12.2901 5.87955V9.0181H9.71091V5.92916C9.71081 5.21703 10.2668 4.61672 10.9501 4.59094ZM13.8627 34.2246L14.121 34.3841C16.0019 35.5454 17.0582 37.5579 16.9468 39.7677C16.8781 41.1282 16.3367 42.4337 15.4226 43.4437C14.2748 44.7118 12.7044 45.4102 11.003 45.4102C11.001 45.4102 10.9438 45.4101 10.9152 45.4096C7.7094 45.365 5.07643 42.72 5.04674 39.5134C5.02711 37.4092 6.08631 35.4917 7.8802 34.3842L8.13831 34.2248C9.1231 33.6168 9.71101 32.5629 9.71101 31.4054V10.4831H12.2902V12.1031H11.733C11.3284 12.1031 11.0006 12.4311 11.0006 12.8356C11.0006 13.2401 11.3284 13.568 11.733 13.568H12.2902V15.618H11.733C11.3284 15.618 11.0006 15.9459 11.0006 16.3504C11.0006 16.7549 11.3284 17.0828 11.733 17.0828H12.2902V19.1328H11.733C11.3284 19.1328 11.0006 19.4607 11.0006 19.8652C11.0006 20.2697 11.3284 20.5977 11.733 20.5977H12.2902V22.6476H11.733C11.3284 22.6476 11.0006 22.9756 11.0006 23.3801C11.0006 23.7846 11.3284 24.1125 11.733 24.1125H12.2902V26.1624H11.733C11.3284 26.1624 11.0006 26.4904 11.0006 26.8949C11.0006 27.2994 11.3284 27.6273 11.733 27.6273H12.2902V31.4054C12.2901 32.5627 12.878 33.6166 13.8627 34.2246Z" fill="#1C2E4A"/>
<path d="M6.58567 25.976C6.58567 26.3805 6.25773 26.7084 5.85323 26.7084C5.44873 26.7084 5.12079 26.3805 5.12079 25.976V5.87953C5.12079 2.63756 7.75845 0 11.0004 0C14.2424 0 16.88 2.63756 16.88 5.87953V8.82882C16.88 9.23332 16.5521 9.56126 16.1475 9.56126C15.7429 9.56126 15.4151 9.23332 15.4151 8.82882V5.87953C15.4151 3.4453 13.4346 1.46488 11.0004 1.46488C8.56609 1.46488 6.58567 3.4453 6.58567 5.87953V25.976ZM16.8799 29.7686C16.8799 30.3321 17.1396 30.8637 17.5928 31.2269C20.1042 33.2411 21.5444 36.2405 21.5443 39.4558C21.5443 42.3001 20.429 44.9663 18.4037 46.9636C16.4148 48.9251 13.7911 49.9999 11.0016 49.9999C10.9511 49.9999 10.9008 49.9996 10.8502 49.9989C8.09332 49.9606 5.49561 48.8547 3.5356 46.8853C1.57569 44.9159 0.482108 42.3129 0.456522 39.5558C0.426248 36.2972 1.86915 33.2592 4.41521 31.221C4.86356 30.862 5.12069 30.3328 5.12069 29.769V28.9056C5.12069 28.5011 5.44863 28.1732 5.85313 28.1732C6.25763 28.1732 6.58557 28.5011 6.58557 28.9056V29.769C6.58557 30.7801 6.12814 31.7261 5.33076 32.3646C3.13803 34.12 1.89533 36.7362 1.9214 39.5422C1.96691 44.4322 5.98156 48.4661 10.8707 48.5342C13.3202 48.5659 15.6316 47.6401 17.3752 45.9206C19.1191 44.2008 20.0795 41.9049 20.0795 39.4558C20.0795 36.6871 18.8391 34.1044 16.6762 32.3696C15.8748 31.727 15.415 30.7789 15.415 29.7686V11.7585C15.415 11.354 15.7428 11.0261 16.1474 11.0261C16.552 11.0261 16.8799 11.354 16.8799 11.7585V29.7686ZM12.9101 3.89581C12.3657 3.37158 11.6496 3.09843 10.8947 3.12714C9.40944 3.18329 8.24593 4.41408 8.24593 5.92925V31.4053C8.24593 32.0511 7.9179 32.6391 7.36847 32.9782L7.11036 33.1376C4.87642 34.5168 3.55735 36.9054 3.58176 39.5268C3.61878 43.5225 6.89903 46.8185 10.8939 46.8742C10.9298 46.8748 11.0008 46.8749 11.0008 46.8749C13.1234 46.8749 15.0794 46.0055 16.5085 44.4267C17.6489 43.167 18.324 41.5386 18.4097 39.8415C18.5465 37.131 17.198 34.5622 14.8906 33.1376L14.6323 32.9781C14.0829 32.639 13.755 32.051 13.755 31.4052V5.87955C13.755 5.12494 13.4548 4.42043 12.9101 3.89581ZM10.9501 4.59094C10.9669 4.59035 10.9837 4.58996 11.0004 4.58996C11.3355 4.58996 11.6511 4.71711 11.8941 4.95101C12.1493 5.19691 12.2901 5.5267 12.2901 5.87955V9.0181H9.71091V5.92916C9.71081 5.21703 10.2668 4.61672 10.9501 4.59094ZM13.8627 34.2246L14.121 34.3841C16.0019 35.5454 17.0582 37.5579 16.9468 39.7677C16.8781 41.1282 16.3367 42.4337 15.4226 43.4437C14.2748 44.7118 12.7044 45.4102 11.003 45.4102C11.001 45.4102 10.9438 45.4101 10.9152 45.4096C7.7094 45.365 5.07643 42.72 5.04674 39.5134C5.02711 37.4092 6.08631 35.4917 7.8802 34.3842L8.13831 34.2248C9.1231 33.6168 9.71101 32.5629 9.71101 31.4054V10.4831H12.2902V12.1031H11.733C11.3284 12.1031 11.0006 12.4311 11.0006 12.8356C11.0006 13.2401 11.3284 13.568 11.733 13.568H12.2902V15.618H11.733C11.3284 15.618 11.0006 15.9459 11.0006 16.3504C11.0006 16.7549 11.3284 17.0828 11.733 17.0828H12.2902V19.1328H11.733C11.3284 19.1328 11.0006 19.4607 11.0006 19.8652C11.0006 20.2697 11.3284 20.5977 11.733 20.5977H12.2902V22.6476H11.733C11.3284 22.6476 11.0006 22.9756 11.0006 23.3801C11.0006 23.7846 11.3284 24.1125 11.733 24.1125H12.2902V26.1624H11.733C11.3284 26.1624 11.0006 26.4904 11.0006 26.8949C11.0006 27.2994 11.3284 27.6273 11.733 27.6273H12.2902V31.4054C12.2901 32.5627 12.878 33.6166 13.8627 34.2246Z" stroke="#1C2E4A"/>
</svg>
