<svg width="22" height="52" viewBox="0 0 22 52" fill="none" xmlns="http://www.w3.org/2000/svg">
<path d="M11.9555 38.7301L12.2342 31.1674L15.5268 28.0807C21.4719 22.508 21.9741 20.1372 19.8671 7.58971L18.7607 1L10.9999 1.03604L3.23912 1L2.13269 7.58971C0.0260414 20.1372 0.528113 22.5075 6.47303 28.0807L9.76569 31.1674L10.0443 38.7301C10.2054 47.1225 10.7123 46.9096 9.20442 47.6807C8.56622 48.2455 6.81507 49.1182 5.31298 49.6205C3.81083 50.1224 2.64932 50.8343 2.92549 50.8731C3.20165 50.9119 4.03804 50.7785 4.59037 50.9053C5.14271 51.0316 16.8577 51.0316 17.41 50.9053C17.9624 50.7785 18.7988 50.9119 19.0749 50.8731C19.3511 50.8343 18.1895 50.1224 16.6874 49.6205C15.1853 49.1182 13.4117 48.3717 12.7735 47.807C10.9327 46.9654 11.943 47.1726 11.9555 38.7301Z" stroke="#1C2E4A"/>
</svg>
