<svg width="24" height="24" viewBox="0 0 24 24" fill="none" xmlns="http://www.w3.org/2000/svg">
<g clip-path="url(#clip0)">
<path d="M23.6183 4.34063C23.085 4.57709 22.5315 4.76363 21.9635 4.89868C22.5894 4.30394 23.0599 3.56005 23.3254 2.72973C23.4012 2.49268 23.1437 2.28771 22.9297 2.41463C22.1395 2.88333 21.2884 3.23494 20.3998 3.45981C20.3483 3.47286 20.2951 3.47947 20.2417 3.47947C20.0799 3.47947 19.9225 3.41938 19.7988 3.31031C18.8534 2.47712 17.6375 2.01825 16.3752 2.01825C15.829 2.01825 15.2775 2.10339 14.736 2.27132C13.0582 2.79169 11.7637 4.17562 11.3576 5.88307C11.2052 6.52351 11.164 7.16454 11.2349 7.7883C11.243 7.85998 11.2091 7.91001 11.1882 7.93348C11.1515 7.97461 11.0995 7.99819 11.0455 7.99819C11.0395 7.99819 11.0333 7.9979 11.0271 7.99732C7.35466 7.65612 4.04298 5.88682 1.70211 3.01539C1.58274 2.86893 1.35383 2.8869 1.25868 3.05009C0.800282 3.83653 0.558032 4.73601 0.558032 5.6513C0.558032 7.054 1.12158 8.3759 2.10047 9.33958C1.68882 9.24198 1.2904 9.08826 0.920295 8.8827C0.741241 8.78322 0.520934 8.91108 0.518418 9.11588C0.492788 11.1997 1.71282 13.0539 3.54046 13.8888C3.50365 13.8897 3.46684 13.8901 3.42998 13.8901C3.14028 13.8901 2.84694 13.8622 2.55823 13.807C2.35659 13.7685 2.18719 13.9598 2.2498 14.1553C2.84302 16.0073 4.43766 17.3724 6.34593 17.6824C4.76218 18.7455 2.91786 19.3063 0.998295 19.3063L0.399867 19.306C0.215488 19.306 0.0595472 19.4262 0.0125601 19.6048C-0.0337248 19.7807 0.0515308 19.9662 0.208759 20.0577C2.3718 21.3165 4.83907 21.9818 7.34489 21.9818C9.53831 21.9818 11.5901 21.5465 13.4432 20.6881C15.1421 19.9011 16.6433 18.7762 17.9052 17.3445C19.0808 16.0109 20 14.4713 20.6374 12.7686C21.2449 11.1456 21.5661 9.41383 21.5661 7.76045V7.68169C21.566 7.41621 21.6861 7.16641 21.8956 6.99637C22.6905 6.35095 23.3827 5.5912 23.9529 4.73824C24.1035 4.51301 23.866 4.23074 23.6183 4.34063Z" fill="#5E1224"/>
</g>
<defs>
<clipPath id="clip0">
<rect width="24" height="24" fill="white"/>
</clipPath>
</defs>
</svg>
