<svg width="54" height="54" viewBox="0 0 54 54" fill="none" xmlns="http://www.w3.org/2000/svg">
<path d="M1.8515 19.9791C1.35919 20.1502 1.01601 20.5343 0.870361 20.9825L22.4863 28.0061L20.1741 24.5134L12.5712 20.6764C9.31395 19.0518 5.45511 18.7263 1.8515 19.9791V19.9791Z" fill="#FBCF72"/>
<path d="M1.54861 20.91C1.13213 20.8478 0.90243 20.8825 0.870263 20.9814C0.724617 21.4298 0.776505 21.9421 1.07423 22.3701C3.25365 25.5022 6.56756 27.5072 10.1583 28.1071L18.5628 29.4715L22.4862 28.005L19.5462 26.4447L11.6303 23.571C8.24328 22.3455 4.59706 21.3658 1.54861 20.91V20.91Z" fill="#FAEC8E"/>
<path d="M10.1999 50.455C10.2106 50.9761 10.4698 51.4212 10.851 51.6983L24.2104 33.3105L20.1742 34.4303L14.1756 40.4754C11.624 43.0714 10.1221 46.6407 10.1999 50.455Z" fill="#FBCF72"/>
<path d="M10.9924 51.0311C10.8045 51.408 10.7666 51.6372 10.8508 51.6983C11.2322 51.9753 11.7355 52.0844 12.2345 51.9333C15.8867 50.8285 18.8176 48.2963 20.4979 45.0667L24.3926 37.4952L24.2103 33.3105L21.8178 35.6245L16.6387 42.265C14.4265 45.1077 12.3679 48.2726 10.9924 51.0311V51.0311Z" fill="#FAEC8E"/>
<path d="M41.7651 51.9353C42.264 52.0862 42.7674 51.9772 43.1487 51.7002L29.7893 33.3125L29.6069 37.4971L33.5025 45.0702C35.1829 48.2991 38.1134 50.8306 41.7651 51.9353Z" fill="#FBCF72"/>
<path d="M42.5586 51.3593C42.859 51.6545 43.0653 51.7613 43.1494 51.7002C43.5308 51.4232 43.79 50.9781 43.8007 50.4569C43.8785 46.6419 42.376 43.0721 39.8236 40.4761L33.8263 34.4322L29.79 33.3125L31.2515 36.3029L35.9665 43.2807C37.9862 46.2629 40.3601 49.1987 42.5586 51.3593V51.3593Z" fill="#FAEC8E"/>
<path d="M52.9257 22.371C53.2234 21.9431 53.2753 21.4306 53.1297 20.9824L31.5137 28.0059L35.4372 29.4725L43.8434 28.1078C47.4335 27.5073 50.7466 25.5025 52.9257 22.371Z" fill="#FBCF72"/>
<path d="M52.6224 21.439C52.996 21.2445 53.1614 21.0813 53.1292 20.9825C52.9835 20.5343 52.6404 20.1502 52.1479 19.979C48.5438 18.7261 44.6843 19.052 41.4266 20.6772L33.8254 24.5135L31.5132 28.0061L34.8088 27.5403L42.9021 25.2123C46.3626 24.2127 49.8884 22.8622 52.6224 21.439V21.439Z" fill="#FAEC8E"/>
<path d="M28.2576 2.62113C27.9426 2.20581 27.4713 1.99805 27 1.99805V24.7265L29.6072 21.4482L30.9069 13.0317C31.4453 9.43171 30.5625 5.66125 28.2576 2.62113V2.62113Z" fill="#FBCF72"/>
<path d="M27.2775 2.62113C27.208 2.20581 27.104 1.99805 27 1.99805C26.5287 1.99805 26.0573 2.20571 25.7423 2.62113C23.437 5.66178 22.5542 9.43297 23.0932 13.0335L24.3927 21.4482L26.9999 24.7265L27.5753 21.4482L27.8621 13.0317C27.9811 9.43171 27.7863 5.66125 27.2775 2.62113V2.62113Z" fill="#FAEC8E"/>
<path d="M35.4372 29.4723C35.4372 28.9688 35.2012 28.5211 34.8346 28.2314C35.0937 27.8426 35.1799 27.3439 35.0243 26.865C34.8687 26.3861 34.5059 26.0333 34.0677 25.8711C34.194 25.4212 34.1218 24.9204 33.8259 24.5131C33.53 24.1056 33.0758 23.8823 32.6091 23.8634C32.5902 23.3965 32.3668 22.9425 31.9594 22.6464C31.552 22.3505 31.0511 22.2784 30.6013 22.4046C30.439 21.9664 30.0863 21.6036 29.6074 21.448C29.1285 21.2925 28.6299 21.3787 28.241 21.6378C27.9513 21.2712 27.5037 21.0352 27.0001 21.0352C26.4965 21.0352 26.049 21.2712 25.7592 21.6378C25.3704 21.3787 24.8718 21.2925 24.3929 21.448C23.9139 21.6036 23.5612 21.9664 23.399 22.4046C22.949 22.2784 22.4482 22.3505 22.0409 22.6464C21.6335 22.9424 21.4101 23.3965 21.3912 23.8634C20.9243 23.8823 20.4703 24.1056 20.1744 24.5131C19.8784 24.9205 19.8063 25.4213 19.9326 25.8711C19.4943 26.0334 19.1315 26.3861 18.976 26.865C18.8204 27.3439 18.9066 27.8426 19.1656 28.2314C18.799 28.5211 18.563 28.9687 18.563 29.4723C18.563 29.9759 18.799 30.4235 19.1656 30.7132C18.9065 31.102 18.8203 31.6007 18.976 32.0796C19.1315 32.5585 19.4943 32.9113 19.9326 33.0735C19.8063 33.5234 19.8784 34.0242 20.1744 34.4316C20.4703 34.839 20.9244 35.0623 21.3912 35.0812C21.4101 35.5481 21.6336 36.0021 22.0409 36.2981C22.4482 36.594 22.9491 36.6661 23.399 36.5399C23.5613 36.9781 23.9139 37.3409 24.3929 37.4965C24.8718 37.652 25.3709 37.5667 25.7598 37.3076C26.0495 37.6737 26.4969 37.9095 27 37.9095C27.5034 37.9095 27.9509 37.6735 28.2406 37.3071C28.6295 37.5663 29.1283 37.6521 29.6072 37.4966C30.0861 37.341 30.4388 36.9782 30.6011 36.54C31.051 36.6662 31.5519 36.5941 31.9592 36.2982C32.3666 36.0022 32.59 35.5481 32.6088 35.0813C33.0757 35.0624 33.5298 34.839 33.8257 34.4317C34.1216 34.0244 34.1938 33.5234 34.0675 33.0736C34.5057 32.9113 34.8685 32.5586 35.0241 32.0797C35.1796 31.6008 35.0935 31.1022 34.8344 30.7133C35.2012 30.4234 35.4372 29.9758 35.4372 29.4723Z" fill="#FBF6C3"/>
<path d="M26.9998 34.2183C29.6209 34.2183 31.7457 32.0935 31.7457 29.4725C31.7457 26.8514 29.6209 24.7266 26.9998 24.7266C24.3787 24.7266 22.2539 26.8514 22.2539 29.4725C22.2539 32.0935 24.3787 34.2183 26.9998 34.2183Z" fill="#FBB860"/>
<path d="M26.9999 31.0526C27.8736 31.0526 28.5819 30.3443 28.5819 29.4706C28.5819 28.5969 27.8736 27.8887 26.9999 27.8887C26.1262 27.8887 25.418 28.5969 25.418 29.4706C25.418 30.3443 26.1262 31.0526 26.9999 31.0526Z" fill="#FB8151"/>
<path d="M53.8817 20.7378C53.6504 20.0257 53.1132 19.4767 52.408 19.2317C48.7165 17.9483 44.5854 18.2173 41.0706 19.9708L33.9768 23.5509C33.7677 23.3924 33.5344 23.2691 33.2843 23.1879C33.1317 22.718 32.8346 22.305 32.424 22.0066C32.0133 21.7084 31.529 21.5535 31.0347 21.5535C30.8802 21.3407 30.6909 21.1571 30.4756 21.0071L31.6892 13.1488C32.2695 9.2682 31.2484 5.25687 28.8878 2.14324C28.4368 1.54831 27.7486 1.20714 26.9999 1.20703C26.2513 1.20703 25.5631 1.54821 25.112 2.14324C22.7509 5.2575 21.7301 9.26947 22.3115 13.1541L23.5243 21.007C23.3089 21.157 23.1196 21.3406 22.9649 21.5534C22.4709 21.5534 21.9866 21.7084 21.5758 22.0066C21.1651 22.305 20.8682 22.7179 20.7156 23.1878C20.4654 23.269 20.2322 23.3923 20.023 23.5508L12.9244 19.9682C9.41312 18.2171 5.28282 17.9486 1.59188 19.2317C0.886644 19.4768 0.349513 20.0258 0.118125 20.7379C-0.113264 21.4499 -0.00147207 22.2097 0.425026 22.8228C2.65718 26.0306 6.15744 28.2415 10.0281 28.8883C10.0723 28.8957 10.1162 28.8992 10.1594 28.8992C10.539 28.8992 10.8739 28.6253 10.9387 28.2385C11.0107 27.8076 10.7197 27.4 10.2889 27.3279C6.83589 26.7509 3.71393 24.7795 1.72361 21.9193C1.58239 21.7163 1.54559 21.464 1.62268 21.2269C1.69977 20.9898 1.8778 20.8073 2.1114 20.7261C5.40231 19.582 9.08619 19.822 12.215 21.3824L19.1481 24.8814C19.1039 25.0631 19.0812 25.2497 19.0813 25.4377C18.6815 25.7279 18.3807 26.1381 18.2237 26.6209C18.0669 27.1036 18.0692 27.6123 18.2219 28.0822C18.1114 28.2343 18.0202 28.3985 17.9491 28.5715L13.4083 27.8343C12.9772 27.7648 12.5708 28.0571 12.5008 28.4883C12.4309 28.9195 12.7237 29.3257 13.1548 29.3958L17.8751 30.1621C17.9511 30.4132 18.0673 30.65 18.2219 30.8627C18.0692 31.3326 18.0668 31.8413 18.2237 32.3239C18.3806 32.8067 18.6815 33.2168 19.0813 33.5072C19.0813 33.7702 19.1264 34.0301 19.2125 34.278L13.6117 39.9223C10.8613 42.7206 9.32939 46.566 9.40922 50.4724C9.42441 51.2189 9.78046 51.8994 10.3861 52.3395C10.7989 52.6394 11.2821 52.7945 11.7743 52.7945C12.0043 52.7945 12.2363 52.7607 12.4639 52.6917C16.2044 51.5602 19.3886 48.9146 21.2016 45.4298L24.8361 38.3642C25.0988 38.3695 25.3603 38.3323 25.6107 38.251C26.0103 38.5411 26.493 38.7005 27.0003 38.7005C27.5078 38.7005 27.9907 38.541 28.3903 38.2507C28.6406 38.3321 28.9018 38.3693 29.1643 38.3639L32.8013 45.4348C34.6128 48.9152 37.7967 51.5603 41.5366 52.6917C41.7643 52.7606 41.9961 52.7945 42.2262 52.7945C42.7182 52.7945 43.2014 52.6393 43.6141 52.3396C44.2199 51.8995 44.576 51.219 44.5913 50.4725C44.671 46.5651 43.1387 42.7192 40.3849 39.9183L34.788 34.2781C34.874 34.0303 34.9193 33.7703 34.9192 33.5073C35.319 33.2169 35.62 32.8068 35.7767 32.3241C35.9336 31.8413 35.9312 31.3326 35.7785 30.8628C35.9331 30.6501 36.0493 30.4133 36.1254 30.1622L43.9742 28.888C47.844 28.2406 51.3436 26.03 53.5753 22.8227C54.0014 22.2097 54.1132 21.4499 53.8817 20.7378V20.7378ZM26.3726 3.09896C26.522 2.90195 26.7506 2.789 26.9999 2.789C27.2493 2.7891 27.4778 2.90195 27.6271 3.09896C29.732 5.8752 30.6424 9.45287 30.1253 12.9109L28.94 20.586C28.7534 20.6001 28.5689 20.6361 28.3902 20.6942C27.9905 20.4037 27.5076 20.2442 26.9998 20.2442C26.4922 20.2442 26.0092 20.4037 25.6095 20.6942C25.4307 20.6361 25.2463 20.6 25.0597 20.586L23.8754 12.9163C23.3572 9.45393 24.2674 5.87573 26.3726 3.09896V3.09896ZM19.7963 44.7029C18.1805 47.8087 15.3408 50.1686 12.0055 51.1776C11.7688 51.2493 11.5175 51.2061 11.3158 51.0596C11.1142 50.9131 10.9956 50.6874 10.9906 50.4401C10.9195 46.957 12.286 43.5276 14.7369 41.034L20.2071 35.5214C20.3662 35.6195 20.5367 35.6988 20.7154 35.7569C20.868 36.2268 21.165 36.6398 21.5756 36.9381C21.9862 37.2364 22.4705 37.3912 22.965 37.3912C23.0755 37.5434 23.2034 37.681 23.346 37.802L19.7963 44.7029ZM27.6202 36.8166C27.4685 37.0084 27.2424 37.1185 26.9999 37.1185C26.7577 37.1185 26.5317 37.0085 26.3798 36.8167C26.2244 36.6205 25.9934 36.5166 25.7591 36.5166C25.6078 36.5166 25.4553 36.5599 25.321 36.6494C25.1177 36.7849 24.8685 36.8195 24.6372 36.7442C24.4066 36.6692 24.2256 36.4947 24.1406 36.2652C23.9976 35.8788 23.5822 35.6671 23.1851 35.7784C22.9493 35.8442 22.7019 35.8007 22.5057 35.658C22.3095 35.5156 22.1914 35.2937 22.1815 35.0492C22.1647 34.6376 21.8348 34.3077 21.4232 34.2909C21.1787 34.281 20.9567 34.1629 20.8142 33.9666C20.6717 33.7705 20.6279 33.5229 20.694 33.2875C20.8055 32.8908 20.5936 32.475 20.2072 32.3318C19.9777 32.2468 19.8032 32.0658 19.7282 31.8351C19.6532 31.6045 19.6881 31.3555 19.8237 31.1518C20.0522 30.8089 19.9792 30.3481 19.6559 30.0927C19.464 29.9409 19.3539 29.7148 19.3539 29.4723C19.3539 29.2299 19.464 29.0039 19.6559 28.852C19.9791 28.5966 20.0522 28.1358 19.8237 27.7929C19.6881 27.5892 19.6532 27.3402 19.7282 27.1096C19.8032 26.8789 19.9777 26.698 20.2071 26.613C20.5936 26.47 20.8055 26.0541 20.694 25.6573C20.6279 25.4219 20.6717 25.1742 20.8144 24.978C20.9568 24.7819 21.1786 24.6638 21.4231 24.6539C21.8347 24.6372 22.1647 24.3073 22.1815 23.8956C22.1914 23.6511 22.3096 23.429 22.5057 23.2866C22.7019 23.1439 22.9495 23.1002 23.1851 23.1663C23.5823 23.2784 23.9975 23.0659 24.1406 22.6796C24.2256 22.45 24.4065 22.2754 24.6371 22.2006C24.8681 22.1256 25.117 22.1605 25.3204 22.2961C25.6633 22.5247 26.1241 22.4516 26.3796 22.1283C26.5314 21.9364 26.7575 21.8263 26.9999 21.8263C27.2424 21.8263 27.4684 21.9364 27.6203 22.1283C27.8758 22.4515 28.3367 22.5244 28.6795 22.2961C28.8831 22.1605 29.1322 22.1256 29.3629 22.2006C29.5934 22.2754 29.7743 22.45 29.8593 22.6796C30.0023 23.0658 30.4177 23.2777 30.8148 23.1663C31.0504 23.1002 31.298 23.1439 31.4942 23.2865C31.6903 23.4291 31.8085 23.6511 31.8184 23.8956C31.8352 24.3073 32.1652 24.6372 32.5768 24.6539C32.8213 24.6638 33.0432 24.7819 33.1856 24.9782C33.3282 25.1742 33.3721 25.4219 33.306 25.6575C33.1946 26.0541 33.4065 26.4699 33.7928 26.613C34.0223 26.698 34.1968 26.8789 34.2717 27.1095C34.3467 27.3403 34.3119 27.5893 34.1762 27.7928C33.9477 28.1357 34.0206 28.5965 34.344 28.852C34.5359 29.0038 34.646 29.2299 34.646 29.4723C34.646 29.7148 34.5359 29.9408 34.344 30.0927C34.0207 30.3482 33.9477 30.809 34.1762 31.1519C34.3119 31.3555 34.3467 31.6044 34.2716 31.8352C34.1968 32.0657 34.0223 32.2467 33.7927 32.3317C33.4064 32.4748 33.1946 32.8906 33.306 33.2872C33.3721 33.5228 33.3282 33.7704 33.1855 33.9666C33.0431 34.1628 32.8212 34.2809 32.5767 34.2908C32.1651 34.3076 31.8352 34.6375 31.8184 35.0491C31.8085 35.2936 31.6904 35.5156 31.4941 35.658C31.2982 35.8005 31.0504 35.8443 30.8148 35.7783C30.4177 35.6664 30.0024 35.8787 29.8593 36.2651C29.7743 36.4946 29.5933 36.6691 29.3628 36.7441C29.1317 36.8192 28.8825 36.7844 28.6793 36.6489C28.3364 36.4204 27.8756 36.4934 27.6202 36.8166V36.8166ZM43.0094 50.44C43.0044 50.6873 42.8857 50.9129 42.6841 51.0595C42.4823 51.206 42.2309 51.249 41.9945 51.1775C38.6597 50.1687 35.8203 47.8092 34.206 44.7077L30.6538 37.8018C30.7965 37.6807 30.9246 37.5432 31.0353 37.391C31.5293 37.391 32.0135 37.2362 32.424 36.938C32.8348 36.6397 33.1319 36.2267 33.2844 35.7567C33.4632 35.6985 33.6337 35.6193 33.7928 35.5211L39.2592 41.0298C41.7134 43.5263 43.0803 46.9561 43.0094 50.44ZM52.2764 21.9191C50.2865 24.7789 47.1652 26.7502 43.7166 27.3269L36.051 28.5713C35.98 28.3983 35.8887 28.2341 35.7782 28.082C35.9309 27.6122 35.9334 27.1035 35.7764 26.6208C35.6197 26.1379 35.3187 25.7278 34.9188 25.4374C34.9188 25.2493 34.8962 25.0628 34.852 24.8812L41.7803 21.3846C44.9129 19.8218 48.5972 19.5816 51.8888 20.7259C52.1222 20.8071 52.3002 20.9895 52.3774 21.2266C52.4543 21.4638 52.4176 21.7162 52.2764 21.9191V21.9191Z" fill="black"/>
<path d="M32.5367 29.4724C32.5367 26.4194 30.0528 23.9355 26.9998 23.9355C23.9468 23.9355 21.4629 26.4194 21.4629 29.4724C21.4629 32.5254 23.9468 35.0093 26.9998 35.0093C30.0528 35.0093 32.5367 32.5254 32.5367 29.4724ZM26.9998 33.4273C24.819 33.4273 23.0449 31.6532 23.0449 29.4724C23.0449 27.2916 24.819 25.5175 26.9998 25.5175C29.1806 25.5175 30.9547 27.2916 30.9547 29.4724C30.9547 31.6532 29.1806 33.4273 26.9998 33.4273Z" fill="black"/>
<path d="M26.9999 27.0996C25.6915 27.0996 24.627 28.1642 24.627 29.4726C24.627 30.7809 25.6915 31.8455 26.9999 31.8455C28.3083 31.8455 29.3729 30.7809 29.3729 29.4726C29.3729 28.1642 28.3083 27.0996 26.9999 27.0996ZM26.9999 30.2635C26.5637 30.2635 26.2089 29.9088 26.2089 29.4726C26.2089 29.0364 26.5637 28.6816 26.9999 28.6816C27.4361 28.6816 27.7909 29.0364 27.7909 29.4726C27.7909 29.9088 27.4361 30.2635 26.9999 30.2635Z" fill="black"/>
</svg>
