<svg width="40" height="40" viewBox="0 0 40 40" fill="none" xmlns="http://www.w3.org/2000/svg">
<circle cx="29" cy="19" r="4" fill="#496834"/>
<circle cx="20" cy="19" r="4" fill="#496834"/>
<circle cx="11" cy="19" r="4" fill="#496834"/>
<circle cx="15" cy="27" r="4" fill="#496834"/>
<circle cx="20" cy="35" r="4" fill="#496834"/>
<circle cx="24" cy="27" r="4" fill="#496834"/>
<path d="M34.6632 18.748C34.6632 15.6221 32.1201 13.0791 28.9943 13.0791C27.1639 13.0791 25.5343 13.9518 24.4972 15.3022C23.7006 14.2652 22.5543 13.5109 21.2361 13.2164C21.3271 12.3513 21.547 11.027 22.0797 9.60016C23.2707 6.41024 25.4054 4.21274 28.4243 3.0686L27.5938 0.876799C25.8235 1.54766 24.2835 2.54258 23.0049 3.82563C22.691 2.86625 22.0992 1.78617 20.9854 1.0075C18.95 -0.415623 15.9203 -0.330701 11.9804 1.25977L10.8774 1.70492L11.339 2.80125C11.4291 3.01508 13.5892 8.0493 17.4014 8.84797C17.7507 8.92117 18.0996 8.95758 18.448 8.95758C18.9328 8.95758 19.4164 8.88641 19.8982 8.74531C19.8832 8.78508 19.8675 8.8243 19.8529 8.86438C19.2141 10.6049 18.9732 12.192 18.8825 13.1901C17.5143 13.4648 16.3234 14.2338 15.503 15.302C14.4659 13.9517 12.8363 13.0789 11.0059 13.0789C7.88004 13.0789 5.33691 15.622 5.33691 18.7479C5.33691 21.623 7.48895 24.0034 10.2664 24.3671C9.98832 25.0359 9.83395 25.7686 9.83395 26.5369C9.83395 29.4127 11.9869 31.7935 14.7654 32.1563C14.4861 32.8263 14.3311 33.5608 14.3311 34.3309C14.3311 37.4568 16.8743 39.9999 20.0002 39.9999C23.1261 39.9999 25.6693 37.4568 25.6693 34.3309C25.6693 33.5608 25.5143 32.8263 25.235 32.1563C28.0135 31.7935 30.1664 29.4127 30.1664 26.5369C30.1664 25.7686 30.0121 25.0359 29.7339 24.3671C32.5112 24.0036 34.6632 21.6232 34.6632 18.748ZM17.886 6.55477C16.242 6.21289 14.8459 4.36203 14.0562 2.99C16.5664 2.15281 18.4793 2.12516 19.6297 2.91969C20.6258 3.60766 20.9051 4.82789 20.983 5.49336C19.8895 6.41242 18.8723 6.76 17.886 6.55477ZM20 15.4227C21.8336 15.4227 23.3252 16.9145 23.3252 18.7479C23.3252 20.5815 21.8335 22.073 20 22.073C18.1664 22.073 16.6747 20.5813 16.6747 18.7479C16.6747 16.9145 18.1664 15.4227 20 15.4227ZM11.0057 22.0732C9.17215 22.0732 7.68051 20.5815 7.68051 18.748C7.68051 16.9145 9.17223 15.4229 11.0057 15.4229C12.8393 15.4229 14.3308 16.9146 14.3308 18.748C14.3308 20.5816 12.8392 22.0732 11.0057 22.0732ZM15.5028 29.8623C13.6693 29.8622 12.1776 28.3706 12.1776 26.537C12.1776 24.7035 13.6693 23.2119 15.5028 23.2119C17.3364 23.2119 18.828 24.7036 18.828 26.537C18.828 28.3706 17.3364 29.8623 15.5028 29.8623ZM20 37.6562C18.1664 37.6562 16.6747 36.1645 16.6747 34.3309C16.6747 32.4974 18.1664 31.0058 20 31.0058C21.8335 31.0058 23.3252 32.4975 23.3252 34.3309C23.3252 36.1645 21.8335 37.6562 20 37.6562ZM24.4971 29.8622C22.6635 29.8622 21.1718 28.3705 21.1718 26.537C21.1718 24.7034 22.6636 23.2118 24.4971 23.2118C26.3307 23.2118 27.8222 24.7035 27.8222 26.537C27.8223 28.3706 26.3306 29.8622 24.4971 29.8622ZM28.9942 22.0732C27.1606 22.0732 25.669 20.5815 25.669 18.748C25.669 16.9145 27.1607 15.4229 28.9942 15.4229C30.8277 15.4229 32.3193 16.9146 32.3193 18.748C32.3194 20.5816 30.8277 22.0732 28.9942 22.0732Z" fill="#09430B"/>
</svg>
