<svg width="251" height="700" viewBox="0 0 251 700" fill="none" xmlns="http://www.w3.org/2000/svg">
<path d="M199.9 241.317L200.333 241.15C164.133 219.533 167 192.533 167 183.333H83.6668V184.383C83.6668 193.583 86.2668 219.533 50.0668 241.15L50.4668 241.317C20.7668 262.667 0.333496 295.9 0.333496 333.333L17.0002 683.333C17.0002 692.55 24.4668 700 33.6668 700H217C226.217 700 233.667 692.55 233.667 683.333L250.333 333.333C250.333 295.9 229.734 262.683 199.9 241.317Z" fill="#496834"/>
<path d="M167 66.6833C176.217 66.6833 183.667 59.2167 183.667 50.0167V16.6667C183.667 7.46667 176.217 0 167 0H83.6667C74.4667 0 67 7.46667 67 16.6667V50.0167C67 59.2167 74.4667 66.6833 83.6667 66.6833V183.333H167V66.6833Z" fill="#5E1224"/>
<path d="M167 166.667H83.6665V183.333H167V166.667Z" fill="#D4AF37"/>
<path d="M182.817 350C178.75 321.783 154.684 300 125.334 300C95.9835 300 71.9168 321.783 67.8335 350H34.4502L45.8168 600H204.833L216.217 350H182.817Z" fill="#FFECB3"/>
<path d="M183.667 383.333H67V416.667H183.667V383.333Z" fill="#A9AC51"/>
<path d="M216.5 700C211.416 653.283 164.7 616.667 125.333 616.667C85.9665 616.667 39.2498 653.283 34.1665 700H216.5Z" fill="#33691E"/>
</svg>
