<svg width="200" height="200" viewBox="0 0 200 200" fill="none" xmlns="http://www.w3.org/2000/svg">
<path d="M89.2897 61.3489L58.4074 52.5254L51.0544 76.0548L52.525 89.2901L64.2897 102.525L99.5839 115.761L118.701 109.878L143.701 93.7019L149.584 76.0548L143.701 53.996H123.113L89.2897 61.3489Z" fill="#F8E39F" stroke="#F5DA83"/>
<path d="M150.747 65.5344L147.45 54.425C147.423 54.3349 147.391 54.2463 147.355 54.1594L135.433 14.0625C135.265 13.4981 134.919 13.003 134.447 12.6511C133.975 12.2991 133.401 12.1091 132.812 12.1094L67.1875 12.1094C66.5986 12.1094 66.0255 12.2995 65.5534 12.6514C65.0813 13.0033 64.7354 13.4982 64.5672 14.0625L49.2547 65.5297C45.2359 79.0125 49.5375 93.8734 59.714 101.67C70.8107 109.899 83.6647 115.442 97.2656 117.863V170.363L77.2656 182.841C76.7616 183.155 76.3735 183.625 76.1603 184.179C75.947 184.734 75.9201 185.342 76.0835 185.913C76.247 186.485 76.592 186.987 77.0663 187.344C77.5406 187.702 78.1185 187.895 78.7125 187.895H121.291C121.885 187.895 122.462 187.702 122.937 187.344C123.411 186.987 123.756 186.485 123.92 185.913C124.083 185.342 124.056 184.734 123.843 184.179C123.63 183.625 123.242 183.155 122.737 182.841L102.737 170.363V117.863C116.337 115.442 129.19 109.9 140.286 101.672C150.469 93.875 154.764 79.0141 150.747 65.5344ZM69.2266 17.5781L130.773 17.5781L140.93 51.7156C128.219 50.0356 115.293 51.2263 103.103 55.2C84.5234 60.95 69.8219 54.4344 60.3516 47.4313L69.2266 17.5781ZM88.2594 182.422L100 175.098L111.741 182.423L88.2594 182.422ZM136.964 97.3281C126.063 105.386 113.386 110.709 100 112.848C86.6145 110.709 73.9383 105.387 63.0375 97.3297C54.7562 90.9859 51.1625 78.2672 54.4953 67.0938L58.6937 52.9828C67.5003 59.3121 78.0431 62.7744 88.8875 62.8984C94.2569 62.8761 99.5921 62.0428 104.712 60.4266C116.945 56.3857 129.984 55.413 142.681 57.5938L145.494 67.0953C148.834 78.2688 145.244 90.9844 136.964 97.3281Z" fill="#1C2E4A"/>
</svg>
