<svg width="200" height="200" viewBox="0 0 200 200" fill="none" xmlns="http://www.w3.org/2000/svg">
<path d="M89.29 61.3489L58.4076 52.5254L51.0547 76.0548L52.5253 89.2901L64.29 102.525L99.5841 115.761L118.702 109.878L143.702 93.7019L149.584 76.0548L143.702 53.996H123.114L89.29 61.3489Z" fill="#400000" stroke="#400000"/>
<path d="M150.747 65.5344L147.45 54.425C147.423 54.3349 147.391 54.2463 147.355 54.1594L135.433 14.0625C135.265 13.4981 134.919 13.003 134.447 12.6511C133.975 12.2991 133.402 12.1091 132.813 12.1094L67.1877 12.1094C66.5989 12.1094 66.0258 12.2995 65.5537 12.6514C65.0816 13.0033 64.7357 13.4982 64.5674 14.0625L49.2549 65.5297C45.2362 79.0125 49.5377 93.8734 59.7143 101.67C70.8109 109.899 83.6649 115.442 97.2659 117.863V170.363L77.2659 182.841C76.7618 183.155 76.3738 183.625 76.1605 184.179C75.9472 184.734 75.9203 185.342 76.0838 185.913C76.2472 186.485 76.5922 186.987 77.0665 187.344C77.5409 187.702 78.1187 187.895 78.7127 187.895H121.291C121.885 187.895 122.463 187.702 122.937 187.344C123.411 186.987 123.756 186.485 123.92 185.913C124.083 185.342 124.056 184.734 123.843 184.179C123.63 183.625 123.242 183.155 122.738 182.841L102.738 170.363V117.863C116.337 115.442 129.19 109.9 140.286 101.672C150.469 93.875 154.764 79.0141 150.747 65.5344V65.5344ZM69.2268 17.5781L130.774 17.5781L140.93 51.7156C128.219 50.0356 115.293 51.2263 103.103 55.2C84.5237 60.95 69.8221 54.4344 60.3518 47.4313L69.2268 17.5781ZM88.2596 182.422L100 175.098L111.741 182.423L88.2596 182.422ZM136.964 97.3281C126.063 105.386 113.386 110.709 100 112.848C86.6147 110.709 73.9386 105.387 63.0377 97.3297C54.7565 90.9859 51.1627 78.2672 54.4955 67.0938L58.694 52.9828C67.5005 59.3121 78.0434 62.7744 88.8877 62.8984C94.2571 62.8761 99.5923 62.0428 104.713 60.4266C116.946 56.3857 129.984 55.413 142.681 57.5938L145.494 67.0953C148.835 78.2688 145.244 90.9844 136.964 97.3281V97.3281Z" fill="#1C2E4A"/>
</svg>
