<svg width="24" height="24" viewBox="0 0 24 24" fill="none" xmlns="http://www.w3.org/2000/svg">
<g clip-path="url(#clip0)">
<path d="M23.9949 12.3515C24.1908 5.50366 18.6478 -0.0982786 11.8213 0.000994229C5.25105 0.0965429 -0.0499218 5.52268 0.000354696 12.0935C0.0364328 16.8018 2.78424 20.8642 6.75888 22.797C6.98879 22.9088 7.25495 22.735 7.24535 22.4795C7.21637 21.7074 7.24134 20.882 7.39583 20.2186C7.54789 19.5653 8.14451 17.0389 8.53677 15.3792C8.7277 14.5712 8.75074 13.7322 8.597 12.9164C8.54655 12.6486 8.51001 12.3341 8.51001 11.9846C8.51001 10.211 9.538 8.88679 10.818 8.88679C11.9062 8.88679 12.4319 9.70384 12.4319 10.6835C12.4319 11.7779 11.7351 13.4141 11.3755 14.9305C11.075 16.2001 12.0122 17.2354 13.2643 17.2354C15.5314 17.2354 17.2741 14.845 17.2741 11.3944C17.2741 8.34038 15.0796 6.20502 11.9461 6.20502C8.31681 6.20502 6.18652 8.92723 6.18652 11.7405C6.18652 12.8368 6.60887 14.0124 7.13578 14.6514C7.23994 14.7777 7.2553 14.8884 7.22429 15.0173C7.12746 15.4202 6.91227 16.2866 6.87002 16.4638C6.81434 16.6973 6.68515 16.7468 6.44349 16.6344C4.85029 15.8929 3.85436 13.5638 3.85436 11.693C3.85436 7.66927 6.77779 3.97418 12.2823 3.97418C16.7071 3.97418 20.1458 7.12717 20.1458 11.341C20.1458 15.737 17.374 19.2749 13.5268 19.2749C12.5101 19.2749 11.5413 18.8594 10.9718 18.2961C10.7966 18.1228 10.5005 18.2017 10.438 18.44C10.2374 19.2042 9.91315 20.4404 9.8087 20.8424C9.62063 21.5656 9.22429 22.408 8.82697 23.1416C8.72141 23.3365 8.82819 23.5773 9.04309 23.6318C10.024 23.8805 11.0529 24.009 12.1134 23.9991C18.4102 23.9407 23.8149 18.646 23.9949 12.3515Z" fill="#5E1224"/>
</g>
<defs>
<clipPath id="clip0">
<rect width="24" height="24" fill="white"/>
</clipPath>
</defs>
</svg>
