<svg width="268" height="64" viewBox="0 0 268 64" fill="none" xmlns="http://www.w3.org/2000/svg">
<path d="M26.9785 41.123C26.7995 41.4486 26.5309 41.6113 26.1729 41.6113C25.8799 41.6113 25.652 41.5137 25.4893 41.3184C25.3265 41.1393 25.2451 40.9196 25.2451 40.6592C25.2451 40.6266 25.2533 40.293 25.2695 39.6582C25.2858 39.0072 25.2939 38.1364 25.2939 37.0459C25.2939 35.6624 25.2939 34.1895 25.2939 32.627C25.3102 31.0645 25.2939 29.4775 25.2451 27.8662C25.1963 26.2549 25.0905 24.6517 24.9277 23.0566C24.765 21.4616 24.5127 19.9398 24.1709 18.4912C23.8291 17.0264 23.3815 15.6673 22.8281 14.4141C22.2747 13.1608 21.5667 12.0785 20.7041 11.167C19.8415 10.2393 18.8161 9.51497 17.6279 8.99414C16.4398 8.47331 15.04 8.21289 13.4287 8.21289C11.8499 8.21289 10.4095 8.48958 9.10742 9.04297C7.80534 9.58008 6.68229 10.3125 5.73828 11.2402C4.81055 12.1517 4.08626 13.2259 3.56543 14.4629C3.06087 15.6836 2.80859 16.9775 2.80859 18.3447C2.80859 19.5329 3.01204 20.6315 3.41895 21.6406C3.84212 22.6335 4.41178 23.4961 5.12793 24.2285C5.84408 24.9609 6.67415 25.5387 7.61816 25.9619C8.57845 26.3688 9.5957 26.5723 10.6699 26.5723C11.4674 26.5723 12.1999 26.4665 12.8672 26.2549C13.5345 26.027 14.1042 25.7829 14.5762 25.5225C15.0482 25.262 15.4144 25.026 15.6748 24.8145C15.9352 24.5866 16.0736 24.4727 16.0898 24.4727C16.2689 24.2936 16.4886 24.2041 16.749 24.2041C16.9932 24.2041 17.2048 24.2936 17.3838 24.4727C17.5628 24.6354 17.6523 24.8389 17.6523 25.083C17.6523 25.3271 17.5628 25.5387 17.3838 25.7178C17.3512 25.7503 17.1641 25.9131 16.8223 26.2061C16.4967 26.4827 16.041 26.7839 15.4551 27.1094C14.8691 27.4349 14.1693 27.7279 13.3555 27.9883C12.5579 28.2487 11.6709 28.3789 10.6943 28.3789C9.34342 28.3789 8.07389 28.1266 6.88574 27.6221C5.71387 27.1175 4.68848 26.4176 3.80957 25.5225C2.93066 24.6273 2.23079 23.5693 1.70996 22.3486C1.2054 21.1117 0.953125 19.777 0.953125 18.3447C0.953125 16.7171 1.26237 15.179 1.88086 13.7305C2.51562 12.2819 3.38639 11.0205 4.49316 9.94629C5.59993 8.85579 6.90202 8.0013 8.39941 7.38281C9.91309 6.74805 11.557 6.43066 13.3311 6.43066C15.626 6.43066 17.5628 6.8457 19.1416 7.67578C20.7204 8.48958 22.0225 9.58822 23.0479 10.9717C24.0895 12.3389 24.887 13.9258 25.4404 15.7324C26.0101 17.5228 26.4251 19.3945 26.6855 21.3477C26.946 23.3008 27.1006 25.2702 27.1494 27.2559C27.1982 29.2253 27.2227 31.0807 27.2227 32.8223C27.2227 33.1478 27.2227 33.4977 27.2227 33.8721C27.2227 34.2464 27.2145 34.6208 27.1982 34.9951C27.1982 35.3695 27.1901 35.7275 27.1738 36.0693C27.1738 36.3949 27.1738 36.6634 27.1738 36.875L43.5312 6.60156C43.6777 6.29232 43.9382 6.1377 44.3125 6.1377C44.5892 6.1377 44.8089 6.23535 44.9717 6.43066C45.1507 6.6097 45.2402 6.82129 45.2402 7.06543C45.2402 7.14681 45.1914 7.44792 45.0938 7.96875C44.9961 8.47331 44.874 9.14876 44.7275 9.99512C44.5973 10.8415 44.4508 11.8262 44.2881 12.9492C44.1253 14.056 43.9707 15.2523 43.8242 16.5381C43.694 17.8239 43.5801 19.1667 43.4824 20.5664C43.3848 21.9499 43.3359 23.3333 43.3359 24.7168C43.3359 27.0443 43.458 29.1113 43.7021 30.918C43.9463 32.7083 44.3451 34.222 44.8984 35.459C45.4518 36.696 46.1761 37.6318 47.0713 38.2666C47.9827 38.9014 49.0977 39.2188 50.416 39.2188C51.6042 39.2188 52.7354 38.9665 53.8096 38.4619C54.8838 37.9411 55.8848 37.2331 56.8125 36.3379C57.7402 35.4427 58.6029 34.3929 59.4004 33.1885C60.1979 31.984 60.9141 30.6901 61.5488 29.3066C62.1999 27.9069 62.7695 26.4583 63.2578 24.9609C63.7624 23.4635 64.1774 21.9743 64.5029 20.4932C64.8447 19.012 65.097 17.5716 65.2598 16.1719C65.4388 14.7721 65.5283 13.4863 65.5283 12.3145C65.5283 10.1986 65.2842 8.25358 64.7959 6.47949C64.3239 4.68913 63.5589 3.23242 62.501 2.10938C62.3382 1.94661 62.2568 1.74316 62.2568 1.49902C62.2568 1.23861 62.3464 1.01888 62.5254 0.839844C62.7207 0.660807 62.9404 0.571289 63.1846 0.571289C63.4613 0.571289 63.681 0.660807 63.8438 0.839844C64.4622 1.50716 64.9912 2.264 65.4307 3.11035C65.8864 3.94043 66.2526 4.85189 66.5293 5.84473C66.8223 6.82129 67.0339 7.85482 67.1641 8.94531C67.3105 10.0358 67.3838 11.167 67.3838 12.3389C67.3838 14.1292 67.2129 16.0824 66.8711 18.1982C66.5293 20.2979 66.0247 22.4137 65.3574 24.5459C64.6901 26.6618 63.8682 28.7126 62.8916 30.6982C61.9313 32.6839 60.8164 34.4417 59.5469 35.9717C58.2936 37.4854 56.902 38.7061 55.3721 39.6338C53.8421 40.5452 52.1901 41.001 50.416 41.001C48.7396 41.001 47.3317 40.6266 46.1924 39.8779C45.0531 39.113 44.1335 38.0225 43.4336 36.6064C42.75 35.1742 42.2536 33.4408 41.9443 31.4062C41.6514 29.3717 41.5049 27.0768 41.5049 24.5215C41.5049 23.4635 41.5374 22.373 41.6025 21.25C41.6839 20.127 41.7734 19.0283 41.8711 17.9541C41.985 16.8799 42.099 15.8464 42.2129 14.8535C42.3431 13.8607 42.4652 12.9655 42.5791 12.168L26.9785 41.123ZM73.5361 20.835C73.5361 21.4535 73.3164 21.9824 72.877 22.4219C72.4538 22.8451 71.9329 23.0566 71.3145 23.0566C70.696 23.0566 70.167 22.8451 69.7275 22.4219C69.3044 21.9824 69.0928 21.4535 69.0928 20.835C69.0928 20.5257 69.1497 20.2409 69.2637 19.9805C69.3776 19.7038 69.5322 19.4678 69.7275 19.2725C69.9391 19.0609 70.1751 18.8981 70.4355 18.7842C70.7122 18.6702 71.0052 18.6133 71.3145 18.6133C71.6237 18.6133 71.9085 18.6702 72.1689 18.7842C72.4456 18.8981 72.6816 19.0609 72.877 19.2725C73.0885 19.4678 73.2513 19.7038 73.3652 19.9805C73.4792 20.2409 73.5361 20.5257 73.5361 20.835ZM69.5811 35.1416C69.5811 32.7979 69.7275 30.4622 70.0205 28.1348C70.0531 27.9069 70.1507 27.7116 70.3135 27.5488C70.4925 27.3698 70.7204 27.2803 70.9971 27.2803C71.2412 27.2803 71.4447 27.3779 71.6074 27.5732C71.7702 27.7523 71.8516 27.9639 71.8516 28.208C71.8516 28.3057 71.8271 28.5986 71.7783 29.0869C71.7458 29.5752 71.6969 30.1611 71.6318 30.8447C71.583 31.512 71.5342 32.2282 71.4854 32.9932C71.4528 33.7419 71.4365 34.4336 71.4365 35.0684C71.4365 35.931 71.5179 36.6309 71.6807 37.168C71.8597 37.6888 72.0794 38.0957 72.3398 38.3887C72.6165 38.6816 72.9014 38.877 73.1943 38.9746C73.5036 39.0723 73.7965 39.1211 74.0732 39.1211C74.529 39.1211 75.001 38.9583 75.4893 38.6328C75.9775 38.3073 76.474 37.8516 76.9785 37.2656C77.4993 36.6797 78.0202 35.9798 78.541 35.166C79.0618 34.3359 79.5745 33.4163 80.0791 32.4072C80.1605 32.2445 80.2744 32.1224 80.4209 32.041C80.5674 31.9434 80.7301 31.8945 80.9092 31.8945C81.1696 31.8945 81.3812 31.9922 81.5439 32.1875C81.723 32.3828 81.8125 32.5944 81.8125 32.8223C81.8125 32.985 81.7799 33.1234 81.7148 33.2373C81.5195 33.6117 81.2754 34.0674 80.9824 34.6045C80.6895 35.1416 80.3558 35.695 79.9814 36.2646C79.6071 36.8343 79.1921 37.404 78.7363 37.9736C78.2969 38.527 77.8249 39.0316 77.3203 39.4873C76.8158 39.9268 76.2868 40.2848 75.7334 40.5615C75.18 40.8382 74.6185 40.9766 74.0488 40.9766C73.3164 40.9766 72.6735 40.8219 72.1201 40.5127C71.5667 40.2035 71.0947 39.7884 70.7041 39.2676C70.3298 38.7467 70.0449 38.1364 69.8496 37.4365C69.6706 36.7204 69.5811 35.9554 69.5811 35.1416ZM72.1689 20.835C72.1689 20.6071 72.0794 20.4118 71.9004 20.249C71.7376 20.07 71.5423 19.9805 71.3145 19.9805C71.0866 19.9805 70.8913 20.07 70.7285 20.249C70.5658 20.4118 70.4844 20.6071 70.4844 20.835C70.4844 21.0628 70.5658 21.2581 70.7285 21.4209C70.8913 21.5837 71.0866 21.665 71.3145 21.665C71.5423 21.665 71.7376 21.5837 71.9004 21.4209C72.0794 21.2581 72.1689 21.0628 72.1689 20.835ZM85.4746 37.8027C85.735 37.2656 86.0361 36.6797 86.3779 36.0449C86.7197 35.3939 87.0859 34.7428 87.4766 34.0918C87.8672 33.4245 88.2741 32.7653 88.6973 32.1143C89.1367 31.4632 89.5924 30.8447 90.0645 30.2588C90.5365 29.6891 91.0085 29.2822 91.4805 29.0381C91.9688 28.7777 92.4245 28.6475 92.8477 28.6475C93.694 28.6475 94.3206 28.9567 94.7275 29.5752C95.1344 30.1937 95.3379 30.9587 95.3379 31.8701C95.3379 32.0817 95.3216 32.3421 95.2891 32.6514C95.2728 32.9443 95.2484 33.2617 95.2158 33.6035C95.1995 33.9453 95.1751 34.2952 95.1426 34.6533C95.1263 34.9951 95.1182 35.3206 95.1182 35.6299C95.1182 36.0205 95.1344 36.3949 95.167 36.7529C95.2158 37.111 95.2972 37.4284 95.4111 37.7051C95.5251 37.9655 95.6878 38.1771 95.8994 38.3398C96.111 38.4863 96.3877 38.5596 96.7295 38.5596C97.348 38.5596 97.9502 38.3236 98.5361 37.8516C99.1221 37.3633 99.6592 36.7936 100.147 36.1426C100.652 35.4753 101.083 34.7998 101.441 34.1162C101.816 33.4326 102.092 32.8792 102.271 32.4561C102.353 32.277 102.467 32.1387 102.613 32.041C102.776 31.9434 102.947 31.8945 103.126 31.8945C103.403 31.8945 103.622 32.0003 103.785 32.2119C103.964 32.4072 104.054 32.6188 104.054 32.8467C104.054 32.9606 104.029 33.0745 103.98 33.1885C103.915 33.3187 103.785 33.5872 103.59 33.9941C103.395 34.401 103.134 34.873 102.809 35.4102C102.499 35.931 102.133 36.4925 101.71 37.0947C101.287 37.6807 100.815 38.2178 100.294 38.7061C99.7894 39.1943 99.236 39.6012 98.6338 39.9268C98.0479 40.2523 97.4294 40.415 96.7783 40.415C96.0459 40.415 95.4518 40.2767 94.9961 40C94.5404 39.707 94.1823 39.3327 93.9219 38.877C93.6615 38.4049 93.4824 37.8923 93.3848 37.3389C93.3034 36.7692 93.2627 36.1995 93.2627 35.6299C93.2627 35.3857 93.2708 35.109 93.2871 34.7998C93.3197 34.4906 93.3522 34.165 93.3848 33.8232C93.4336 33.4814 93.4661 33.1396 93.4824 32.7979C93.515 32.4561 93.5312 32.1305 93.5312 31.8213C93.5312 31.3005 93.4499 30.9505 93.2871 30.7715C93.1243 30.5762 92.9779 30.4785 92.8477 30.4785C92.5872 30.4785 92.2861 30.6331 91.9443 30.9424C91.6188 31.2354 91.2689 31.626 90.8945 32.1143C90.5365 32.6025 90.1621 33.1559 89.7715 33.7744C89.3971 34.3766 89.0391 34.9788 88.6973 35.5811C88.3717 36.1833 88.0625 36.7611 87.7695 37.3145C87.4928 37.8516 87.2731 38.2992 87.1104 38.6572C86.7848 39.3408 86.4593 39.7965 86.1338 40.0244C85.8083 40.2686 85.4746 40.3906 85.1328 40.3906C84.6608 40.3906 84.2783 40.2523 83.9854 39.9756C83.7087 39.6826 83.5703 39.2757 83.5703 38.7549C83.5703 38.641 83.5866 38.4212 83.6191 38.0957C83.6517 37.7539 83.6924 37.3551 83.7412 36.8994C83.79 36.4274 83.8389 35.9229 83.8877 35.3857C83.9365 34.8486 83.9854 34.3197 84.0342 33.7988C84.083 33.2617 84.1237 32.7653 84.1562 32.3096C84.1888 31.8538 84.2051 31.4714 84.2051 31.1621C84.2051 30.7552 84.1888 30.3646 84.1562 29.9902C84.1237 29.6159 84.0586 29.388 83.9609 29.3066C83.8145 29.3555 83.554 29.6647 83.1797 30.2344C82.8053 30.7878 82.3252 31.7725 81.7393 33.1885C81.6579 33.3675 81.5358 33.5059 81.373 33.6035C81.2103 33.7012 81.0394 33.75 80.8604 33.75C80.5837 33.75 80.3639 33.6605 80.2012 33.4814C80.0384 33.2861 79.957 33.0664 79.957 32.8223C79.957 32.7083 79.9814 32.5863 80.0303 32.4561C80.7627 30.7145 81.4463 29.4368 82.0811 28.623C82.7321 27.793 83.375 27.3779 84.0098 27.3779C84.3841 27.3779 84.7015 27.4756 84.9619 27.6709C85.2223 27.8499 85.4258 28.0941 85.5723 28.4033C85.735 28.7126 85.849 29.0544 85.9141 29.4287C85.9954 29.8031 86.0361 30.1855 86.0361 30.5762C86.0361 30.8691 86.0117 31.3249 85.9629 31.9434C85.9303 32.5618 85.8815 33.2292 85.8164 33.9453C85.7513 34.6452 85.6862 35.3451 85.6211 36.0449C85.5723 36.7448 85.5234 37.3307 85.4746 37.8027ZM105.25 37.3145C105.592 37.7865 106.031 38.1689 106.568 38.4619C107.105 38.7386 107.765 38.877 108.546 38.877C109.343 38.877 110.068 38.6898 110.719 38.3154C111.37 37.9248 111.964 37.4202 112.501 36.8018C113.038 36.1833 113.518 35.4915 113.941 34.7266C114.365 33.9616 114.747 33.1966 115.089 32.4316C115.17 32.2526 115.284 32.1224 115.431 32.041C115.577 31.9434 115.74 31.8945 115.919 31.8945C116.196 31.8945 116.415 31.9922 116.578 32.1875C116.757 32.3828 116.847 32.5944 116.847 32.8223C116.847 32.9036 116.839 32.9769 116.822 33.042C116.806 33.0908 116.782 33.1478 116.749 33.2129C115.626 35.6868 114.397 37.5505 113.062 38.8037C111.744 40.057 110.247 40.6999 108.57 40.7324C107.496 40.7324 106.568 40.5208 105.787 40.0977C105.006 39.6908 104.363 39.1618 103.858 38.5107C103.354 37.8434 102.979 37.0947 102.735 36.2646C102.491 35.4346 102.369 34.6045 102.369 33.7744C102.369 32.9443 102.467 32.1794 102.662 31.4795C102.874 30.7796 103.167 30.1693 103.541 29.6484C103.932 29.1276 104.387 28.7207 104.908 28.4277C105.445 28.1348 106.031 27.9883 106.666 27.9883C107.04 27.9883 107.407 28.0697 107.765 28.2324C108.139 28.3789 108.473 28.5986 108.766 28.8916C109.059 29.1683 109.295 29.5101 109.474 29.917C109.653 30.3239 109.742 30.7878 109.742 31.3086C109.742 31.9759 109.628 32.6025 109.4 33.1885C109.173 33.7744 108.855 34.3197 108.448 34.8242C108.058 35.3288 107.586 35.7926 107.032 36.2158C106.479 36.639 105.885 37.0052 105.25 37.3145ZM104.518 35.7275C105.022 35.516 105.478 35.2474 105.885 34.9219C106.308 34.5964 106.666 34.2383 106.959 33.8477C107.252 33.457 107.48 33.0501 107.643 32.627C107.805 32.1875 107.887 31.748 107.887 31.3086C107.887 30.8203 107.765 30.4541 107.521 30.21C107.276 29.9495 106.992 29.8193 106.666 29.8193C106.227 29.8193 105.852 29.9414 105.543 30.1855C105.234 30.4297 104.981 30.7471 104.786 31.1377C104.591 31.5283 104.444 31.9678 104.347 32.4561C104.265 32.9281 104.225 33.4001 104.225 33.8721C104.225 34.165 104.249 34.4743 104.298 34.7998C104.363 35.1253 104.436 35.4346 104.518 35.7275ZM117.823 30.9668C117.726 31.2272 117.604 31.5202 117.457 31.8457C117.327 32.1712 117.172 32.513 116.993 32.8711C116.847 33.1478 116.692 33.3675 116.529 33.5303C116.383 33.6768 116.188 33.75 115.943 33.75C115.667 33.75 115.447 33.6686 115.284 33.5059C115.121 33.3268 115.04 33.1234 115.04 32.8955C115.04 32.8141 115.048 32.749 115.064 32.7002C115.081 32.6351 115.121 32.5374 115.187 32.4072C115.61 31.5934 115.919 30.8854 116.114 30.2832C116.326 29.6647 116.497 29.0218 116.627 28.3545C116.513 27.9801 116.432 27.6628 116.383 27.4023C116.334 27.1419 116.31 26.8734 116.31 26.5967C116.31 26.0596 116.424 25.6283 116.651 25.3027C116.879 24.9609 117.197 24.79 117.604 24.79C117.978 24.79 118.271 24.9528 118.482 25.2783C118.71 25.6038 118.824 26.0026 118.824 26.4746C118.824 26.735 118.8 26.9954 118.751 27.2559C118.702 27.5163 118.637 27.8418 118.556 28.2324C118.93 29.1602 119.304 29.9821 119.679 30.6982C120.053 31.4144 120.387 32.0736 120.68 32.6758C120.973 33.2617 121.209 33.8151 121.388 34.3359C121.583 34.8568 121.681 35.3776 121.681 35.8984C121.681 36.582 121.542 37.2331 121.266 37.8516C120.989 38.4701 120.533 38.9909 119.898 39.4141C119.98 39.4303 120.061 39.4385 120.143 39.4385C120.224 39.4385 120.305 39.4385 120.387 39.4385C121.314 39.4385 122.169 39.2269 122.95 38.8037C123.731 38.3805 124.431 37.8353 125.05 37.168C125.685 36.4844 126.246 35.7357 126.734 34.9219C127.223 34.0918 127.646 33.2699 128.004 32.4561C128.167 32.0817 128.395 31.8945 128.688 31.8945C128.964 31.8945 129.176 31.9922 129.322 32.1875C129.485 32.3828 129.566 32.5944 129.566 32.8223C129.566 32.9525 129.542 33.0745 129.493 33.1885C129.314 33.6279 129.078 34.1325 128.785 34.7021C128.508 35.2555 128.167 35.8333 127.76 36.4355C127.369 37.0215 126.913 37.5993 126.393 38.1689C125.872 38.7386 125.286 39.2513 124.635 39.707C124 40.1465 123.3 40.4964 122.535 40.7568C121.77 41.0335 120.932 41.1719 120.021 41.1719C118.93 41.1719 117.913 40.9766 116.969 40.5859C116.041 40.2116 115.284 39.585 114.698 38.7061C114.601 38.5596 114.552 38.4049 114.552 38.2422C114.552 37.998 114.641 37.7865 114.82 37.6074C115.016 37.4121 115.235 37.3145 115.479 37.3145C115.74 37.3145 115.96 37.404 116.139 37.583C116.155 37.6156 116.212 37.6725 116.31 37.7539C116.407 37.819 116.521 37.9004 116.651 37.998C116.798 38.0794 116.961 38.1527 117.14 38.2178C117.335 38.2829 117.53 38.3154 117.726 38.3154C118.116 38.3154 118.442 38.234 118.702 38.0713C118.979 37.9085 119.199 37.7132 119.361 37.4854C119.524 37.2412 119.638 36.9889 119.703 36.7285C119.785 36.4518 119.825 36.2158 119.825 36.0205C119.825 35.6136 119.76 35.2067 119.63 34.7998C119.5 34.3929 119.329 33.986 119.117 33.5791C118.922 33.1722 118.702 32.7572 118.458 32.334C118.23 31.8945 118.019 31.4388 117.823 30.9668ZM150.05 37.3145C149.643 37.3145 149.285 37.2819 148.976 37.2168C148.731 37.7051 148.438 38.1608 148.097 38.584C147.755 38.9909 147.356 39.349 146.9 39.6582C146.461 39.9674 145.965 40.2116 145.411 40.3906C144.858 40.5697 144.256 40.6592 143.604 40.6592C142.84 40.6592 142.14 40.5208 141.505 40.2441C140.87 39.9837 140.317 39.6175 139.845 39.1455C139.373 38.6572 139.007 38.0794 138.746 37.4121C138.486 36.7285 138.355 35.9798 138.355 35.166C138.355 34.1243 138.543 33.221 138.917 32.4561C139.291 31.6748 139.723 31.0319 140.211 30.5273C140.699 30.0065 141.188 29.624 141.676 29.3799C142.164 29.1195 142.53 28.9893 142.774 28.9893C143.051 28.9893 143.255 29.0625 143.385 29.209C143.531 29.3555 143.604 29.5508 143.604 29.7949C143.604 30.0716 143.515 30.2832 143.336 30.4297C143.173 30.5599 142.962 30.6901 142.701 30.8203C142.441 30.9505 142.164 31.1377 141.871 31.3818C141.578 31.6097 141.301 31.9027 141.041 32.2607C140.797 32.6188 140.593 33.042 140.431 33.5303C140.268 34.0186 140.187 34.5638 140.187 35.166C140.187 35.7031 140.268 36.2077 140.431 36.6797C140.593 37.1354 140.829 37.5342 141.139 37.876C141.448 38.2015 141.814 38.4619 142.237 38.6572C142.66 38.8363 143.132 38.9258 143.653 38.9258C144.581 38.9258 145.346 38.7142 145.948 38.291C146.567 37.8516 147.039 37.2982 147.364 36.6309C146.404 36.1263 145.615 35.4102 144.996 34.4824C144.378 33.5547 144.068 32.513 144.068 31.3574C144.068 30.4297 144.288 29.6729 144.728 29.0869C145.183 28.501 145.777 28.208 146.51 28.208C146.949 28.208 147.364 28.3138 147.755 28.5254C148.146 28.737 148.487 29.0706 148.78 29.5264C149.09 29.9821 149.334 30.568 149.513 31.2842C149.692 32.0003 149.781 32.8548 149.781 33.8477C149.781 34.3685 149.716 34.9137 149.586 35.4834C149.684 35.4997 149.781 35.5078 149.879 35.5078C149.977 35.5078 150.082 35.5078 150.196 35.5078C150.75 35.5078 151.246 35.4427 151.686 35.3125C152.125 35.1823 152.524 34.987 152.882 34.7266C153.24 34.4661 153.557 34.1325 153.834 33.7256C154.127 33.3187 154.404 32.8467 154.664 32.3096C154.713 32.2119 154.819 32.1224 154.981 32.041C155.144 31.9434 155.307 31.8945 155.47 31.8945C155.681 31.8945 155.877 31.984 156.056 32.1631C156.251 32.3258 156.349 32.5456 156.349 32.8223C156.349 32.9525 156.316 33.099 156.251 33.2617C156.186 33.4082 156.121 33.5465 156.056 33.6768C155.779 34.165 155.453 34.637 155.079 35.0928C154.721 35.5322 154.29 35.9229 153.785 36.2646C153.297 36.5902 152.743 36.8506 152.125 37.0459C151.507 37.2412 150.815 37.3307 150.05 37.3145ZM145.875 31.1621C145.875 31.4714 145.916 31.7969 145.997 32.1387C146.078 32.4805 146.201 32.8223 146.363 33.1641C146.542 33.4896 146.754 33.807 146.998 34.1162C147.258 34.4092 147.56 34.6615 147.901 34.873C147.95 34.5312 147.975 34.1976 147.975 33.8721C147.975 33.4326 147.942 32.985 147.877 32.5293C147.812 32.0736 147.714 31.6585 147.584 31.2842C147.47 30.8936 147.324 30.5843 147.145 30.3564C146.965 30.1123 146.754 29.9902 146.51 29.9902C146.412 29.9902 146.282 30.0635 146.119 30.21C145.956 30.3564 145.875 30.6738 145.875 31.1621ZM156.52 41.1963C157.724 40.6592 158.814 40.0407 159.791 39.3408C160.784 38.641 161.663 37.9085 162.428 37.1436C163.209 36.3623 163.868 35.5729 164.405 34.7754C164.959 33.9616 165.398 33.1885 165.724 32.4561C165.87 32.098 166.147 31.9189 166.554 31.9189C166.83 31.9189 167.05 32.0166 167.213 32.2119C167.392 32.391 167.481 32.5944 167.481 32.8223C167.481 32.9525 167.457 33.0745 167.408 33.1885C167.05 33.986 166.594 34.8161 166.041 35.6787C165.488 36.5251 164.812 37.3633 164.015 38.1934C163.233 39.0072 162.314 39.7965 161.256 40.5615C160.198 41.3265 158.985 42.0264 157.618 42.6611C158.497 43.5726 159.262 44.5817 159.913 45.6885C160.564 46.8115 161.101 47.9753 161.524 49.1797C161.964 50.3841 162.289 51.5967 162.501 52.8174C162.729 54.0544 162.843 55.2344 162.843 56.3574C162.843 57.3828 162.745 58.3431 162.55 59.2383C162.371 60.1497 162.094 60.9391 161.72 61.6064C161.362 62.2738 160.922 62.7946 160.401 63.1689C159.881 63.5596 159.286 63.7549 158.619 63.7549C157.643 63.7549 156.886 63.3887 156.349 62.6562C155.812 61.9401 155.413 60.9391 155.152 59.6533C154.908 58.3838 154.762 56.8783 154.713 55.1367C154.68 53.4115 154.664 51.5316 154.664 49.4971C154.664 48.488 154.664 47.3079 154.664 45.957C154.664 44.6224 154.664 43.182 154.664 41.6357C154.68 40.1058 154.688 38.5026 154.688 36.8262C154.705 35.1335 154.721 33.4408 154.737 31.748C154.754 30.0553 154.77 28.3952 154.786 26.7676C154.802 25.1237 154.827 23.5693 154.859 22.1045C154.908 19.305 155.006 16.8066 155.152 14.6094C155.299 12.4121 155.535 10.5566 155.86 9.04297C156.186 7.5293 156.625 6.38184 157.179 5.60059C157.748 4.80306 158.465 4.4043 159.327 4.4043C160.011 4.4043 160.589 4.59961 161.061 4.99023C161.533 5.36458 161.915 5.87728 162.208 6.52832C162.501 7.16309 162.713 7.91178 162.843 8.77441C162.973 9.63704 163.038 10.5404 163.038 11.4844C163.038 13.4701 162.867 15.3906 162.525 17.2461C162.184 19.1016 161.72 20.9001 161.134 22.6416C160.548 24.3831 159.856 26.084 159.059 27.7441C158.277 29.4043 157.439 31.04 156.544 32.6514C156.544 33.3187 156.544 34.043 156.544 34.8242C156.544 35.5892 156.544 36.3623 156.544 37.1436C156.544 37.9085 156.536 38.6491 156.52 39.3652C156.52 40.0651 156.52 40.6755 156.52 41.1963ZM156.593 28.8916C157.26 27.6383 157.87 26.32 158.424 24.9365C158.993 23.5368 159.482 22.0964 159.889 20.6152C160.296 19.1341 160.613 17.6204 160.841 16.0742C161.069 14.528 161.183 12.9736 161.183 11.4111C161.183 10.6299 161.142 9.92188 161.061 9.28711C160.995 8.65234 160.882 8.11523 160.719 7.67578C160.572 7.22005 160.377 6.87012 160.133 6.62598C159.905 6.36556 159.636 6.23535 159.327 6.23535C159.002 6.23535 158.717 6.43066 158.473 6.82129C158.229 7.21191 158.017 7.73275 157.838 8.38379C157.659 9.03483 157.504 9.78353 157.374 10.6299C157.26 11.4762 157.162 12.3633 157.081 13.291C157 14.2025 156.935 15.1221 156.886 16.0498C156.837 16.9613 156.796 17.8239 156.764 18.6377C156.747 19.4352 156.731 20.1432 156.715 20.7617C156.715 21.3802 156.715 21.8441 156.715 22.1533C156.699 22.8044 156.682 23.3822 156.666 23.8867C156.666 24.3913 156.658 24.8877 156.642 25.376C156.625 25.8643 156.609 26.3851 156.593 26.9385C156.593 27.4919 156.593 28.1429 156.593 28.8916ZM156.52 44.1992C156.52 45.2246 156.511 46.1768 156.495 47.0557C156.495 47.9508 156.495 48.7646 156.495 49.4971C156.495 51.0107 156.503 52.5081 156.52 53.9893C156.536 55.4704 156.609 56.7969 156.739 57.9688C156.886 59.1569 157.097 60.109 157.374 60.8252C157.667 61.5576 158.082 61.9238 158.619 61.9238C159.107 61.9238 159.506 61.7041 159.815 61.2646C160.125 60.8252 160.361 60.3044 160.523 59.7021C160.702 59.0999 160.825 58.4814 160.89 57.8467C160.955 57.2282 160.987 56.7236 160.987 56.333C160.987 55.3402 160.89 54.2985 160.694 53.208C160.515 52.1175 160.23 51.0352 159.84 49.9609C159.465 48.903 159.002 47.8776 158.448 46.8848C157.895 45.8919 157.252 44.9967 156.52 44.1992ZM206.812 2.1582C207.203 2.1582 207.545 2.3291 207.838 2.6709C208.131 3.0127 208.277 3.43587 208.277 3.94043C208.277 4.62402 208.001 5.389 207.447 6.23535C206.91 7.06543 206.129 7.9362 205.104 8.84766C204.924 9.75911 204.77 10.8008 204.64 11.9727C204.509 13.1283 204.444 14.4466 204.444 15.9277C204.444 18.2064 204.371 20.4281 204.225 22.5928C204.078 24.7575 203.801 26.792 203.395 28.6963C202.988 30.6006 202.41 32.3503 201.661 33.9453C200.929 35.5404 199.96 36.9157 198.756 38.0713C197.568 39.2106 196.119 40.0977 194.41 40.7324C192.701 41.3835 190.675 41.709 188.331 41.709C186.378 41.709 184.636 41.4811 183.106 41.0254C181.576 40.5697 180.274 39.943 179.2 39.1455C178.142 38.3317 177.328 37.3877 176.759 36.3135C176.205 35.223 175.929 34.043 175.929 32.7734C175.929 31.5039 176.197 30.332 176.734 29.2578C177.271 28.1673 177.996 27.2233 178.907 26.4258C179.819 25.612 180.877 24.9772 182.081 24.5215C183.302 24.0658 184.596 23.8379 185.963 23.8379C186.174 23.8379 186.386 23.846 186.598 23.8623C186.826 23.8623 187.029 23.8949 187.208 23.96C187.387 24.0088 187.534 24.1064 187.647 24.2529C187.778 24.3831 187.843 24.5703 187.843 24.8145C187.843 25.0749 187.745 25.2946 187.55 25.4736C187.371 25.6364 187.159 25.7178 186.915 25.7178C186.752 25.7178 186.59 25.7178 186.427 25.7178C186.28 25.7015 186.126 25.6934 185.963 25.6934C184.856 25.6934 183.806 25.8724 182.813 26.2305C181.821 26.5885 180.95 27.085 180.201 27.7197C179.452 28.3545 178.858 29.1032 178.419 29.9658C177.979 30.8285 177.76 31.7643 177.76 32.7734C177.76 33.6686 177.923 34.4661 178.248 35.166C178.574 35.8659 179.013 36.4844 179.566 37.0215C180.12 37.5423 180.755 37.9899 181.471 38.3643C182.203 38.7386 182.968 39.0397 183.766 39.2676C184.563 39.4954 185.369 39.6663 186.183 39.7803C187.013 39.8779 187.802 39.9268 188.551 39.9268C190.618 39.9268 192.4 39.6338 193.897 39.0479C195.395 38.4619 196.656 37.64 197.682 36.582C198.723 35.5241 199.562 34.2627 200.196 32.7979C200.831 31.3167 201.327 29.6891 201.686 27.915C202.044 26.1247 202.28 24.2204 202.394 22.2021C202.524 20.1676 202.597 18.068 202.613 15.9033C202.63 14.8617 202.67 13.8444 202.735 12.8516C202.8 11.8424 202.89 10.931 203.004 10.1172C202.353 10.459 201.637 10.7926 200.855 11.1182C200.074 11.4437 199.285 11.7855 198.487 12.1436C197.706 12.4854 196.941 12.8597 196.192 13.2666C195.444 13.6572 194.776 14.0967 194.19 14.585C193.621 15.057 193.157 15.5941 192.799 16.1963C192.457 16.7822 192.286 17.4414 192.286 18.1738C192.286 18.8411 192.4 19.4271 192.628 19.9316C192.856 20.4199 193.141 20.835 193.482 21.1768C193.824 21.5186 194.199 21.8034 194.605 22.0312C195.012 22.2428 195.387 22.4137 195.729 22.5439C196.087 22.6579 196.388 22.7474 196.632 22.8125C196.892 22.8613 197.039 22.8857 197.071 22.8857C197.348 22.9671 197.535 23.0811 197.633 23.2275C197.73 23.3577 197.779 23.5205 197.779 23.7158C197.779 23.9925 197.698 24.2204 197.535 24.3994C197.372 24.5622 197.169 24.6436 196.925 24.6436C196.892 24.6436 196.819 24.6436 196.705 24.6436C196.607 24.6273 196.542 24.611 196.51 24.5947C195.973 24.4808 195.354 24.2855 194.654 24.0088C193.954 23.7158 193.287 23.3171 192.652 22.8125C192.034 22.2917 191.505 21.6406 191.065 20.8594C190.642 20.0781 190.431 19.126 190.431 18.0029C190.431 17.0101 190.675 16.1312 191.163 15.3662C191.651 14.6012 192.286 13.9176 193.067 13.3154C193.865 12.7132 194.744 12.1761 195.704 11.7041C196.681 11.2321 197.649 10.7926 198.609 10.3857C199.57 9.96257 200.473 9.55566 201.319 9.16504C202.166 8.77441 202.857 8.35124 203.395 7.89551C203.85 5.92611 204.379 4.47754 204.981 3.5498C205.584 2.62207 206.194 2.1582 206.812 2.1582ZM228.736 15.5615C228.736 15.8219 228.647 16.0335 228.468 16.1963C228.289 16.3428 228.069 16.416 227.809 16.416H215.431V16.6846C215.431 17.6774 215.357 18.7354 215.211 19.8584C215.064 20.9814 214.861 22.1045 214.601 23.2275C214.356 24.3343 214.072 25.4167 213.746 26.4746C213.437 27.5326 213.111 28.5091 212.77 29.4043C212.444 30.2995 212.118 31.0807 211.793 31.748C211.467 32.3991 211.174 32.8874 210.914 33.2129C211.126 33.9616 211.378 34.6615 211.671 35.3125C211.964 35.9473 212.289 36.5088 212.647 36.9971C213.022 37.4691 213.421 37.8434 213.844 38.1201C214.267 38.3968 214.723 38.5352 215.211 38.5352C215.781 38.5352 216.342 38.2992 216.896 37.8271C217.465 37.3389 217.986 36.7692 218.458 36.1182C218.946 35.4508 219.369 34.7835 219.728 34.1162C220.102 33.4326 220.37 32.8874 220.533 32.4805C220.696 32.0898 220.981 31.8945 221.388 31.8945C221.664 31.8945 221.884 31.9922 222.047 32.1875C222.226 32.3828 222.315 32.5944 222.315 32.8223C222.315 32.9362 222.291 33.0501 222.242 33.1641C222.193 33.278 222.071 33.5384 221.876 33.9453C221.697 34.3522 221.453 34.8242 221.144 35.3613C220.851 35.8984 220.501 36.4681 220.094 37.0703C219.703 37.6562 219.256 38.1934 218.751 38.6816C218.263 39.1699 217.734 39.5768 217.164 39.9023C216.594 40.2279 215.992 40.3906 215.357 40.3906C214.234 40.3906 213.225 40.0244 212.33 39.292C211.435 38.5596 210.67 37.5342 210.035 36.2158C209.417 34.8975 208.945 33.335 208.619 31.5283C208.294 29.7217 208.131 27.7441 208.131 25.5957C208.131 25.0586 208.139 24.432 208.155 23.7158C208.172 22.9834 208.204 22.2184 208.253 21.4209C208.302 20.6071 208.375 19.777 208.473 18.9307C208.57 18.068 208.701 17.2298 208.863 16.416H200.099C199.838 16.416 199.618 16.3428 199.439 16.1963C199.26 16.0335 199.171 15.8219 199.171 15.5615C199.171 15.3011 199.26 15.0977 199.439 14.9512C199.618 14.7884 199.838 14.707 200.099 14.707H209.278C209.441 14.1211 209.628 13.584 209.84 13.0957C210.068 12.6074 210.32 12.1842 210.597 11.8262C210.89 11.4681 211.207 11.1914 211.549 10.9961C211.907 10.7845 212.298 10.6787 212.721 10.6787C213.128 10.6787 213.478 10.7845 213.771 10.9961C214.08 11.1914 214.34 11.4681 214.552 11.8262C214.763 12.1842 214.926 12.6074 215.04 13.0957C215.17 13.584 215.268 14.1211 215.333 14.707H227.809C228.069 14.707 228.289 14.7884 228.468 14.9512C228.647 15.0977 228.736 15.3011 228.736 15.5615ZM210.353 30.7715C210.841 29.6973 211.28 28.5417 211.671 27.3047C212.078 26.0514 212.42 24.79 212.696 23.5205C212.989 22.251 213.209 21.0059 213.355 19.7852C213.518 18.5645 213.6 17.4414 213.6 16.416H210.719C210.491 17.4251 210.304 18.6784 210.157 20.1758C210.027 21.6569 209.962 23.4635 209.962 25.5957C209.962 26.7839 209.994 27.7848 210.06 28.5986C210.125 29.3962 210.222 30.1204 210.353 30.7715ZM212.623 12.5098C212.477 12.5098 212.265 12.6725 211.988 12.998C211.712 13.3073 211.435 13.877 211.158 14.707H213.502C213.421 14.0234 213.299 13.4863 213.136 13.0957C212.989 12.7051 212.818 12.5098 212.623 12.5098ZM210.743 32.5293V32.5537V32.5293ZM239.503 33.1885C239.438 33.3187 239.299 33.5954 239.088 34.0186C238.893 34.4255 238.632 34.8975 238.307 35.4346C237.997 35.9717 237.631 36.5332 237.208 37.1191C236.785 37.7051 236.313 38.2422 235.792 38.7305C235.271 39.2188 234.71 39.6257 234.107 39.9512C233.505 40.2604 232.87 40.415 232.203 40.415C231.259 40.415 230.462 40.1139 229.811 39.5117C229.176 38.9095 228.712 38.1527 228.419 37.2412C227.866 38.1689 227.206 38.9095 226.441 39.4629C225.676 40 224.911 40.2686 224.146 40.2686C223.544 40.2686 222.999 40.1628 222.511 39.9512C222.022 39.7233 221.607 39.4141 221.266 39.0234C220.924 38.6165 220.655 38.1445 220.46 37.6074C220.281 37.0703 220.191 36.4844 220.191 35.8496C220.191 34.5801 220.403 33.4652 220.826 32.5049C221.266 31.5283 221.819 30.7145 222.486 30.0635C223.154 29.4124 223.886 28.9242 224.684 28.5986C225.497 28.2731 226.279 28.1104 227.027 28.1104C227.532 28.1104 227.996 28.1836 228.419 28.3301C228.842 28.4603 229.2 28.6068 229.493 28.7695C229.802 28.9323 230.038 29.0869 230.201 29.2334C230.364 29.3636 230.453 29.4368 230.47 29.4531C230.649 29.6647 230.738 29.8844 230.738 30.1123C230.738 30.3564 230.649 30.5762 230.47 30.7715C230.291 30.9505 230.079 31.04 229.835 31.04C229.575 31.04 229.355 30.9505 229.176 30.7715C229.143 30.7389 229.07 30.682 228.956 30.6006C228.842 30.5029 228.688 30.4053 228.492 30.3076C228.297 30.21 228.061 30.1286 227.784 30.0635C227.524 29.9821 227.223 29.9414 226.881 29.9414C226.376 29.9414 225.839 30.0553 225.27 30.2832C224.7 30.5111 224.179 30.8691 223.707 31.3574C223.235 31.8294 222.836 32.4316 222.511 33.1641C222.201 33.8802 222.047 34.7347 222.047 35.7275C222.047 36.0368 222.079 36.3542 222.145 36.6797C222.21 36.9889 222.324 37.2738 222.486 37.5342C222.649 37.7946 222.869 38.0062 223.146 38.1689C223.422 38.3317 223.764 38.4131 224.171 38.4131C224.464 38.4131 224.798 38.3154 225.172 38.1201C225.562 37.9248 225.929 37.6237 226.271 37.2168C226.629 36.8099 226.946 36.2972 227.223 35.6787C227.516 35.0602 227.719 34.3278 227.833 33.4814C227.866 33.2536 227.971 33.0664 228.15 32.9199C228.329 32.7572 228.541 32.6758 228.785 32.6758C229.013 32.6758 229.208 32.7653 229.371 32.9443C229.55 33.1234 229.648 33.3268 229.664 33.5547C229.68 33.8639 229.713 34.3034 229.762 34.873C229.811 35.4264 229.916 35.9798 230.079 36.5332C230.258 37.0866 230.519 37.5667 230.86 37.9736C231.202 38.3805 231.674 38.584 232.276 38.584C232.667 38.584 233.049 38.4782 233.424 38.2666C233.814 38.055 234.189 37.7783 234.547 37.4365C234.921 37.0785 235.271 36.6797 235.597 36.2402C235.938 35.7845 236.248 35.3288 236.524 34.873C236.801 34.4173 237.045 33.9779 237.257 33.5547C237.468 33.1315 237.647 32.7653 237.794 32.4561C237.875 32.277 237.989 32.1387 238.136 32.041C238.299 31.9434 238.469 31.8945 238.648 31.8945C238.925 31.8945 239.145 32.0003 239.308 32.2119C239.487 32.4072 239.576 32.6188 239.576 32.8467C239.576 32.9606 239.552 33.0745 239.503 33.1885ZM251.71 33.2373C251.531 33.6117 251.303 34.0592 251.026 34.5801C250.766 35.0846 250.465 35.6136 250.123 36.167C249.781 36.7204 249.399 37.2738 248.976 37.8271C248.552 38.3643 248.089 38.8525 247.584 39.292C247.096 39.7152 246.567 40.057 245.997 40.3174C245.444 40.5941 244.85 40.7324 244.215 40.7324C243.238 40.7324 242.4 40.4313 241.7 39.8291C241 39.2269 240.406 38.4375 239.918 37.4609C239.43 36.4844 239.031 35.3776 238.722 34.1406C238.429 32.8874 238.201 31.6178 238.038 30.332C237.875 29.0299 237.761 27.7686 237.696 26.5479C237.647 25.3271 237.623 24.2448 237.623 23.3008C237.623 21.9336 237.664 20.5176 237.745 19.0527C237.843 17.5879 237.989 16.1556 238.185 14.7559C238.38 13.3561 238.624 12.0296 238.917 10.7764C239.226 9.52311 239.584 8.42448 239.991 7.48047C240.414 6.53646 240.895 5.78776 241.432 5.23438C241.969 4.68099 242.579 4.4043 243.263 4.4043C243.8 4.4043 244.28 4.53451 244.703 4.79492C245.143 5.03906 245.509 5.44596 245.802 6.01562C246.095 6.58529 246.323 7.32585 246.485 8.2373C246.648 9.14876 246.729 10.2637 246.729 11.582C246.729 13.2096 246.559 14.8942 246.217 16.6357C245.875 18.361 245.411 20.1025 244.825 21.8604C244.239 23.6182 243.548 25.376 242.75 27.1338C241.952 28.8753 241.098 30.5762 240.187 32.2363C240.593 34.3034 241.139 35.931 241.822 37.1191C242.506 38.291 243.328 38.877 244.288 38.877C244.939 38.877 245.566 38.6247 246.168 38.1201C246.77 37.5993 247.324 36.9889 247.828 36.2891C248.333 35.5892 248.772 34.8812 249.146 34.165C249.537 33.4326 249.838 32.8467 250.05 32.4072C250.131 32.2445 250.245 32.1224 250.392 32.041C250.538 31.9434 250.701 31.8945 250.88 31.8945C251.157 31.8945 251.376 31.9922 251.539 32.1875C251.718 32.3828 251.808 32.6025 251.808 32.8467C251.808 32.9443 251.775 33.0745 251.71 33.2373ZM239.479 23.4229C239.479 24.4645 239.503 25.4655 239.552 26.4258C239.601 27.3861 239.666 28.3057 239.747 29.1846C240.431 27.8662 241.082 26.4665 241.7 24.9854C242.319 23.488 242.864 21.9824 243.336 20.4688C243.808 18.9388 244.182 17.4251 244.459 15.9277C244.752 14.4141 244.898 12.9736 244.898 11.6064C244.898 9.68587 244.744 8.31055 244.435 7.48047C244.125 6.65039 243.71 6.23535 243.189 6.23535C242.848 6.23535 242.514 6.47135 242.188 6.94336C241.879 7.41536 241.586 8.05827 241.31 8.87207C241.033 9.68587 240.781 10.6462 240.553 11.7529C240.325 12.8597 240.13 14.0479 239.967 15.3174C239.82 16.5869 239.698 17.9134 239.601 19.2969C239.519 20.6803 239.479 22.0557 239.479 23.4229ZM259.156 40.3418C259.726 39.7721 260.304 39.1943 260.89 38.6084C261.476 38.0062 262.045 37.3796 262.599 36.7285C263.152 36.0775 263.665 35.402 264.137 34.7021C264.625 33.986 265.056 33.2292 265.431 32.4316C265.512 32.2526 265.626 32.1224 265.772 32.041C265.919 31.9434 266.082 31.8945 266.261 31.8945C266.537 31.8945 266.757 31.9922 266.92 32.1875C267.099 32.3828 267.188 32.6025 267.188 32.8467C267.188 32.9769 267.164 33.099 267.115 33.2129C266.611 34.2708 266.033 35.2393 265.382 36.1182C264.731 36.9971 264.047 37.8353 263.331 38.6328C262.615 39.4141 261.891 40.1709 261.158 40.9033C260.426 41.652 259.726 42.4007 259.059 43.1494C258.993 44.2725 258.993 45.3955 259.059 46.5186C259.124 47.6579 259.156 48.8623 259.156 50.1318C259.156 51.1735 259.124 52.2152 259.059 53.2568C258.993 54.2985 258.888 55.2913 258.741 56.2354C258.595 57.1956 258.391 58.0908 258.131 58.9209C257.887 59.751 257.569 60.4671 257.179 61.0693C256.788 61.6878 256.332 62.168 255.812 62.5098C255.291 62.8678 254.68 63.0469 253.98 63.0469C252.825 63.0469 251.938 62.6481 251.319 61.8506C250.701 61.0531 250.392 59.9382 250.392 58.5059C250.392 57.7246 250.473 56.8864 250.636 55.9912C250.815 55.096 251.059 54.1683 251.368 53.208C251.677 52.264 252.044 51.3037 252.467 50.3271C252.906 49.3506 253.378 48.3984 253.883 47.4707C254.387 46.543 254.924 45.6559 255.494 44.8096C256.064 43.9795 256.642 43.2227 257.228 42.5391C257.26 41.7578 257.293 40.944 257.325 40.0977C257.374 39.2676 257.423 38.4945 257.472 37.7783C257.049 38.527 256.52 39.1292 255.885 39.585C255.266 40.0407 254.583 40.2686 253.834 40.2686C252.597 40.2686 251.629 39.8535 250.929 39.0234C250.229 38.1934 249.879 37.054 249.879 35.6055C249.879 34.5475 249.977 33.5872 250.172 32.7246C250.383 31.8457 250.603 31.097 250.831 30.4785C251.075 29.8438 251.295 29.3636 251.49 29.0381C251.686 28.6963 251.783 28.5335 251.783 28.5498C251.962 28.2731 252.215 28.1348 252.54 28.1348C252.817 28.1348 253.036 28.2324 253.199 28.4277C253.378 28.6068 253.468 28.8184 253.468 29.0625C253.468 29.2415 253.419 29.4043 253.321 29.5508C253.338 29.5345 253.256 29.6729 253.077 29.9658C252.914 30.2425 252.727 30.6494 252.516 31.1865C252.32 31.7236 252.133 32.3665 251.954 33.1152C251.791 33.8639 251.71 34.6859 251.71 35.5811C251.71 36.4762 251.873 37.1761 252.198 37.6807C252.524 38.1852 253.053 38.4375 253.785 38.4375C254.713 38.4375 255.551 37.7539 256.3 36.3867C257.049 35.0033 257.683 33.0013 258.204 30.3809C258.237 30.1693 258.334 29.9984 258.497 29.8682C258.66 29.7217 258.855 29.6484 259.083 29.6484C259.343 29.6484 259.563 29.738 259.742 29.917C259.921 30.096 260.011 30.3158 260.011 30.5762C260.011 30.625 259.978 30.918 259.913 31.4551C259.848 31.9759 259.767 32.6758 259.669 33.5547C259.588 34.4336 259.498 35.459 259.4 36.6309C259.303 37.7865 259.221 39.0234 259.156 40.3418ZM257.203 45.5176C256.471 46.5755 255.795 47.6904 255.177 48.8623C254.575 50.0342 254.054 51.1979 253.614 52.3535C253.175 53.5091 252.833 54.6159 252.589 55.6738C252.345 56.7318 252.223 57.6758 252.223 58.5059C252.223 59.3522 252.361 60.0114 252.638 60.4834C252.914 60.9717 253.354 61.2158 253.956 61.2158C254.493 61.2158 254.965 60.9473 255.372 60.4102C255.795 59.8893 256.145 59.1406 256.422 58.1641C256.715 57.1875 256.935 55.9993 257.081 54.5996C257.228 53.2161 257.301 51.6618 257.301 49.9365C257.301 49.2367 257.285 48.5286 257.252 47.8125C257.236 47.0964 257.219 46.3314 257.203 45.5176Z" fill="#FAFAFA"/>
</svg>
